<svg width="330" height="199" viewBox="0 0 330 199" fill="none" xmlns="http://www.w3.org/2000/svg">
<rect width="330" height="199" fill="white"/>
<path d="M21.86 38V24H23.88V36.04H30.73V38H21.86ZM35.8405 38.24C34.7271 38.24 33.8505 37.9367 33.2105 37.33C32.5771 36.7167 32.2605 35.8833 32.2605 34.83C32.2605 34.15 32.4205 33.5567 32.7405 33.05C33.0605 32.5433 33.5105 32.1533 34.0905 31.88C34.6771 31.6 35.3638 31.46 36.1505 31.46C36.6305 31.46 37.0838 31.51 37.5105 31.61C37.9438 31.71 38.3405 31.86 38.7005 32.06V31.37C38.7005 30.65 38.5271 30.12 38.1805 29.78C37.8338 29.4333 37.3038 29.26 36.5905 29.26C36.0971 29.26 35.5871 29.35 35.0605 29.53C34.5405 29.71 34.0371 29.9633 33.5505 30.29L32.9705 28.66C33.5105 28.3067 34.1171 28.0333 34.7905 27.84C35.4705 27.64 36.1471 27.54 36.8205 27.54C38.0871 27.54 39.0338 27.8533 39.6605 28.48C40.2938 29.1067 40.6105 30.0433 40.6105 31.29V38H38.7005V37.1C38.3205 37.4667 37.8838 37.75 37.3905 37.95C36.8971 38.1433 36.3805 38.24 35.8405 38.24ZM36.2005 36.52C36.6538 36.52 37.0971 36.4167 37.5305 36.21C37.9705 35.9967 38.3605 35.7 38.7005 35.32V33.74C38.3805 33.5533 38.0171 33.4067 37.6105 33.3C37.2038 33.1933 36.8138 33.14 36.4405 33.14C35.7338 33.14 35.1771 33.2933 34.7705 33.6C34.3638 33.9 34.1605 34.3133 34.1605 34.84C34.1605 35.36 34.3405 35.77 34.7005 36.07C35.0605 36.37 35.5605 36.52 36.2005 36.52ZM48.0331 38.24C47.5398 38.24 47.0998 38.1533 46.7131 37.98C46.3265 37.8 45.9465 37.52 45.5731 37.14V38H43.5831V24.48L45.5731 23.56V28.63C45.8731 28.2833 46.2365 28.0167 46.6631 27.83C47.0898 27.6367 47.5431 27.54 48.0231 27.54C48.8831 27.54 49.6298 27.76 50.2631 28.2C50.8965 28.6333 51.3865 29.2533 51.7331 30.06C52.0865 30.86 52.2631 31.8 52.2631 32.88C52.2631 34.5733 51.8898 35.89 51.1431 36.83C50.4031 37.77 49.3665 38.24 48.0331 38.24ZM47.7731 36.36C48.5665 36.36 49.1731 36.06 49.5931 35.46C50.0198 34.86 50.2331 34 50.2331 32.88C50.2331 31.7467 50.0231 30.8833 49.6031 30.29C49.1831 29.6967 48.5731 29.4 47.7731 29.4C47.3398 29.4 46.9198 29.5133 46.5131 29.74C46.1065 29.9667 45.7931 30.2567 45.5731 30.61V35.14C45.8131 35.52 46.1231 35.82 46.5031 36.04C46.8831 36.2533 47.3065 36.36 47.7731 36.36ZM59.2147 38.24C58.2614 38.24 57.438 38.0133 56.7447 37.56C56.058 37.1067 55.528 36.4767 55.1547 35.67C54.788 34.8633 54.6047 33.9333 54.6047 32.88C54.6047 31.76 54.7947 30.8033 55.1747 30.01C55.5614 29.21 56.098 28.6 56.7847 28.18C57.478 27.7533 58.288 27.54 59.2147 27.54C60.0014 27.54 60.718 27.7133 61.3647 28.06C62.018 28.4 62.538 28.93 62.9247 29.65C63.318 30.3633 63.5147 31.28 63.5147 32.4C63.5147 32.56 63.508 32.7533 63.4947 32.98C63.488 33.2 63.4714 33.4267 63.4447 33.66H56.6147C56.668 34.2267 56.8047 34.7267 57.0247 35.16C57.2514 35.5867 57.5514 35.92 57.9247 36.16C58.298 36.4 58.738 36.52 59.2447 36.52C59.6914 36.52 60.098 36.4433 60.4647 36.29C60.8314 36.13 61.1747 35.8833 61.4947 35.55L62.6547 36.8C62.2547 37.22 61.7647 37.5667 61.1847 37.84C60.6047 38.1067 59.948 38.24 59.2147 38.24ZM56.6047 32H61.5347C61.5214 31.46 61.4214 30.9867 61.2347 30.58C61.0547 30.1667 60.7914 29.8433 60.4447 29.61C60.1047 29.3767 59.688 29.26 59.1947 29.26C58.508 29.26 57.918 29.48 57.4247 29.92C56.9314 30.36 56.658 31.0533 56.6047 32ZM66.1831 38V24.48L68.1731 23.56V38H66.1831ZM69.6928 40.6L77.5728 23.76H79.5728L71.7128 40.6H69.6928ZM81.6647 38V24H83.6847V36.04H90.5347V38H81.6647ZM95.6452 38.24C94.5318 38.24 93.6552 37.9367 93.0152 37.33C92.3818 36.7167 92.0652 35.8833 92.0652 34.83C92.0652 34.15 92.2252 33.5567 92.5452 33.05C92.8652 32.5433 93.3152 32.1533 93.8952 31.88C94.4818 31.6 95.1685 31.46 95.9552 31.46C96.4352 31.46 96.8885 31.51 97.3152 31.61C97.7485 31.71 98.1452 31.86 98.5052 32.06V31.37C98.5052 30.65 98.3318 30.12 97.9852 29.78C97.6385 29.4333 97.1085 29.26 96.3952 29.26C95.9018 29.26 95.3918 29.35 94.8652 29.53C94.3452 29.71 93.8418 29.9633 93.3552 30.29L92.7752 28.66C93.3152 28.3067 93.9218 28.0333 94.5952 27.84C95.2752 27.64 95.9518 27.54 96.6252 27.54C97.8918 27.54 98.8385 27.8533 99.4652 28.48C100.098 29.1067 100.415 30.0433 100.415 31.29V38H98.5052V37.1C98.1252 37.4667 97.6885 37.75 97.1952 37.95C96.7018 38.1433 96.1852 38.24 95.6452 38.24ZM96.0052 36.52C96.4585 36.52 96.9018 36.4167 97.3352 36.21C97.7752 35.9967 98.1652 35.7 98.5052 35.32V33.74C98.1852 33.5533 97.8218 33.4067 97.4152 33.3C97.0085 33.1933 96.6185 33.14 96.2452 33.14C95.5385 33.14 94.9818 33.2933 94.5752 33.6C94.1685 33.9 93.9652 34.3133 93.9652 34.84C93.9652 35.36 94.1452 35.77 94.5052 36.07C94.8652 36.37 95.3652 36.52 96.0052 36.52ZM103.603 38V27.78H105.593V29.04C105.813 28.56 106.126 28.19 106.533 27.93C106.939 27.67 107.403 27.54 107.923 27.54C108.576 27.54 109.129 27.74 109.583 28.14L109.293 29.99C109.059 29.8167 108.819 29.69 108.573 29.61C108.326 29.53 108.059 29.49 107.773 29.49C107.326 29.49 106.939 29.6067 106.613 29.84C106.293 30.0667 106.043 30.39 105.863 30.81C105.683 31.23 105.593 31.7267 105.593 32.3V38H103.603ZM114.354 42.26L113.334 40.66C114.267 40.6 115.014 40.48 115.574 40.3C116.14 40.12 116.55 39.8667 116.804 39.54C117.057 39.2133 117.184 38.8 117.184 38.3V37.13C116.604 37.87 115.774 38.24 114.694 38.24C113.84 38.24 113.097 38.02 112.464 37.58C111.83 37.14 111.34 36.52 110.994 35.72C110.654 34.9133 110.484 33.9667 110.484 32.88C110.484 31.7933 110.657 30.85 111.004 30.05C111.357 29.25 111.85 28.6333 112.484 28.2C113.124 27.76 113.877 27.54 114.744 27.54C115.237 27.54 115.694 27.6267 116.114 27.8C116.54 27.9733 116.897 28.2167 117.184 28.53V27.78H119.174V37.51C119.174 38.2967 119.08 38.9767 118.894 39.55C118.714 40.1233 118.427 40.6 118.034 40.98C117.64 41.3667 117.14 41.6633 116.534 41.87C115.927 42.0767 115.2 42.2067 114.354 42.26ZM115.074 36.36C115.48 36.36 115.874 36.2467 116.254 36.02C116.64 35.7867 116.95 35.48 117.184 35.1V30.61C116.97 30.2567 116.664 29.9667 116.264 29.74C115.864 29.5133 115.47 29.4 115.084 29.4C114.244 29.4 113.6 29.6967 113.154 30.29C112.714 30.8833 112.494 31.7467 112.494 32.88C112.494 33.5933 112.597 34.2133 112.804 34.74C113.017 35.26 113.317 35.66 113.704 35.94C114.09 36.22 114.547 36.36 115.074 36.36ZM126.324 38.24C125.371 38.24 124.547 38.0133 123.854 37.56C123.167 37.1067 122.637 36.4767 122.264 35.67C121.897 34.8633 121.714 33.9333 121.714 32.88C121.714 31.76 121.904 30.8033 122.284 30.01C122.671 29.21 123.207 28.6 123.894 28.18C124.587 27.7533 125.397 27.54 126.324 27.54C127.111 27.54 127.827 27.7133 128.474 28.06C129.127 28.4 129.647 28.93 130.034 29.65C130.427 30.3633 130.624 31.28 130.624 32.4C130.624 32.56 130.617 32.7533 130.604 32.98C130.597 33.2 130.581 33.4267 130.554 33.66H123.724C123.777 34.2267 123.914 34.7267 124.134 35.16C124.361 35.5867 124.661 35.92 125.034 36.16C125.407 36.4 125.847 36.52 126.354 36.52C126.801 36.52 127.207 36.4433 127.574 36.29C127.941 36.13 128.284 35.8833 128.604 35.55L129.764 36.8C129.364 37.22 128.874 37.5667 128.294 37.84C127.714 38.1067 127.057 38.24 126.324 38.24ZM123.714 32H128.644C128.631 31.46 128.531 30.9867 128.344 30.58C128.164 30.1667 127.901 29.8433 127.554 29.61C127.214 29.3767 126.797 29.26 126.304 29.26C125.617 29.26 125.027 29.48 124.534 29.92C124.041 30.36 123.767 31.0533 123.714 32Z" fill="black"/>
<path d="M21.488 67V55.8H23.104V65.432H28.584V67H21.488ZM32.6724 67.192C31.7817 67.192 31.0804 66.9493 30.5684 66.464C30.0617 65.9733 29.8084 65.3067 29.8084 64.464C29.8084 63.92 29.9364 63.4453 30.1924 63.04C30.4484 62.6347 30.8084 62.3227 31.2724 62.104C31.7417 61.88 32.291 61.768 32.9204 61.768C33.3044 61.768 33.667 61.808 34.0084 61.888C34.355 61.968 34.6724 62.088 34.9604 62.248V61.696C34.9604 61.12 34.8217 60.696 34.5444 60.424C34.267 60.1467 33.843 60.008 33.2724 60.008C32.8777 60.008 32.4697 60.08 32.0484 60.224C31.6324 60.368 31.2297 60.5707 30.8404 60.832L30.3764 59.528C30.8084 59.2453 31.2937 59.0267 31.8324 58.872C32.3764 58.712 32.9177 58.632 33.4564 58.632C34.4697 58.632 35.227 58.8827 35.7284 59.384C36.235 59.8853 36.4884 60.6347 36.4884 61.632V67H34.9604V66.28C34.6564 66.5733 34.307 66.8 33.9124 66.96C33.5177 67.1147 33.1044 67.192 32.6724 67.192ZM32.9604 65.816C33.323 65.816 33.6777 65.7333 34.0244 65.568C34.3764 65.3973 34.6884 65.16 34.9604 64.856V63.592C34.7044 63.4427 34.4137 63.3253 34.0884 63.24C33.763 63.1547 33.451 63.112 33.1524 63.112C32.587 63.112 32.1417 63.2347 31.8164 63.48C31.491 63.72 31.3284 64.0507 31.3284 64.472C31.3284 64.888 31.4724 65.216 31.7604 65.456C32.0484 65.696 32.4484 65.816 32.9604 65.816ZM42.4265 67.192C42.0318 67.192 41.6798 67.1227 41.3705 66.984C41.0612 66.84 40.7572 66.616 40.4585 66.312V67H38.8665V56.184L40.4585 55.448V59.504C40.6985 59.2267 40.9892 59.0133 41.3305 58.864C41.6718 58.7093 42.0345 58.632 42.4185 58.632C43.1065 58.632 43.7038 58.808 44.2105 59.16C44.7172 59.5067 45.1092 60.0027 45.3865 60.648C45.6692 61.288 45.8105 62.04 45.8105 62.904C45.8105 64.2587 45.5118 65.312 44.9145 66.064C44.3225 66.816 43.4932 67.192 42.4265 67.192ZM42.2185 65.688C42.8532 65.688 43.3385 65.448 43.6745 64.968C44.0158 64.488 44.1865 63.8 44.1865 62.904C44.1865 61.9973 44.0185 61.3067 43.6825 60.832C43.3465 60.3573 42.8585 60.12 42.2185 60.12C41.8718 60.12 41.5358 60.2107 41.2105 60.392C40.8852 60.5733 40.6345 60.8053 40.4585 61.088V64.712C40.6505 65.016 40.8985 65.256 41.2025 65.432C41.5065 65.6027 41.8452 65.688 42.2185 65.688ZM51.3718 67.192C50.6091 67.192 49.9504 67.0107 49.3958 66.648C48.8464 66.2853 48.4224 65.7813 48.1238 65.136C47.8304 64.4907 47.6838 63.7467 47.6838 62.904C47.6838 62.008 47.8358 61.2427 48.1398 60.608C48.4491 59.968 48.8784 59.48 49.4278 59.144C49.9824 58.8027 50.6304 58.632 51.3718 58.632C52.0011 58.632 52.5744 58.7707 53.0918 59.048C53.6144 59.32 54.0304 59.744 54.3398 60.32C54.6544 60.8907 54.8118 61.624 54.8118 62.52C54.8118 62.648 54.8064 62.8027 54.7958 62.984C54.7904 63.16 54.7771 63.3413 54.7558 63.528H49.2918C49.3344 63.9813 49.4438 64.3813 49.6198 64.728C49.8011 65.0693 50.0411 65.336 50.3398 65.528C50.6384 65.72 50.9904 65.816 51.3958 65.816C51.7531 65.816 52.0784 65.7547 52.3718 65.632C52.6651 65.504 52.9398 65.3067 53.1958 65.04L54.1238 66.04C53.8038 66.376 53.4118 66.6533 52.9478 66.872C52.4838 67.0853 51.9584 67.192 51.3718 67.192ZM49.2838 62.2H53.2278C53.2171 61.768 53.1371 61.3893 52.9878 61.064C52.8438 60.7333 52.6331 60.4747 52.3558 60.288C52.0838 60.1013 51.7504 60.008 51.3558 60.008C50.8064 60.008 50.3344 60.184 49.9398 60.536C49.5451 60.888 49.3264 61.4427 49.2838 62.2ZM56.9465 67V56.184L58.5385 55.448V67H56.9465ZM59.7542 69.08L66.0583 55.608H67.6583L61.3703 69.08H59.7542ZM69.3318 67V55.8H73.9718C74.8838 55.8 75.6011 55.9573 76.1238 56.272C76.6464 56.5867 77.0171 56.9947 77.2358 57.496C77.4598 57.9973 77.5718 58.5253 77.5718 59.08C77.5718 59.512 77.4864 59.944 77.3158 60.376C77.1451 60.808 76.8758 61.1893 76.5078 61.52C76.1451 61.8507 75.6731 62.088 75.0918 62.232L77.4278 67H75.6038L73.3638 62.384H70.9478V67H69.3318ZM70.9478 60.872H74.0038C74.4838 60.872 74.8624 60.7867 75.1398 60.616C75.4224 60.44 75.6224 60.2187 75.7398 59.952C75.8624 59.68 75.9237 59.3973 75.9237 59.104C75.9237 58.8373 75.8678 58.568 75.7558 58.296C75.6438 58.0187 75.4491 57.7867 75.1718 57.6C74.8944 57.408 74.5051 57.312 74.0038 57.312H70.9478V60.872ZM82.6999 67.192C81.9372 67.192 81.2785 67.0107 80.7239 66.648C80.1745 66.2853 79.7505 65.7813 79.4519 65.136C79.1585 64.4907 79.0119 63.7467 79.0119 62.904C79.0119 62.008 79.1639 61.2427 79.4679 60.608C79.7772 59.968 80.2065 59.48 80.7559 59.144C81.3105 58.8027 81.9585 58.632 82.6999 58.632C83.3292 58.632 83.9025 58.7707 84.4199 59.048C84.9425 59.32 85.3585 59.744 85.6679 60.32C85.9825 60.8907 86.1399 61.624 86.1399 62.52C86.1399 62.648 86.1345 62.8027 86.1239 62.984C86.1185 63.16 86.1052 63.3413 86.0839 63.528H80.6199C80.6625 63.9813 80.7719 64.3813 80.9479 64.728C81.1292 65.0693 81.3692 65.336 81.6679 65.528C81.9665 65.72 82.3185 65.816 82.7239 65.816C83.0812 65.816 83.4065 65.7547 83.6999 65.632C83.9932 65.504 84.2679 65.3067 84.5239 65.04L85.4519 66.04C85.1319 66.376 84.7399 66.6533 84.2759 66.872C83.8119 67.0853 83.2865 67.192 82.6999 67.192ZM80.6119 62.2H84.5559C84.5452 61.768 84.4652 61.3893 84.3159 61.064C84.1719 60.7333 83.9612 60.4747 83.6839 60.288C83.4119 60.1013 83.0785 60.008 82.6839 60.008C82.1345 60.008 81.6625 60.184 81.2679 60.536C80.8732 60.888 80.6545 61.4427 80.6119 62.2ZM91.1079 70.408L90.2919 69.128C91.0385 69.08 91.6359 68.984 92.0839 68.84C92.5372 68.696 92.8652 68.4933 93.0679 68.232C93.2705 67.9707 93.3719 67.64 93.3719 67.24V66.304C92.9079 66.896 92.2439 67.192 91.3799 67.192C90.6972 67.192 90.1025 67.016 89.5959 66.664C89.0892 66.312 88.6972 65.816 88.4199 65.176C88.1479 64.5307 88.0119 63.7733 88.0119 62.904C88.0119 62.0347 88.1505 61.28 88.4279 60.64C88.7105 60 89.1052 59.5067 89.6119 59.16C90.1239 58.808 90.7265 58.632 91.4199 58.632C91.8145 58.632 92.1799 58.7013 92.5159 58.84C92.8572 58.9787 93.1425 59.1733 93.3719 59.424V58.824H94.9639V66.608C94.9639 67.2373 94.8892 67.7813 94.7399 68.24C94.5959 68.6987 94.3665 69.08 94.0519 69.384C93.7372 69.6933 93.3372 69.9307 92.8519 70.096C92.3665 70.2613 91.7852 70.3653 91.1079 70.408ZM91.6839 65.688C92.0092 65.688 92.3239 65.5973 92.6279 65.416C92.9372 65.2293 93.1852 64.984 93.3719 64.68V61.088C93.2012 60.8053 92.9559 60.5733 92.6359 60.392C92.3159 60.2107 92.0012 60.12 91.6919 60.12C91.0199 60.12 90.5052 60.3573 90.1479 60.832C89.7959 61.3067 89.6199 61.9973 89.6199 62.904C89.6199 63.4747 89.7025 63.9707 89.8679 64.392C90.0385 64.808 90.2785 65.128 90.5879 65.352C90.8972 65.576 91.2625 65.688 91.6839 65.688ZM100.426 67.192C99.4496 67.192 98.7163 66.8987 98.2256 66.312C97.735 65.7253 97.4896 64.8453 97.4896 63.672V58.824H99.0816V63.6C99.0816 64.2933 99.2203 64.816 99.4976 65.168C99.7803 65.5147 100.196 65.688 100.746 65.688C101.343 65.688 101.788 65.5173 102.082 65.176C102.38 64.8293 102.53 64.3147 102.53 63.632V58.824H104.122V67H102.53V66.224C102.274 66.5547 101.975 66.8 101.634 66.96C101.292 67.1147 100.89 67.192 100.426 67.192ZM106.806 67V56.184L108.398 55.448V67H106.806ZM113.454 67.192C112.563 67.192 111.862 66.9493 111.35 66.464C110.843 65.9733 110.59 65.3067 110.59 64.464C110.59 63.92 110.718 63.4453 110.974 63.04C111.23 62.6347 111.59 62.3227 112.054 62.104C112.523 61.88 113.072 61.768 113.702 61.768C114.086 61.768 114.448 61.808 114.79 61.888C115.136 61.968 115.454 62.088 115.742 62.248V61.696C115.742 61.12 115.603 60.696 115.326 60.424C115.048 60.1467 114.624 60.008 114.054 60.008C113.659 60.008 113.251 60.08 112.83 60.224C112.414 60.368 112.011 60.5707 111.622 60.832L111.158 59.528C111.59 59.2453 112.075 59.0267 112.614 58.872C113.158 58.712 113.699 58.632 114.238 58.632C115.251 58.632 116.008 58.8827 116.51 59.384C117.016 59.8853 117.27 60.6347 117.27 61.632V67H115.742V66.28C115.438 66.5733 115.088 66.8 114.694 66.96C114.299 67.1147 113.886 67.192 113.454 67.192ZM113.742 65.816C114.104 65.816 114.459 65.7333 114.806 65.568C115.158 65.3973 115.47 65.16 115.742 64.856V63.592C115.486 63.4427 115.195 63.3253 114.87 63.24C114.544 63.1547 114.232 63.112 113.934 63.112C113.368 63.112 112.923 63.2347 112.598 63.48C112.272 63.72 112.11 64.0507 112.11 64.472C112.11 64.888 112.254 65.216 112.542 65.456C112.83 65.696 113.23 65.816 113.742 65.816ZM119.82 67V58.824H121.412V59.832C121.588 59.448 121.838 59.152 122.164 58.944C122.489 58.736 122.86 58.632 123.276 58.632C123.798 58.632 124.241 58.792 124.604 59.112L124.372 60.592C124.185 60.4533 123.993 60.352 123.796 60.288C123.598 60.224 123.385 60.192 123.156 60.192C122.798 60.192 122.489 60.2853 122.228 60.472C121.972 60.6533 121.772 60.912 121.628 61.248C121.484 61.584 121.412 61.9813 121.412 62.44V67H119.82Z" fill="black"/>
<path d="M21.302 94V84.2H22.716V92.628H27.511V94H21.302ZM31.0883 94.168C30.309 94.168 29.6953 93.9557 29.2473 93.531C28.804 93.1017 28.5823 92.5183 28.5823 91.781C28.5823 91.305 28.6943 90.8897 28.9183 90.535C29.1423 90.1803 29.4573 89.9073 29.8633 89.716C30.274 89.52 30.7547 89.422 31.3053 89.422C31.6413 89.422 31.9587 89.457 32.2573 89.527C32.5607 89.597 32.8383 89.702 33.0903 89.842V89.359C33.0903 88.855 32.969 88.484 32.7263 88.246C32.4837 88.0033 32.1127 87.882 31.6133 87.882C31.268 87.882 30.911 87.945 30.5423 88.071C30.1783 88.197 29.826 88.3743 29.4853 88.603L29.0793 87.462C29.4573 87.2147 29.882 87.0233 30.3533 86.888C30.8293 86.748 31.303 86.678 31.7743 86.678C32.661 86.678 33.3237 86.8973 33.7623 87.336C34.2057 87.7747 34.4273 88.4303 34.4273 89.303V94H33.0903V93.37C32.8243 93.6267 32.5187 93.825 32.1733 93.965C31.828 94.1003 31.4663 94.168 31.0883 94.168ZM31.3403 92.964C31.6577 92.964 31.968 92.8917 32.2713 92.747C32.5793 92.5977 32.8523 92.39 33.0903 92.124V91.018C32.8663 90.8873 32.612 90.7847 32.3273 90.71C32.0427 90.6353 31.7697 90.598 31.5083 90.598C31.0137 90.598 30.624 90.7053 30.3393 90.92C30.0547 91.13 29.9123 91.4193 29.9123 91.788C29.9123 92.152 30.0383 92.439 30.2903 92.649C30.5423 92.859 30.8923 92.964 31.3403 92.964ZM39.6232 94.168C39.2779 94.168 38.9699 94.1073 38.6992 93.986C38.4285 93.86 38.1625 93.664 37.9012 93.398V94H36.5082V84.536L37.9012 83.892V87.441C38.1112 87.1983 38.3655 87.0117 38.6642 86.881C38.9629 86.7457 39.2802 86.678 39.6162 86.678C40.2182 86.678 40.7409 86.832 41.1842 87.14C41.6275 87.4433 41.9705 87.8773 42.2132 88.442C42.4605 89.002 42.5842 89.66 42.5842 90.416C42.5842 91.6013 42.3229 92.523 41.8002 93.181C41.2822 93.839 40.5565 94.168 39.6232 94.168ZM39.4412 92.852C39.9965 92.852 40.4212 92.642 40.7152 92.222C41.0139 91.802 41.1632 91.2 41.1632 90.416C41.1632 89.6227 41.0162 89.0183 40.7222 88.603C40.4282 88.1877 40.0012 87.98 39.4412 87.98C39.1379 87.98 38.8439 88.0593 38.5592 88.218C38.2745 88.3767 38.0552 88.5797 37.9012 88.827V91.998C38.0692 92.264 38.2862 92.474 38.5522 92.628C38.8182 92.7773 39.1145 92.852 39.4412 92.852ZM47.4503 94.168C46.7829 94.168 46.2066 94.0093 45.7213 93.692C45.2406 93.3747 44.8696 92.9337 44.6083 92.369C44.3516 91.8043 44.2233 91.1533 44.2233 90.416C44.2233 89.632 44.3563 88.9623 44.6223 88.407C44.8929 87.847 45.2686 87.42 45.7493 87.126C46.2346 86.8273 46.8016 86.678 47.4503 86.678C48.0009 86.678 48.5026 86.7993 48.9553 87.042C49.4126 87.28 49.7766 87.651 50.0473 88.155C50.3226 88.6543 50.4603 89.296 50.4603 90.08C50.4603 90.192 50.4556 90.3273 50.4463 90.486C50.4416 90.64 50.4299 90.7987 50.4113 90.962H45.6303C45.6676 91.3587 45.7633 91.7087 45.9173 92.012C46.0759 92.3107 46.2859 92.544 46.5473 92.712C46.8086 92.88 47.1166 92.964 47.4713 92.964C47.7839 92.964 48.0686 92.9103 48.3253 92.803C48.5819 92.691 48.8223 92.5183 49.0463 92.285L49.8583 93.16C49.5783 93.454 49.2353 93.6967 48.8293 93.888C48.4233 94.0747 47.9636 94.168 47.4503 94.168ZM45.6233 89.8H49.0743C49.0649 89.422 48.9949 89.0907 48.8643 88.806C48.7383 88.5167 48.5539 88.2903 48.3113 88.127C48.0733 87.9637 47.7816 87.882 47.4363 87.882C46.9556 87.882 46.5426 88.036 46.1973 88.344C45.8519 88.652 45.6606 89.1373 45.6233 89.8ZM52.3282 94V84.536L53.7212 83.892V94H52.3282ZM54.785 95.82L60.301 84.032H61.701L56.199 95.82H54.785ZM66.0102 94.168C65.4269 94.168 64.8972 94.07 64.4212 93.874C63.9499 93.6733 63.5462 93.398 63.2102 93.048C62.8789 92.698 62.6362 92.2943 62.4822 91.837L63.7982 91.354C63.9989 91.7927 64.2929 92.1497 64.6802 92.425C65.0722 92.6957 65.5272 92.831 66.0452 92.831C66.6006 92.831 67.0439 92.7027 67.3752 92.446C67.7112 92.1893 67.8792 91.8137 67.8792 91.319C67.8792 90.9783 67.7789 90.6913 67.5782 90.458C67.3822 90.2247 67.1209 90.0287 66.7942 89.87C66.4722 89.7067 66.1222 89.5573 65.7442 89.422C65.3989 89.296 65.0512 89.1583 64.7012 89.009C64.3512 88.855 64.0339 88.6707 63.7492 88.456C63.4646 88.2413 63.2336 87.9777 63.0562 87.665C62.8836 87.3523 62.7972 86.9743 62.7972 86.531C62.7972 86.0783 62.9186 85.663 63.1612 85.285C63.4086 84.907 63.7632 84.6037 64.2252 84.375C64.6872 84.1463 65.2449 84.032 65.8982 84.032C66.4349 84.032 66.9062 84.116 67.3122 84.284C67.7229 84.4473 68.0612 84.6737 68.3272 84.963C68.5932 85.2477 68.7776 85.572 68.8802 85.936L67.5922 86.363C67.4709 86.083 67.2609 85.845 66.9622 85.649C66.6682 85.453 66.2832 85.355 65.8072 85.355C65.3219 85.355 64.9392 85.46 64.6592 85.67C64.3839 85.88 64.2462 86.1693 64.2462 86.538C64.2462 86.8087 64.3396 87.0373 64.5262 87.224C64.7129 87.406 64.9579 87.567 65.2612 87.707C65.5692 87.847 65.9029 87.9823 66.2622 88.113C66.6216 88.2437 66.9809 88.393 67.3402 88.561C67.6996 88.7243 68.0286 88.925 68.3272 89.163C68.6306 89.401 68.8732 89.695 69.0552 90.045C69.2372 90.3903 69.3282 90.808 69.3282 91.298C69.3282 91.9093 69.1812 92.4297 68.8872 92.859C68.5979 93.2837 68.2036 93.608 67.7042 93.832C67.2049 94.056 66.6402 94.168 66.0102 94.168ZM71.3305 94V86.846H72.7235V87.518C72.9381 87.238 73.1995 87.028 73.5075 86.888C73.8201 86.748 74.1701 86.678 74.5575 86.678C74.9775 86.678 75.3508 86.769 75.6775 86.951C76.0041 87.1283 76.2561 87.3827 76.4335 87.714C76.6621 87.3827 76.9585 87.1283 77.3225 86.951C77.6865 86.769 78.0948 86.678 78.5475 86.678C79.3501 86.678 79.9778 86.916 80.4305 87.392C80.8831 87.8633 81.1095 88.5213 81.1095 89.366V94H79.7165V89.8C79.7165 89.2027 79.5998 88.75 79.3665 88.442C79.1378 88.134 78.8018 87.98 78.3585 87.98C78.0598 87.98 77.8008 88.0547 77.5815 88.204C77.3668 88.3487 77.2011 88.561 77.0845 88.841C76.9678 89.1163 76.9095 89.443 76.9095 89.821V94H75.5165V89.8C75.5165 89.1933 75.4045 88.7383 75.1805 88.435C74.9565 88.1317 74.6181 87.98 74.1655 87.98C73.7081 87.98 73.3535 88.1363 73.1015 88.449C72.8495 88.7617 72.7235 89.205 72.7235 89.779V94H71.3305ZM85.4614 94.168C84.682 94.168 84.0684 93.9557 83.6204 93.531C83.177 93.1017 82.9554 92.5183 82.9554 91.781C82.9554 91.305 83.0674 90.8897 83.2914 90.535C83.5154 90.1803 83.8304 89.9073 84.2364 89.716C84.647 89.52 85.1277 89.422 85.6784 89.422C86.0144 89.422 86.3317 89.457 86.6304 89.527C86.9337 89.597 87.2114 89.702 87.4634 89.842V89.359C87.4634 88.855 87.342 88.484 87.0994 88.246C86.8567 88.0033 86.4857 87.882 85.9864 87.882C85.641 87.882 85.284 87.945 84.9154 88.071C84.5514 88.197 84.199 88.3743 83.8584 88.603L83.4524 87.462C83.8304 87.2147 84.255 87.0233 84.7264 86.888C85.2024 86.748 85.676 86.678 86.1474 86.678C87.034 86.678 87.6967 86.8973 88.1354 87.336C88.5787 87.7747 88.8004 88.4303 88.8004 89.303V94H87.4634V93.37C87.1974 93.6267 86.8917 93.825 86.5464 93.965C86.201 94.1003 85.8394 94.168 85.4614 94.168ZM85.7134 92.964C86.0307 92.964 86.341 92.8917 86.6444 92.747C86.9524 92.5977 87.2254 92.39 87.4634 92.124V91.018C87.2394 90.8873 86.985 90.7847 86.7004 90.71C86.4157 90.6353 86.1427 90.598 85.8814 90.598C85.3867 90.598 84.997 90.7053 84.7124 90.92C84.4277 91.13 84.2854 91.4193 84.2854 91.788C84.2854 92.152 84.4114 92.439 84.6634 92.649C84.9154 92.859 85.2654 92.964 85.7134 92.964ZM90.9512 94V84.536L92.3442 83.892V94H90.9512ZM94.752 94V84.536L96.145 83.892V94H94.752Z" fill="black"/>
<path d="M20.747 115V108.7H21.9125V113.87H24.959V115H20.747ZM27.1587 115.108C26.6577 115.108 26.2602 114.973 25.9662 114.703C25.6752 114.43 25.5297 114.061 25.5297 113.596C25.5297 113.296 25.6047 113.033 25.7547 112.808C25.9077 112.58 26.1192 112.405 26.3892 112.282C26.6622 112.156 26.9802 112.093 27.3432 112.093C27.5442 112.093 27.7377 112.112 27.9237 112.151C28.1127 112.187 28.2777 112.24 28.4187 112.309V112.021C28.4187 111.763 28.3452 111.569 28.1982 111.44C28.0542 111.308 27.8412 111.242 27.5592 111.242C27.3342 111.242 27.1032 111.283 26.8662 111.364C26.6292 111.445 26.3892 111.565 26.1462 111.724L25.8087 110.837C26.0727 110.663 26.3667 110.53 26.6907 110.437C27.0147 110.341 27.3417 110.293 27.6717 110.293C28.2897 110.293 28.7517 110.44 29.0577 110.734C29.3637 111.025 29.5167 111.46 29.5167 112.039V115H28.4187V114.631C28.2627 114.787 28.0767 114.905 27.8607 114.986C27.6477 115.068 27.4137 115.108 27.1587 115.108ZM27.4197 114.158C27.6057 114.158 27.7842 114.122 27.9552 114.05C28.1292 113.975 28.2837 113.87 28.4187 113.735V113.191C28.2897 113.128 28.1457 113.08 27.9867 113.047C27.8307 113.011 27.6747 112.993 27.5187 112.993C27.2397 112.993 27.0192 113.047 26.8572 113.155C26.6982 113.26 26.6187 113.407 26.6187 113.596C26.6187 113.773 26.6892 113.911 26.8302 114.01C26.9712 114.109 27.1677 114.158 27.4197 114.158ZM32.8974 115.108C32.6874 115.108 32.5059 115.071 32.3529 114.995C32.2029 114.92 32.0634 114.799 31.9344 114.631V115H30.8094V109.01L31.9344 108.502V110.761C32.0514 110.611 32.1954 110.495 32.3664 110.414C32.5404 110.333 32.7294 110.293 32.9334 110.293C33.3144 110.293 33.6474 110.393 33.9324 110.594C34.2174 110.795 34.4394 111.077 34.5984 111.44C34.7604 111.8 34.8414 112.219 34.8414 112.696C34.8414 113.455 34.6689 114.047 34.3239 114.473C33.9819 114.896 33.5064 115.108 32.8974 115.108ZM32.7624 114.032C33.0684 114.032 33.3024 113.917 33.4644 113.686C33.6294 113.455 33.7119 113.125 33.7119 112.696C33.7119 112.267 33.6294 111.938 33.4644 111.71C33.3024 111.479 33.0684 111.364 32.7624 111.364C32.5944 111.364 32.4354 111.401 32.2854 111.476C32.1354 111.548 32.0184 111.646 31.9344 111.769V113.627C32.0274 113.759 32.1414 113.86 32.2764 113.929C32.4114 113.998 32.5734 114.032 32.7624 114.032ZM37.951 115.108C37.51 115.108 37.129 115.009 36.808 114.811C36.49 114.613 36.244 114.334 36.07 113.974C35.899 113.611 35.8135 113.185 35.8135 112.696C35.8135 112.201 35.9005 111.773 36.0745 111.413C36.2515 111.053 36.499 110.777 36.817 110.585C37.138 110.39 37.516 110.293 37.951 110.293C38.323 110.293 38.6605 110.371 38.9635 110.527C39.2665 110.683 39.508 110.923 39.688 111.247C39.868 111.568 39.958 111.977 39.958 112.475C39.958 112.553 39.955 112.649 39.949 112.763C39.946 112.874 39.9385 112.987 39.9265 113.101H36.925C36.937 113.311 36.985 113.495 37.069 113.654C37.156 113.81 37.2745 113.932 37.4245 114.019C37.5745 114.106 37.7515 114.149 37.9555 114.149C38.1745 114.149 38.365 114.113 38.527 114.041C38.689 113.966 38.842 113.848 38.986 113.686L39.634 114.356C39.436 114.581 39.1975 114.763 38.9185 114.901C38.6395 115.039 38.317 115.108 37.951 115.108ZM36.9295 112.223H38.869C38.854 112.022 38.809 111.85 38.734 111.706C38.659 111.559 38.554 111.446 38.419 111.368C38.284 111.29 38.1205 111.251 37.9285 111.251C37.6645 111.251 37.4395 111.332 37.2535 111.494C37.0675 111.656 36.9595 111.899 36.9295 112.223ZM41.1113 115V109.01L42.2363 108.502V115H41.1113ZM42.8754 116.17L46.4124 108.592H47.5644L44.0274 116.17H42.8754ZM49.792 115V109.82H48.0055V108.7H52.753V109.82H50.9575V115H49.792ZM53.793 115V110.401H54.918V115H53.793ZM54.3555 109.825C54.1755 109.825 54.0195 109.76 53.8875 109.631C53.7585 109.499 53.694 109.343 53.694 109.163C53.694 108.983 53.7585 108.83 53.8875 108.704C54.0165 108.575 54.1725 108.511 54.3555 108.511C54.5445 108.511 54.702 108.574 54.828 108.7C54.954 108.826 55.017 108.98 55.017 109.163C55.017 109.346 54.9525 109.502 54.8235 109.631C54.6975 109.76 54.5415 109.825 54.3555 109.825ZM56.3329 115V110.401H57.4579V110.842C57.6049 110.659 57.7804 110.522 57.9844 110.432C58.1914 110.339 58.4269 110.293 58.6909 110.293C59.2039 110.293 59.5999 110.452 59.8789 110.77C60.1579 111.085 60.2974 111.539 60.2974 112.133V115H59.1769V112.48C59.1769 112.093 59.1094 111.811 58.9744 111.634C58.8424 111.454 58.6354 111.364 58.3534 111.364C58.0474 111.364 57.8209 111.454 57.6739 111.634C57.5299 111.811 57.4579 112.087 57.4579 112.462V115H56.3329ZM62.1647 116.746L62.8622 114.919L61.1387 110.401H62.2952L63.2987 113.092C63.3257 113.155 63.3512 113.224 63.3752 113.299C63.3992 113.374 63.4217 113.449 63.4427 113.524C63.4607 113.449 63.4817 113.375 63.5057 113.303C63.5327 113.228 63.5597 113.158 63.5867 113.092L64.5902 110.401H65.7467L63.3257 116.746H62.1647Z" fill="black"/>
<path d="M153.992 41V24.2H157.1V30.86H164.204V24.2H167.312V41H164.204V33.824H157.1V41H153.992ZM176.221 41.288C175.045 41.288 174.029 41.024 173.173 40.496C172.325 39.968 171.669 39.224 171.205 38.264C170.749 37.296 170.521 36.16 170.521 34.856C170.521 33.536 170.753 32.396 171.217 31.436C171.689 30.476 172.349 29.74 173.197 29.228C174.053 28.708 175.061 28.448 176.221 28.448C177.213 28.448 178.113 28.656 178.921 29.072C179.729 29.488 180.373 30.128 180.853 30.992C181.333 31.848 181.573 32.94 181.573 34.268C181.573 34.476 181.565 34.732 181.549 35.036C181.541 35.332 181.521 35.632 181.489 35.936H173.485C173.517 36.496 173.645 36.988 173.869 37.412C174.101 37.828 174.417 38.152 174.817 38.384C175.217 38.616 175.689 38.732 176.233 38.732C176.817 38.732 177.325 38.636 177.757 38.444C178.189 38.244 178.597 37.928 178.981 37.496L180.709 39.284C180.181 39.884 179.545 40.368 178.801 40.736C178.057 41.104 177.197 41.288 176.221 41.288ZM173.497 33.596H178.669C178.629 33.06 178.509 32.6 178.309 32.216C178.109 31.824 177.829 31.524 177.469 31.316C177.109 31.108 176.673 31.004 176.161 31.004C175.457 31.004 174.857 31.22 174.361 31.652C173.865 32.084 173.577 32.732 173.497 33.596ZM188.035 41.288C186.699 41.288 185.639 40.928 184.855 40.208C184.079 39.48 183.691 38.496 183.691 37.256C183.691 36.456 183.891 35.756 184.291 35.156C184.699 34.548 185.263 34.08 185.983 33.752C186.711 33.416 187.559 33.248 188.527 33.248C189.063 33.248 189.579 33.3 190.075 33.404C190.579 33.5 191.019 33.64 191.395 33.824V33.056C191.395 32.368 191.199 31.852 190.807 31.508C190.423 31.156 189.855 30.98 189.103 30.98C188.503 30.98 187.887 31.088 187.255 31.304C186.623 31.52 185.983 31.84 185.335 32.264L184.435 29.9C185.139 29.436 185.923 29.08 186.787 28.832C187.651 28.576 188.523 28.448 189.403 28.448C191.051 28.448 192.283 28.84 193.099 29.624C193.915 30.4 194.323 31.56 194.323 33.104V41H191.395V40.016C190.979 40.432 190.483 40.748 189.907 40.964C189.339 41.18 188.715 41.288 188.035 41.288ZM188.731 38.756C189.227 38.756 189.703 38.66 190.159 38.468C190.623 38.268 191.035 37.988 191.395 37.628V36.176C191.051 36.008 190.667 35.88 190.243 35.792C189.827 35.696 189.411 35.648 188.995 35.648C188.251 35.648 187.663 35.792 187.231 36.08C186.807 36.36 186.595 36.752 186.595 37.256C186.595 37.728 186.783 38.096 187.159 38.36C187.535 38.624 188.059 38.756 188.731 38.756ZM202.292 41.288C200.716 41.288 199.48 40.72 198.584 39.584C197.688 38.448 197.24 36.872 197.24 34.856C197.24 33.576 197.452 32.456 197.876 31.496C198.3 30.536 198.892 29.788 199.652 29.252C200.42 28.716 201.312 28.448 202.328 28.448C203.416 28.448 204.308 28.848 205.004 29.648V25.028L207.992 23.672V41H205.004V39.992C204.412 40.856 203.508 41.288 202.292 41.288ZM202.784 38.42C203.296 38.42 203.732 38.332 204.092 38.156C204.452 37.972 204.756 37.7 205.004 37.34V32.384C204.756 32.048 204.432 31.784 204.032 31.592C203.64 31.4 203.224 31.304 202.784 31.304C201.976 31.304 201.352 31.612 200.912 32.228C200.472 32.836 200.252 33.712 200.252 34.856C200.252 35.608 200.352 36.252 200.552 36.788C200.752 37.316 201.04 37.72 201.416 38C201.792 38.28 202.248 38.42 202.784 38.42ZM216.791 41.288C215.615 41.288 214.599 41.024 213.743 40.496C212.895 39.968 212.239 39.224 211.775 38.264C211.319 37.296 211.091 36.16 211.091 34.856C211.091 33.536 211.323 32.396 211.787 31.436C212.259 30.476 212.919 29.74 213.767 29.228C214.623 28.708 215.631 28.448 216.791 28.448C217.783 28.448 218.683 28.656 219.491 29.072C220.299 29.488 220.943 30.128 221.423 30.992C221.903 31.848 222.143 32.94 222.143 34.268C222.143 34.476 222.135 34.732 222.119 35.036C222.111 35.332 222.091 35.632 222.059 35.936H214.055C214.087 36.496 214.215 36.988 214.439 37.412C214.671 37.828 214.987 38.152 215.387 38.384C215.787 38.616 216.259 38.732 216.803 38.732C217.387 38.732 217.895 38.636 218.327 38.444C218.759 38.244 219.167 37.928 219.551 37.496L221.279 39.284C220.751 39.884 220.115 40.368 219.371 40.736C218.627 41.104 217.767 41.288 216.791 41.288ZM214.067 33.596H219.239C219.199 33.06 219.079 32.6 218.879 32.216C218.679 31.824 218.399 31.524 218.039 31.316C217.679 31.108 217.243 31.004 216.731 31.004C216.027 31.004 215.427 31.22 214.931 31.652C214.435 32.084 214.147 32.732 214.067 33.596ZM225.169 41V28.736H228.169V30.056C228.393 29.584 228.745 29.2 229.225 28.904C229.705 28.6 230.209 28.448 230.737 28.448C231.609 28.448 232.345 28.748 232.945 29.348L232.525 32.096C232.197 31.824 231.877 31.632 231.565 31.52C231.253 31.408 230.909 31.352 230.533 31.352C230.037 31.352 229.613 31.468 229.261 31.7C228.909 31.932 228.637 32.268 228.445 32.708C228.261 33.148 228.169 33.676 228.169 34.292V41H225.169ZM232.993 44.12L242.425 23.912H245.497L236.065 44.12H232.993ZM247.695 41V24.2H250.803V37.988H258.927V41H247.695ZM264.793 41.288C263.457 41.288 262.397 40.928 261.613 40.208C260.837 39.48 260.449 38.496 260.449 37.256C260.449 36.456 260.649 35.756 261.049 35.156C261.457 34.548 262.021 34.08 262.741 33.752C263.469 33.416 264.317 33.248 265.285 33.248C265.821 33.248 266.337 33.3 266.833 33.404C267.337 33.5 267.777 33.64 268.153 33.824V33.056C268.153 32.368 267.957 31.852 267.565 31.508C267.181 31.156 266.613 30.98 265.861 30.98C265.261 30.98 264.645 31.088 264.013 31.304C263.381 31.52 262.741 31.84 262.093 32.264L261.193 29.9C261.897 29.436 262.681 29.08 263.545 28.832C264.409 28.576 265.281 28.448 266.161 28.448C267.809 28.448 269.041 28.84 269.857 29.624C270.673 30.4 271.081 31.56 271.081 33.104V41H268.153V40.016C267.737 40.432 267.241 40.748 266.665 40.964C266.097 41.18 265.473 41.288 264.793 41.288ZM265.489 38.756C265.985 38.756 266.461 38.66 266.917 38.468C267.381 38.268 267.793 37.988 268.153 37.628V36.176C267.809 36.008 267.425 35.88 267.001 35.792C266.585 35.696 266.169 35.648 265.753 35.648C265.009 35.648 264.421 35.792 263.989 36.08C263.565 36.36 263.353 36.752 263.353 37.256C263.353 37.728 263.541 38.096 263.917 38.36C264.293 38.624 264.817 38.756 265.489 38.756ZM274.669 41V28.736H277.669V30.056C277.893 29.584 278.245 29.2 278.725 28.904C279.205 28.6 279.709 28.448 280.237 28.448C281.109 28.448 281.845 28.748 282.445 29.348L282.025 32.096C281.697 31.824 281.377 31.632 281.065 31.52C280.753 31.408 280.409 31.352 280.033 31.352C279.537 31.352 279.113 31.468 278.761 31.7C278.409 31.932 278.137 32.268 277.945 32.708C277.761 33.148 277.669 33.676 277.669 34.292V41H274.669ZM288.352 46.112L286.696 43.604C287.864 43.516 288.768 43.384 289.408 43.208C290.056 43.032 290.508 42.78 290.764 42.452C291.02 42.124 291.148 41.696 291.148 41.168V40.28C290.524 40.952 289.644 41.288 288.508 41.288C287.444 41.288 286.528 41.032 285.76 40.52C284.992 40 284.4 39.26 283.984 38.3C283.576 37.332 283.372 36.184 283.372 34.856C283.372 33.56 283.584 32.432 284.008 31.472C284.44 30.512 285.04 29.768 285.808 29.24C286.584 28.712 287.492 28.448 288.532 28.448C289.076 28.448 289.572 28.532 290.02 28.7C290.476 28.868 290.852 29.112 291.148 29.432V28.736H294.136V39.896C294.136 40.984 294.036 41.904 293.836 42.656C293.636 43.408 293.308 44.024 292.852 44.504C292.404 44.984 291.812 45.348 291.076 45.596C290.34 45.852 289.432 46.024 288.352 46.112ZM289 38.42C289.424 38.42 289.82 38.324 290.188 38.132C290.564 37.932 290.884 37.664 291.148 37.328V32.384C290.924 32.072 290.616 31.816 290.224 31.616C289.832 31.408 289.436 31.304 289.036 31.304C288.172 31.304 287.512 31.608 287.056 32.216C286.608 32.816 286.384 33.696 286.384 34.856C286.384 35.608 286.484 36.252 286.684 36.788C286.892 37.316 287.192 37.72 287.584 38C287.976 38.28 288.448 38.42 289 38.42ZM302.69 41.288C301.514 41.288 300.498 41.024 299.642 40.496C298.794 39.968 298.138 39.224 297.674 38.264C297.218 37.296 296.99 36.16 296.99 34.856C296.99 33.536 297.222 32.396 297.686 31.436C298.158 30.476 298.818 29.74 299.666 29.228C300.522 28.708 301.53 28.448 302.69 28.448C303.682 28.448 304.582 28.656 305.39 29.072C306.198 29.488 306.842 30.128 307.322 30.992C307.802 31.848 308.042 32.94 308.042 34.268C308.042 34.476 308.034 34.732 308.018 35.036C308.01 35.332 307.99 35.632 307.958 35.936H299.954C299.986 36.496 300.114 36.988 300.338 37.412C300.57 37.828 300.886 38.152 301.286 38.384C301.686 38.616 302.158 38.732 302.702 38.732C303.286 38.732 303.794 38.636 304.226 38.444C304.658 38.244 305.066 37.928 305.45 37.496L307.178 39.284C306.65 39.884 306.014 40.368 305.27 40.736C304.526 41.104 303.666 41.288 302.69 41.288ZM299.966 33.596H305.138C305.098 33.06 304.978 32.6 304.778 32.216C304.578 31.824 304.298 31.524 303.938 31.316C303.578 31.108 303.142 31.004 302.63 31.004C301.926 31.004 301.326 31.22 300.83 31.652C300.334 32.084 300.046 32.732 299.966 33.596Z" fill="black"/>
<path d="M153.488 72V60.8H155.104V65.44H160.208V60.8H161.824V72H160.208V66.968H155.104V72H153.488ZM167.856 72.192C167.093 72.192 166.435 72.0107 165.88 71.648C165.331 71.2853 164.907 70.7813 164.608 70.136C164.315 69.4907 164.168 68.7467 164.168 67.904C164.168 67.008 164.32 66.2427 164.624 65.608C164.933 64.968 165.363 64.48 165.912 64.144C166.467 63.8027 167.115 63.632 167.856 63.632C168.485 63.632 169.059 63.7707 169.576 64.048C170.099 64.32 170.515 64.744 170.824 65.32C171.139 65.8907 171.296 66.624 171.296 67.52C171.296 67.648 171.291 67.8027 171.28 67.984C171.275 68.16 171.261 68.3413 171.24 68.528H165.776C165.819 68.9813 165.928 69.3813 166.104 69.728C166.285 70.0693 166.525 70.336 166.824 70.528C167.123 70.72 167.475 70.816 167.88 70.816C168.237 70.816 168.563 70.7547 168.856 70.632C169.149 70.504 169.424 70.3067 169.68 70.04L170.608 71.04C170.288 71.376 169.896 71.6533 169.432 71.872C168.968 72.0853 168.443 72.192 167.856 72.192ZM165.768 67.2H169.712C169.701 66.768 169.621 66.3893 169.472 66.064C169.328 65.7333 169.117 65.4747 168.84 65.288C168.568 65.1013 168.235 65.008 167.84 65.008C167.291 65.008 166.819 65.184 166.424 65.536C166.029 65.888 165.811 66.4427 165.768 67.2ZM175.657 72.192C174.766 72.192 174.065 71.9493 173.553 71.464C173.046 70.9733 172.793 70.3067 172.793 69.464C172.793 68.92 172.921 68.4453 173.177 68.04C173.433 67.6347 173.793 67.3227 174.257 67.104C174.726 66.88 175.275 66.768 175.905 66.768C176.289 66.768 176.651 66.808 176.993 66.888C177.339 66.968 177.657 67.088 177.945 67.248V66.696C177.945 66.12 177.806 65.696 177.529 65.424C177.251 65.1467 176.827 65.008 176.257 65.008C175.862 65.008 175.454 65.08 175.033 65.224C174.617 65.368 174.214 65.5707 173.825 65.832L173.361 64.528C173.793 64.2453 174.278 64.0267 174.817 63.872C175.361 63.712 175.902 63.632 176.441 63.632C177.454 63.632 178.211 63.8827 178.713 64.384C179.219 64.8853 179.473 65.6347 179.473 66.632V72H177.945V71.28C177.641 71.5733 177.291 71.8 176.897 71.96C176.502 72.1147 176.089 72.192 175.657 72.192ZM175.945 70.816C176.307 70.816 176.662 70.7333 177.009 70.568C177.361 70.3973 177.673 70.16 177.945 69.856V68.592C177.689 68.4427 177.398 68.3253 177.073 68.24C176.747 68.1547 176.435 68.112 176.137 68.112C175.571 68.112 175.126 68.2347 174.801 68.48C174.475 68.72 174.313 69.0507 174.313 69.472C174.313 69.888 174.457 70.216 174.745 70.456C175.033 70.696 175.433 70.816 175.945 70.816ZM184.942 72.192C183.902 72.192 183.081 71.8107 182.478 71.048C181.876 70.28 181.574 69.232 181.574 67.904C181.574 67.0347 181.713 66.28 181.99 65.64C182.268 65 182.657 64.5067 183.158 64.16C183.665 63.808 184.262 63.632 184.95 63.632C185.729 63.632 186.388 63.8907 186.926 64.408V61.184L188.518 60.448V72H186.926V71.352C186.436 71.912 185.774 72.192 184.942 72.192ZM185.182 70.688C185.55 70.688 185.884 70.6053 186.182 70.44C186.481 70.2693 186.729 70.0267 186.926 69.712V66.056C186.729 65.768 186.476 65.5413 186.166 65.376C185.862 65.2053 185.534 65.12 185.182 65.12C184.542 65.12 184.049 65.36 183.702 65.84C183.356 66.32 183.182 67.008 183.182 67.904C183.182 68.464 183.265 68.9547 183.43 69.376C183.596 69.792 183.828 70.1147 184.126 70.344C184.425 70.5733 184.777 70.688 185.182 70.688ZM194.341 72.192C193.578 72.192 192.919 72.0107 192.365 71.648C191.815 71.2853 191.391 70.7813 191.093 70.136C190.799 69.4907 190.653 68.7467 190.653 67.904C190.653 67.008 190.805 66.2427 191.109 65.608C191.418 64.968 191.847 64.48 192.397 64.144C192.951 63.8027 193.599 63.632 194.341 63.632C194.97 63.632 195.543 63.7707 196.061 64.048C196.583 64.32 196.999 64.744 197.309 65.32C197.623 65.8907 197.781 66.624 197.781 67.52C197.781 67.648 197.775 67.8027 197.765 67.984C197.759 68.16 197.746 68.3413 197.725 68.528H192.261C192.303 68.9813 192.413 69.3813 192.589 69.728C192.77 70.0693 193.01 70.336 193.309 70.528C193.607 70.72 193.959 70.816 194.365 70.816C194.722 70.816 195.047 70.7547 195.341 70.632C195.634 70.504 195.909 70.3067 196.165 70.04L197.093 71.04C196.773 71.376 196.381 71.6533 195.917 71.872C195.453 72.0853 194.927 72.192 194.341 72.192ZM192.253 67.2H196.197C196.186 66.768 196.106 66.3893 195.957 66.064C195.813 65.7333 195.602 65.4747 195.325 65.288C195.053 65.1013 194.719 65.008 194.325 65.008C193.775 65.008 193.303 65.184 192.909 65.536C192.514 65.888 192.295 66.4427 192.253 67.2ZM199.96 72V63.824H201.552V64.832C201.728 64.448 201.979 64.152 202.304 63.944C202.63 63.736 203 63.632 203.416 63.632C203.939 63.632 204.382 63.792 204.744 64.112L204.512 65.592C204.326 65.4533 204.134 65.352 203.936 65.288C203.739 65.224 203.526 65.192 203.296 65.192C202.939 65.192 202.63 65.2853 202.368 65.472C202.112 65.6533 201.912 65.912 201.768 66.248C201.624 66.584 201.552 66.9813 201.552 67.44V72H199.96ZM204.879 74.08L211.183 60.608H212.783L206.495 74.08H204.879ZM214.457 72V60.8H219.097C220.009 60.8 220.726 60.9573 221.249 61.272C221.771 61.5867 222.142 61.9947 222.361 62.496C222.585 62.9973 222.697 63.5253 222.697 64.08C222.697 64.512 222.611 64.944 222.441 65.376C222.27 65.808 222.001 66.1893 221.633 66.52C221.27 66.8507 220.798 67.088 220.217 67.232L222.553 72H220.729L218.489 67.384H216.073V72H214.457ZM216.073 65.872H219.129C219.609 65.872 219.987 65.7867 220.265 65.616C220.547 65.44 220.747 65.2187 220.865 64.952C220.987 64.68 221.049 64.3973 221.049 64.104C221.049 63.8373 220.993 63.568 220.881 63.296C220.769 63.0187 220.574 62.7867 220.297 62.6C220.019 62.408 219.63 62.312 219.129 62.312H216.073V65.872ZM227.825 72.192C227.062 72.192 226.404 72.0107 225.849 71.648C225.3 71.2853 224.876 70.7813 224.577 70.136C224.284 69.4907 224.137 68.7467 224.137 67.904C224.137 67.008 224.289 66.2427 224.593 65.608C224.902 64.968 225.332 64.48 225.881 64.144C226.436 63.8027 227.084 63.632 227.825 63.632C228.454 63.632 229.028 63.7707 229.545 64.048C230.068 64.32 230.484 64.744 230.793 65.32C231.108 65.8907 231.265 66.624 231.265 67.52C231.265 67.648 231.26 67.8027 231.249 67.984C231.244 68.16 231.23 68.3413 231.209 68.528H225.745C225.788 68.9813 225.897 69.3813 226.073 69.728C226.254 70.0693 226.494 70.336 226.793 70.528C227.092 70.72 227.444 70.816 227.849 70.816C228.206 70.816 228.532 70.7547 228.825 70.632C229.118 70.504 229.393 70.3067 229.649 70.04L230.577 71.04C230.257 71.376 229.865 71.6533 229.401 71.872C228.937 72.0853 228.412 72.192 227.825 72.192ZM225.737 67.2H229.681C229.67 66.768 229.59 66.3893 229.441 66.064C229.297 65.7333 229.086 65.4747 228.809 65.288C228.537 65.1013 228.204 65.008 227.809 65.008C227.26 65.008 226.788 65.184 226.393 65.536C225.998 65.888 225.78 66.4427 225.737 67.2ZM236.233 75.408L235.417 74.128C236.164 74.08 236.761 73.984 237.209 73.84C237.662 73.696 237.99 73.4933 238.193 73.232C238.396 72.9707 238.497 72.64 238.497 72.24V71.304C238.033 71.896 237.369 72.192 236.505 72.192C235.822 72.192 235.228 72.016 234.721 71.664C234.214 71.312 233.822 70.816 233.545 70.176C233.273 69.5307 233.137 68.7733 233.137 67.904C233.137 67.0347 233.276 66.28 233.553 65.64C233.836 65 234.23 64.5067 234.737 64.16C235.249 63.808 235.852 63.632 236.545 63.632C236.94 63.632 237.305 63.7013 237.641 63.84C237.982 63.9787 238.268 64.1733 238.497 64.424V63.824H240.089V71.608C240.089 72.2373 240.014 72.7813 239.865 73.24C239.721 73.6987 239.492 74.08 239.177 74.384C238.862 74.6933 238.462 74.9307 237.977 75.096C237.492 75.2613 236.91 75.3653 236.233 75.408ZM236.809 70.688C237.134 70.688 237.449 70.5973 237.753 70.416C238.062 70.2293 238.31 69.984 238.497 69.68V66.088C238.326 65.8053 238.081 65.5733 237.761 65.392C237.441 65.2107 237.126 65.12 236.817 65.12C236.145 65.12 235.63 65.3573 235.273 65.832C234.921 66.3067 234.745 66.9973 234.745 67.904C234.745 68.4747 234.828 68.9707 234.993 69.392C235.164 69.808 235.404 70.128 235.713 70.352C236.022 70.576 236.388 70.688 236.809 70.688ZM245.551 72.192C244.575 72.192 243.841 71.8987 243.351 71.312C242.86 70.7253 242.615 69.8453 242.615 68.672V63.824H244.207V68.6C244.207 69.2933 244.345 69.816 244.623 70.168C244.905 70.5147 245.321 70.688 245.871 70.688C246.468 70.688 246.913 70.5173 247.207 70.176C247.505 69.8293 247.655 69.3147 247.655 68.632V63.824H249.247V72H247.655V71.224C247.399 71.5547 247.1 71.8 246.759 71.96C246.417 72.1147 246.015 72.192 245.551 72.192ZM251.931 72V61.184L253.523 60.448V72H251.931ZM258.579 72.192C257.688 72.192 256.987 71.9493 256.475 71.464C255.968 70.9733 255.715 70.3067 255.715 69.464C255.715 68.92 255.843 68.4453 256.099 68.04C256.355 67.6347 256.715 67.3227 257.179 67.104C257.648 66.88 258.197 66.768 258.827 66.768C259.211 66.768 259.573 66.808 259.915 66.888C260.261 66.968 260.579 67.088 260.867 67.248V66.696C260.867 66.12 260.728 65.696 260.451 65.424C260.173 65.1467 259.749 65.008 259.179 65.008C258.784 65.008 258.376 65.08 257.955 65.224C257.539 65.368 257.136 65.5707 256.747 65.832L256.283 64.528C256.715 64.2453 257.2 64.0267 257.739 63.872C258.283 63.712 258.824 63.632 259.363 63.632C260.376 63.632 261.133 63.8827 261.635 64.384C262.141 64.8853 262.395 65.6347 262.395 66.632V72H260.867V71.28C260.563 71.5733 260.213 71.8 259.819 71.96C259.424 72.1147 259.011 72.192 258.579 72.192ZM258.867 70.816C259.229 70.816 259.584 70.7333 259.931 70.568C260.283 70.3973 260.595 70.16 260.867 69.856V68.592C260.611 68.4427 260.32 68.3253 259.995 68.24C259.669 68.1547 259.357 68.112 259.059 68.112C258.493 68.112 258.048 68.2347 257.723 68.48C257.397 68.72 257.235 69.0507 257.235 69.472C257.235 69.888 257.379 70.216 257.667 70.456C257.955 70.696 258.355 70.816 258.867 70.816ZM264.945 72V63.824H266.537V64.832C266.713 64.448 266.963 64.152 267.289 63.944C267.614 63.736 267.985 63.632 268.401 63.632C268.923 63.632 269.366 63.792 269.729 64.112L269.497 65.592C269.31 65.4533 269.118 65.352 268.921 65.288C268.723 65.224 268.51 65.192 268.281 65.192C267.923 65.192 267.614 65.2853 267.353 65.472C267.097 65.6533 266.897 65.912 266.753 66.248C266.609 66.584 266.537 66.9813 266.537 67.44V72H264.945Z" fill="black"/>
<path d="M152.704 100L156.768 88.8H158.288L162.36 100H160.672L159.736 97.384H155.344L154.424 100H152.704ZM155.84 95.936H159.216L157.88 92.168C157.843 92.0667 157.803 91.952 157.76 91.824C157.717 91.6907 157.675 91.56 157.632 91.432C157.589 91.304 157.557 91.192 157.536 91.096C157.509 91.192 157.475 91.304 157.432 91.432C157.395 91.56 157.355 91.6907 157.312 91.824C157.269 91.952 157.229 92.0667 157.192 92.168L155.84 95.936ZM164.367 100V91.824H165.959V92.64C166.215 92.2987 166.519 92.0453 166.871 91.88C167.228 91.7147 167.636 91.632 168.095 91.632C169.06 91.632 169.785 91.9253 170.271 92.512C170.756 93.0987 170.999 93.984 170.999 95.168V100H169.407V95.208C169.407 94.52 169.265 94 168.983 93.648C168.7 93.296 168.289 93.12 167.751 93.12C167.153 93.12 166.705 93.2907 166.407 93.632C166.108 93.9733 165.959 94.488 165.959 95.176V100H164.367ZM173.695 100V91.824H175.287V92.64C175.543 92.2987 175.847 92.0453 176.199 91.88C176.556 91.7147 176.964 91.632 177.423 91.632C178.388 91.632 179.113 91.9253 179.599 92.512C180.084 93.0987 180.327 93.984 180.327 95.168V100H178.735V95.208C178.735 94.52 178.593 94 178.311 93.648C178.028 93.296 177.617 93.12 177.079 93.12C176.481 93.12 176.033 93.2907 175.735 93.632C175.436 93.9733 175.287 94.488 175.287 95.176V100H173.695ZM186.222 100.192C185.092 100.192 184.201 99.8107 183.55 99.048C182.9 98.28 182.574 97.2373 182.574 95.92C182.574 95.04 182.721 94.28 183.014 93.64C183.313 93 183.734 92.5067 184.278 92.16C184.828 91.808 185.476 91.632 186.222 91.632C186.974 91.632 187.622 91.8053 188.166 92.152C188.716 92.4933 189.137 92.984 189.43 93.624C189.724 94.264 189.87 95.024 189.87 95.904C189.87 96.7893 189.721 97.552 189.422 98.192C189.129 98.832 188.71 99.3253 188.166 99.672C187.622 100.019 186.974 100.192 186.222 100.192ZM186.222 98.688C186.862 98.688 187.361 98.4427 187.718 97.952C188.081 97.4613 188.262 96.7787 188.262 95.904C188.262 95.0293 188.081 94.3467 187.718 93.856C187.361 93.3653 186.862 93.12 186.222 93.12C185.582 93.12 185.081 93.3653 184.718 93.856C184.361 94.3467 184.182 95.0347 184.182 95.92C184.182 96.7893 184.361 97.4693 184.718 97.96C185.081 98.4453 185.582 98.688 186.222 98.688ZM194.155 100.192C193.568 100.192 193.12 100.021 192.811 99.68C192.507 99.3333 192.355 98.832 192.355 98.176V93.216H191.075V91.824H192.355V89.216L193.947 88.448V91.824H195.907V93.216H193.947V97.752C193.947 98.0933 194.008 98.344 194.131 98.504C194.259 98.664 194.456 98.744 194.723 98.744C195.107 98.744 195.523 98.608 195.971 98.336L195.787 99.824C195.542 99.952 195.286 100.045 195.019 100.104C194.752 100.163 194.464 100.192 194.155 100.192ZM200.235 100.192C199.344 100.192 198.643 99.9493 198.131 99.464C197.624 98.9733 197.371 98.3067 197.371 97.464C197.371 96.92 197.499 96.4453 197.755 96.04C198.011 95.6347 198.371 95.3227 198.835 95.104C199.304 94.88 199.854 94.768 200.483 94.768C200.867 94.768 201.23 94.808 201.571 94.888C201.918 94.968 202.235 95.088 202.523 95.248V94.696C202.523 94.12 202.384 93.696 202.107 93.424C201.83 93.1467 201.406 93.008 200.835 93.008C200.44 93.008 200.032 93.08 199.611 93.224C199.195 93.368 198.792 93.5707 198.403 93.832L197.939 92.528C198.371 92.2453 198.856 92.0267 199.395 91.872C199.939 91.712 200.48 91.632 201.019 91.632C202.032 91.632 202.79 91.8827 203.291 92.384C203.798 92.8853 204.051 93.6347 204.051 94.632V100H202.523V99.28C202.219 99.5733 201.87 99.8 201.475 99.96C201.08 100.115 200.667 100.192 200.235 100.192ZM200.523 98.816C200.886 98.816 201.24 98.7333 201.587 98.568C201.939 98.3973 202.251 98.16 202.523 97.856V96.592C202.267 96.4427 201.976 96.3253 201.651 96.24C201.326 96.1547 201.014 96.112 200.715 96.112C200.15 96.112 199.704 96.2347 199.379 96.48C199.054 96.72 198.891 97.0507 198.891 97.472C198.891 97.888 199.035 98.216 199.323 98.456C199.611 98.696 200.011 98.816 200.523 98.816ZM208.499 100.192C207.912 100.192 207.464 100.021 207.155 99.68C206.851 99.3333 206.699 98.832 206.699 98.176V93.216H205.419V91.824H206.699V89.216L208.291 88.448V91.824H210.251V93.216H208.291V97.752C208.291 98.0933 208.352 98.344 208.475 98.504C208.603 98.664 208.8 98.744 209.067 98.744C209.451 98.744 209.867 98.608 210.315 98.336L210.131 99.824C209.885 99.952 209.629 100.045 209.363 100.104C209.096 100.163 208.808 100.192 208.499 100.192ZM212.023 100V91.824H213.615V100H212.023ZM212.815 90.488C212.548 90.488 212.319 90.3947 212.127 90.208C211.94 90.016 211.847 89.7867 211.847 89.52C211.847 89.248 211.94 89.016 212.127 88.824C212.314 88.632 212.543 88.536 212.815 88.536C213.092 88.536 213.324 88.632 213.511 88.824C213.698 89.016 213.791 89.248 213.791 89.52C213.791 89.792 213.698 90.0213 213.511 90.208C213.324 90.3947 213.092 90.488 212.815 90.488ZM219.41 100.192C218.279 100.192 217.389 99.8107 216.738 99.048C216.087 98.28 215.762 97.2373 215.762 95.92C215.762 95.04 215.909 94.28 216.202 93.64C216.501 93 216.922 92.5067 217.466 92.16C218.015 91.808 218.663 91.632 219.41 91.632C220.162 91.632 220.81 91.8053 221.354 92.152C221.903 92.4933 222.325 92.984 222.618 93.624C222.911 94.264 223.058 95.024 223.058 95.904C223.058 96.7893 222.909 97.552 222.61 98.192C222.317 98.832 221.898 99.3253 221.354 99.672C220.81 100.019 220.162 100.192 219.41 100.192ZM219.41 98.688C220.05 98.688 220.549 98.4427 220.906 97.952C221.269 97.4613 221.45 96.7787 221.45 95.904C221.45 95.0293 221.269 94.3467 220.906 93.856C220.549 93.3653 220.05 93.12 219.41 93.12C218.77 93.12 218.269 93.3653 217.906 93.856C217.549 94.3467 217.37 95.0347 217.37 95.92C217.37 96.7893 217.549 97.4693 217.906 97.96C218.269 98.4453 218.77 98.688 219.41 98.688ZM225.085 100V91.824H226.677V92.64C226.933 92.2987 227.237 92.0453 227.589 91.88C227.947 91.7147 228.355 91.632 228.813 91.632C229.779 91.632 230.504 91.9253 230.989 92.512C231.475 93.0987 231.717 93.984 231.717 95.168V100H230.125V95.208C230.125 94.52 229.984 94 229.701 93.648C229.419 93.296 229.008 93.12 228.469 93.12C227.872 93.12 227.424 93.2907 227.125 93.632C226.827 93.9733 226.677 94.488 226.677 95.176V100H225.085Z" fill="#FA8072"/>
<path d="M21.372 151V141.2H24.844C25.6187 141.2 26.2277 141.326 26.671 141.578C27.1143 141.825 27.4293 142.147 27.616 142.544C27.8027 142.941 27.896 143.356 27.896 143.79C27.896 144.238 27.77 144.642 27.518 145.001C27.266 145.36 26.9113 145.638 26.454 145.834C26.832 145.951 27.154 146.123 27.42 146.352C27.6907 146.576 27.896 146.844 28.036 147.157C28.176 147.47 28.246 147.813 28.246 148.186C28.246 148.517 28.1923 148.849 28.085 149.18C27.9777 149.511 27.8003 149.815 27.553 150.09C27.3103 150.365 26.9837 150.587 26.573 150.755C26.167 150.918 25.6653 151 25.068 151H21.372ZM22.59 149.88H25.208C25.6887 149.88 26.062 149.801 26.328 149.642C26.594 149.483 26.7783 149.28 26.881 149.033C26.9883 148.786 27.042 148.531 27.042 148.27C27.042 147.957 26.979 147.663 26.853 147.388C26.727 147.113 26.4983 146.891 26.167 146.723C25.8403 146.55 25.3713 146.464 24.76 146.464H22.59V149.88ZM22.59 145.358H24.606C25.3013 145.358 25.8217 145.216 26.167 144.931C26.517 144.646 26.692 144.271 26.692 143.804C26.692 143.566 26.6453 143.333 26.552 143.104C26.4633 142.871 26.2907 142.679 26.034 142.53C25.7773 142.381 25.404 142.306 24.914 142.306H22.59V145.358ZM33.2165 151.168C32.2365 151.168 31.4642 150.834 30.8995 150.167C30.3349 149.495 30.0525 148.583 30.0525 147.43C30.0525 146.66 30.1809 145.995 30.4375 145.435C30.6942 144.875 31.0582 144.443 31.5295 144.14C32.0055 143.832 32.5679 143.678 33.2165 143.678C33.8699 143.678 34.4322 143.83 34.9035 144.133C35.3795 144.432 35.7435 144.861 35.9955 145.421C36.2522 145.981 36.3805 146.646 36.3805 147.416C36.3805 148.186 36.2522 148.853 35.9955 149.418C35.7389 149.978 35.3725 150.41 34.8965 150.713C34.4252 151.016 33.8652 151.168 33.2165 151.168ZM33.2165 150.034C33.8185 150.034 34.2899 149.803 34.6305 149.341C34.9759 148.874 35.1485 148.233 35.1485 147.416C35.1485 146.595 34.9759 145.953 34.6305 145.491C34.2899 145.029 33.8185 144.798 33.2165 144.798C32.6099 144.798 32.1362 145.029 31.7955 145.491C31.4549 145.948 31.2845 146.595 31.2845 147.43C31.2845 148.247 31.4549 148.886 31.7955 149.348C32.1362 149.805 32.6099 150.034 33.2165 150.034ZM41.0319 151.168C40.1219 151.168 39.4009 150.832 38.8689 150.16C38.3416 149.483 38.0779 148.569 38.0779 147.416C38.0779 146.651 38.1969 145.988 38.4349 145.428C38.6776 144.868 39.0183 144.436 39.4569 144.133C39.9003 143.83 40.4253 143.678 41.0319 143.678C41.7319 143.678 42.3339 143.902 42.8379 144.35V141.466L44.0559 140.892V151H42.8379V150.44C42.3666 150.925 41.7646 151.168 41.0319 151.168ZM41.1999 150.034C41.5359 150.034 41.8463 149.95 42.1309 149.782C42.4203 149.614 42.6559 149.376 42.8379 149.068V145.708C42.6559 145.428 42.4203 145.206 42.1309 145.043C41.8416 144.88 41.5313 144.798 41.1999 144.798C40.5979 144.798 40.1313 145.024 39.7999 145.477C39.4733 145.93 39.3099 146.576 39.3099 147.416C39.3099 147.934 39.3893 148.389 39.5479 148.781C39.7066 149.173 39.9283 149.481 40.2129 149.705C40.4976 149.924 40.8266 150.034 41.1999 150.034ZM47.2063 153.716L48.2983 150.818L45.6523 143.846H46.8703L48.6483 148.718C48.6996 148.844 48.7416 148.958 48.7743 149.061C48.8069 149.164 48.8396 149.278 48.8723 149.404C48.9096 149.278 48.9446 149.164 48.9773 149.061C49.0099 148.958 49.0496 148.844 49.0963 148.718L50.9023 143.846H52.1483L48.4383 153.716H47.2063ZM51.7982 152.82L57.3142 141.032H58.5182L53.0162 152.82H51.7982ZM60.0771 151V141.2H63.9411C64.7251 141.2 65.3411 141.335 65.7891 141.606C66.2417 141.877 66.5614 142.227 66.7481 142.656C66.9394 143.081 67.0351 143.524 67.0351 143.986C67.0351 144.373 66.9581 144.756 66.8041 145.134C66.6547 145.507 66.4121 145.836 66.0761 146.121C65.7401 146.406 65.2991 146.604 64.7531 146.716L66.8531 151H65.4811L63.4651 146.8H61.2951V151H60.0771ZM61.2951 145.666H63.9691C64.4264 145.666 64.7881 145.584 65.0541 145.421C65.3247 145.258 65.5161 145.05 65.6281 144.798C65.7447 144.546 65.8031 144.285 65.8031 144.014C65.8031 143.771 65.7494 143.522 65.6421 143.265C65.5394 143.004 65.3551 142.784 65.0891 142.607C64.8231 142.425 64.4497 142.334 63.9691 142.334H61.2951V145.666ZM71.5802 151.168C70.9268 151.168 70.3622 151.007 69.8862 150.685C69.4102 150.363 69.0438 149.92 68.7872 149.355C68.5305 148.79 68.4022 148.144 68.4022 147.416C68.4022 146.627 68.5352 145.955 68.8012 145.4C69.0672 144.84 69.4382 144.413 69.9142 144.119C70.3902 143.825 70.9455 143.678 71.5802 143.678C72.1168 143.678 72.6092 143.799 73.0572 144.042C73.5052 144.28 73.8622 144.651 74.1282 145.155C74.3988 145.654 74.5342 146.296 74.5342 147.08C74.5342 147.192 74.5295 147.323 74.5202 147.472C74.5155 147.617 74.5062 147.766 74.4922 147.92H69.6482C69.6948 148.354 69.8022 148.734 69.9702 149.061C70.1382 149.388 70.3598 149.644 70.6352 149.831C70.9105 150.013 71.2348 150.104 71.6082 150.104C71.9115 150.104 72.1915 150.05 72.4482 149.943C72.7095 149.836 72.9522 149.67 73.1762 149.446L73.8902 150.244C73.6242 150.51 73.2928 150.732 72.8962 150.909C72.5042 151.082 72.0655 151.168 71.5802 151.168ZM69.6342 146.856H73.3022C73.3022 146.45 73.2345 146.088 73.0992 145.771C72.9685 145.449 72.7748 145.197 72.5182 145.015C72.2615 144.833 71.9488 144.742 71.5802 144.742C71.0622 144.742 70.6165 144.91 70.2432 145.246C69.8745 145.582 69.6715 146.119 69.6342 146.856ZM78.7995 153.982L78.2115 153.03C78.8461 152.993 79.3641 152.906 79.7655 152.771C80.1715 152.636 80.4701 152.444 80.6615 152.197C80.8575 151.95 80.9555 151.639 80.9555 151.266V150.3C80.5261 150.879 79.9101 151.168 79.1075 151.168C78.5195 151.168 78.0061 151.012 77.5675 150.699C77.1288 150.386 76.7881 149.95 76.5455 149.39C76.3028 148.825 76.1815 148.167 76.1815 147.416C76.1815 146.655 76.3028 145.995 76.5455 145.435C76.7928 144.875 77.1381 144.443 77.5815 144.14C78.0248 143.832 78.5475 143.678 79.1495 143.678C79.5088 143.678 79.8448 143.746 80.1575 143.881C80.4748 144.012 80.7408 144.196 80.9555 144.434V143.846H82.1735V150.804C82.1735 151.313 82.1058 151.758 81.9705 152.141C81.8351 152.528 81.6275 152.853 81.3475 153.114C81.0675 153.375 80.7151 153.576 80.2905 153.716C79.8705 153.861 79.3735 153.949 78.7995 153.982ZM79.3595 150.034C79.6675 150.034 79.9661 149.941 80.2555 149.754C80.5495 149.567 80.7828 149.325 80.9555 149.026V145.75C80.7968 145.475 80.5635 145.248 80.2555 145.071C79.9521 144.889 79.6535 144.798 79.3595 144.798C78.7295 144.798 78.2465 145.022 77.9105 145.47C77.5791 145.918 77.4135 146.567 77.4135 147.416C77.4135 147.948 77.4928 148.41 77.6515 148.802C77.8148 149.194 78.0411 149.497 78.3305 149.712C78.6245 149.927 78.9675 150.034 79.3595 150.034ZM87.0241 151.168C86.1421 151.168 85.4865 150.907 85.0571 150.384C84.6325 149.861 84.4201 149.059 84.4201 147.976V143.846H85.6381V148.158C85.6381 148.765 85.7711 149.229 86.0371 149.551C86.3031 149.873 86.6835 150.034 87.1781 150.034C87.7241 150.034 88.1348 149.878 88.4101 149.565C88.6901 149.252 88.8301 148.793 88.8301 148.186V143.846H90.0481V151H88.8301V150.314C88.6015 150.608 88.3425 150.825 88.0531 150.965C87.7685 151.1 87.4255 151.168 87.0241 151.168ZM92.4488 151V141.466L93.6668 140.892V151H92.4488ZM98.1149 151.168C97.3402 151.168 96.7312 150.953 96.2879 150.524C95.8445 150.095 95.6229 149.507 95.6229 148.76C95.6229 148.279 95.7325 147.862 95.9519 147.507C96.1712 147.152 96.4815 146.879 96.8829 146.688C97.2842 146.492 97.7555 146.394 98.2969 146.394C98.6469 146.394 98.9735 146.434 99.2769 146.513C99.5849 146.588 99.8742 146.702 100.145 146.856V146.352C100.145 145.797 100.019 145.391 99.7669 145.134C99.5149 144.873 99.1229 144.742 98.5909 144.742C98.2502 144.742 97.8955 144.805 97.5269 144.931C97.1629 145.057 96.8222 145.232 96.5049 145.456L96.1549 144.434C96.5142 144.196 96.9225 144.012 97.3799 143.881C97.8419 143.746 98.2969 143.678 98.7449 143.678C99.5942 143.678 100.231 143.895 100.656 144.329C101.081 144.758 101.293 145.4 101.293 146.254V151H100.145V150.342C99.8649 150.608 99.5499 150.813 99.1999 150.958C98.8499 151.098 98.4882 151.168 98.1149 151.168ZM98.2969 150.104C98.6282 150.104 98.9549 150.022 99.2769 149.859C99.6035 149.696 99.8929 149.465 100.145 149.166V147.934C99.9069 147.785 99.6362 147.668 99.3329 147.584C99.0295 147.5 98.7402 147.458 98.4649 147.458C97.9422 147.458 97.5292 147.577 97.2259 147.815C96.9225 148.048 96.7709 148.368 96.7709 148.774C96.7709 149.185 96.9062 149.509 97.1769 149.747C97.4475 149.985 97.8209 150.104 98.2969 150.104ZM103.59 151V143.846H104.808V144.784C104.971 144.42 105.195 144.145 105.48 143.958C105.769 143.771 106.11 143.678 106.502 143.678C106.936 143.678 107.304 143.799 107.608 144.042L107.426 145.19C107.272 145.083 107.111 145.006 106.943 144.959C106.779 144.908 106.6 144.882 106.404 144.882C106.082 144.882 105.802 144.968 105.564 145.141C105.326 145.314 105.139 145.556 105.004 145.869C104.873 146.182 104.808 146.548 104.808 146.968V151H103.59Z" fill="black"/>
<path d="M21.116 175V166.6H24.308C24.98 166.6 25.508 166.708 25.892 166.924C26.276 167.14 26.55 167.42 26.714 167.764C26.878 168.104 26.96 168.46 26.96 168.832C26.96 169.212 26.86 169.558 26.66 169.87C26.46 170.178 26.168 170.416 25.784 170.584C26.1 170.684 26.368 170.834 26.588 171.034C26.808 171.23 26.974 171.46 27.086 171.724C27.198 171.984 27.254 172.264 27.254 172.564C27.254 172.852 27.206 173.14 27.11 173.428C27.018 173.716 26.864 173.98 26.648 174.22C26.436 174.456 26.152 174.646 25.796 174.79C25.444 174.93 25.01 175 24.494 175H21.116ZM22.328 173.872H24.608C24.98 173.872 25.27 173.81 25.478 173.686C25.69 173.562 25.836 173.404 25.916 173.212C26 173.016 26.042 172.816 26.042 172.612C26.042 172.372 25.992 172.144 25.892 171.928C25.796 171.712 25.616 171.538 25.352 171.406C25.092 171.27 24.72 171.202 24.236 171.202H22.328V173.872ZM22.328 170.104H24.11C24.658 170.104 25.068 169.994 25.34 169.774C25.612 169.55 25.748 169.254 25.748 168.886C25.748 168.702 25.712 168.52 25.64 168.34C25.568 168.156 25.432 168.006 25.232 167.89C25.032 167.774 24.74 167.716 24.356 167.716H22.328V170.104ZM31.4754 175.144C30.6274 175.144 29.9594 174.858 29.4714 174.286C28.9834 173.71 28.7394 172.928 28.7394 171.94C28.7394 171.28 28.8494 170.71 29.0694 170.23C29.2934 169.75 29.6094 169.38 30.0174 169.12C30.4294 168.856 30.9154 168.724 31.4754 168.724C32.0394 168.724 32.5254 168.854 32.9334 169.114C33.3454 169.37 33.6614 169.738 33.8814 170.218C34.1014 170.698 34.2114 171.268 34.2114 171.928C34.2114 172.592 34.0994 173.164 33.8754 173.644C33.6554 174.124 33.3414 174.494 32.9334 174.754C32.5254 175.014 32.0394 175.144 31.4754 175.144ZM31.4754 174.016C31.9554 174.016 32.3294 173.832 32.5974 173.464C32.8694 173.096 33.0054 172.584 33.0054 171.928C33.0054 171.272 32.8694 170.76 32.5974 170.392C32.3294 170.024 31.9554 169.84 31.4754 169.84C30.9954 169.84 30.6194 170.024 30.3474 170.392C30.0794 170.76 29.9454 171.276 29.9454 171.94C29.9454 172.592 30.0794 173.102 30.3474 173.47C30.6194 173.834 30.9954 174.016 31.4754 174.016ZM38.1443 175.144C37.3643 175.144 36.7483 174.858 36.2963 174.286C35.8443 173.71 35.6183 172.924 35.6183 171.928C35.6183 171.276 35.7223 170.71 35.9303 170.23C36.1383 169.75 36.4303 169.38 36.8063 169.12C37.1863 168.856 37.6343 168.724 38.1503 168.724C38.7343 168.724 39.2283 168.918 39.6323 169.306V166.888L40.8263 166.336V175H39.6323V174.514C39.2643 174.934 38.7683 175.144 38.1443 175.144ZM38.3243 174.016C38.6003 174.016 38.8503 173.954 39.0743 173.83C39.2983 173.702 39.4843 173.52 39.6323 173.284V170.542C39.4843 170.326 39.2943 170.156 39.0623 170.032C38.8343 169.904 38.5883 169.84 38.3243 169.84C37.8443 169.84 37.4743 170.02 37.2143 170.38C36.9543 170.74 36.8243 171.256 36.8243 171.928C36.8243 172.348 36.8863 172.716 37.0103 173.032C37.1343 173.344 37.3083 173.586 37.5323 173.758C37.7563 173.93 38.0203 174.016 38.3243 174.016ZM43.5129 177.328L44.4489 174.862L42.1689 168.868H43.3809L44.8389 172.846C44.8829 172.946 44.9189 173.042 44.9469 173.134C44.9749 173.226 45.0029 173.326 45.0309 173.434C45.0629 173.326 45.0929 173.228 45.1209 173.14C45.1529 173.048 45.1869 172.95 45.2229 172.846L46.7049 168.868H47.9289L44.7309 177.328H43.5129ZM47.5891 176.56L52.3171 166.456H53.5171L48.8011 176.56H47.5891ZM57.2108 175.144C56.7108 175.144 56.2568 175.06 55.8488 174.892C55.4448 174.72 55.0988 174.484 54.8108 174.184C54.5268 173.884 54.3188 173.538 54.1868 173.146L55.3148 172.732C55.4868 173.108 55.7388 173.414 56.0708 173.65C56.4068 173.882 56.7968 173.998 57.2408 173.998C57.7168 173.998 58.0968 173.888 58.3808 173.668C58.6688 173.448 58.8128 173.126 58.8128 172.702C58.8128 172.41 58.7268 172.164 58.5548 171.964C58.3868 171.764 58.1628 171.596 57.8828 171.46C57.6068 171.32 57.3068 171.192 56.9828 171.076C56.6868 170.968 56.3888 170.85 56.0888 170.722C55.7888 170.59 55.5168 170.432 55.2728 170.248C55.0288 170.064 54.8308 169.838 54.6788 169.57C54.5308 169.302 54.4568 168.978 54.4568 168.598C54.4568 168.21 54.5608 167.854 54.7688 167.53C54.9808 167.206 55.2848 166.946 55.6808 166.75C56.0768 166.554 56.5548 166.456 57.1148 166.456C57.5748 166.456 57.9788 166.528 58.3268 166.672C58.6788 166.812 58.9688 167.006 59.1968 167.254C59.4248 167.498 59.5828 167.776 59.6708 168.088L58.5668 168.454C58.4628 168.214 58.2828 168.01 58.0268 167.842C57.7748 167.674 57.4448 167.59 57.0368 167.59C56.6208 167.59 56.2928 167.68 56.0528 167.86C55.8168 168.04 55.6988 168.288 55.6988 168.604C55.6988 168.836 55.7788 169.032 55.9388 169.192C56.0988 169.348 56.3088 169.486 56.5688 169.606C56.8328 169.726 57.1188 169.842 57.4268 169.954C57.7348 170.066 58.0428 170.194 58.3508 170.338C58.6588 170.478 58.9408 170.65 59.1968 170.854C59.4568 171.058 59.6648 171.31 59.8208 171.61C59.9768 171.906 60.0548 172.264 60.0548 172.684C60.0548 173.208 59.9288 173.654 59.6768 174.022C59.4288 174.386 59.0908 174.664 58.6628 174.856C58.2348 175.048 57.7508 175.144 57.2108 175.144ZM61.771 175V168.868H62.965V169.444C63.149 169.204 63.373 169.024 63.637 168.904C63.905 168.784 64.205 168.724 64.537 168.724C64.897 168.724 65.217 168.802 65.497 168.958C65.777 169.11 65.993 169.328 66.145 169.612C66.341 169.328 66.595 169.11 66.907 168.958C67.219 168.802 67.569 168.724 67.957 168.724C68.645 168.724 69.183 168.928 69.571 169.336C69.959 169.74 70.153 170.304 70.153 171.028V175H68.959V171.4C68.959 170.888 68.859 170.5 68.659 170.236C68.463 169.972 68.175 169.84 67.795 169.84C67.539 169.84 67.317 169.904 67.129 170.032C66.945 170.156 66.803 170.338 66.703 170.578C66.603 170.814 66.553 171.094 66.553 171.418V175H65.359V171.4C65.359 170.88 65.263 170.49 65.071 170.23C64.879 169.97 64.589 169.84 64.201 169.84C63.809 169.84 63.505 169.974 63.289 170.242C63.073 170.51 62.965 170.89 62.965 171.382V175H61.771ZM73.8832 175.144C73.2152 175.144 72.6892 174.962 72.3052 174.598C71.9252 174.23 71.7352 173.73 71.7352 173.098C71.7352 172.69 71.8312 172.334 72.0232 172.03C72.2152 171.726 72.4852 171.492 72.8332 171.328C73.1852 171.16 73.5972 171.076 74.0692 171.076C74.3572 171.076 74.6292 171.106 74.8852 171.166C75.1452 171.226 75.3832 171.316 75.5992 171.436V171.022C75.5992 170.59 75.4952 170.272 75.2872 170.068C75.0792 169.86 74.7612 169.756 74.3332 169.756C74.0372 169.756 73.7312 169.81 73.4152 169.918C73.1032 170.026 72.8012 170.178 72.5092 170.374L72.1612 169.396C72.4852 169.184 72.8492 169.02 73.2532 168.904C73.6612 168.784 74.0672 168.724 74.4712 168.724C75.2312 168.724 75.7992 168.912 76.1752 169.288C76.5552 169.664 76.7452 170.226 76.7452 170.974V175H75.5992V174.46C75.3712 174.68 75.1092 174.85 74.8132 174.97C74.5172 175.086 74.2072 175.144 73.8832 175.144ZM74.0992 174.112C74.3712 174.112 74.6372 174.05 74.8972 173.926C75.1612 173.798 75.3952 173.62 75.5992 173.392V172.444C75.4072 172.332 75.1892 172.244 74.9452 172.18C74.7012 172.116 74.4672 172.084 74.2432 172.084C73.8192 172.084 73.4852 172.176 73.2412 172.36C72.9972 172.54 72.8752 172.788 72.8752 173.104C72.8752 173.416 72.9832 173.662 73.1992 173.842C73.4152 174.022 73.7152 174.112 74.0992 174.112ZM78.5888 175V166.888L79.7828 166.336V175H78.5888ZM81.8466 175V166.888L83.0406 166.336V175H81.8466Z" fill="black"/>
<path d="M135.427 142.361L135.973 152H134.804L134.503 146.967C134.489 146.626 134.475 146.281 134.461 145.931C134.447 145.581 134.438 145.245 134.433 144.923C134.428 144.601 134.426 144.314 134.426 144.062C134.426 143.81 134.426 143.614 134.426 143.474L132.802 150.271H131.584L129.841 143.474C129.846 143.609 129.85 143.81 129.855 144.076C129.86 144.337 129.862 144.634 129.862 144.965C129.867 145.296 129.864 145.637 129.855 145.987C129.85 146.332 129.841 146.654 129.827 146.953L129.568 152H128.427L128.973 142.361H130.667L132.228 148.962L133.719 142.361H135.427ZM140.609 144.475C141.304 144.475 141.885 144.634 142.352 144.951C142.823 145.264 143.175 145.707 143.409 146.281C143.647 146.855 143.766 147.532 143.766 148.311C143.766 149.062 143.644 149.727 143.402 150.306C143.159 150.885 142.802 151.34 142.331 151.671C141.864 151.998 141.285 152.161 140.595 152.161C139.904 152.161 139.323 152.002 138.852 151.685C138.38 151.368 138.023 150.922 137.781 150.348C137.543 149.769 137.424 149.095 137.424 148.325C137.424 147.564 137.545 146.895 137.788 146.316C138.03 145.737 138.387 145.287 138.859 144.965C139.335 144.638 139.918 144.475 140.609 144.475ZM140.609 145.434C139.974 145.434 139.493 145.67 139.167 146.141C138.845 146.608 138.684 147.336 138.684 148.325C138.684 149.296 138.842 150.017 139.16 150.488C139.482 150.959 139.96 151.195 140.595 151.195C141.229 151.195 141.705 150.959 142.023 150.488C142.345 150.017 142.506 149.291 142.506 148.311C142.506 147.331 142.347 146.608 142.03 146.141C141.712 145.67 141.239 145.434 140.609 145.434ZM146.196 152V144.629H147.197L147.288 145.651C147.587 145.273 147.96 144.984 148.408 144.783C148.861 144.578 149.299 144.475 149.724 144.475C150.447 144.475 150.972 144.666 151.299 145.049C151.63 145.432 151.796 145.964 151.796 146.645V152H150.62V147.513C150.62 147.009 150.592 146.603 150.536 146.295C150.48 145.982 150.363 145.756 150.186 145.616C150.009 145.471 149.733 145.399 149.36 145.399C149.071 145.399 148.798 145.462 148.541 145.588C148.289 145.714 148.063 145.873 147.862 146.064C147.666 146.251 147.503 146.44 147.372 146.631V152H146.196ZM157.398 144.475C158.093 144.475 158.674 144.634 159.141 144.951C159.612 145.264 159.964 145.707 160.198 146.281C160.436 146.855 160.555 147.532 160.555 148.311C160.555 149.062 160.433 149.727 160.191 150.306C159.948 150.885 159.591 151.34 159.12 151.671C158.653 151.998 158.074 152.161 157.384 152.161C156.693 152.161 156.112 152.002 155.641 151.685C155.169 151.368 154.812 150.922 154.57 150.348C154.332 149.769 154.213 149.095 154.213 148.325C154.213 147.564 154.334 146.895 154.577 146.316C154.819 145.737 155.176 145.287 155.648 144.965C156.124 144.638 156.707 144.475 157.398 144.475ZM157.398 145.434C156.763 145.434 156.282 145.67 155.956 146.141C155.634 146.608 155.473 147.336 155.473 148.325C155.473 149.296 155.631 150.017 155.949 150.488C156.271 150.959 156.749 151.195 157.384 151.195C158.018 151.195 158.494 150.959 158.812 150.488C159.134 150.017 159.295 149.291 159.295 148.311C159.295 147.331 159.136 146.608 158.819 146.141C158.501 145.67 158.028 145.434 157.398 145.434ZM163.265 153.442L162.313 153.022L168.305 140.667L169.243 141.129L163.265 153.442ZM177.4 142.361L177.946 152H176.777L176.476 146.967C176.462 146.626 176.448 146.281 176.434 145.931C176.42 145.581 176.41 145.245 176.406 144.923C176.401 144.601 176.399 144.314 176.399 144.062C176.399 143.81 176.399 143.614 176.399 143.474L174.775 150.271H173.557L171.814 143.474C171.818 143.609 171.823 143.81 171.828 144.076C171.832 144.337 171.835 144.634 171.835 144.965C171.839 145.296 171.837 145.637 171.828 145.987C171.823 146.332 171.814 146.654 171.8 146.953L171.541 152H170.4L170.946 142.361H172.64L174.201 148.962L175.692 142.361H177.4ZM180.698 148.731C180.722 149.3 180.831 149.767 181.027 150.131C181.223 150.49 181.482 150.756 181.804 150.929C182.126 151.097 182.476 151.181 182.854 151.181C183.232 151.181 183.573 151.125 183.876 151.013C184.184 150.901 184.499 150.735 184.821 150.516L185.374 151.293C185.029 151.564 184.635 151.776 184.191 151.93C183.753 152.084 183.302 152.161 182.84 152.161C182.126 152.161 181.517 152 181.013 151.678C180.509 151.356 180.124 150.908 179.858 150.334C179.597 149.755 179.466 149.086 179.466 148.325C179.466 147.578 179.599 146.916 179.865 146.337C180.131 145.758 180.505 145.303 180.985 144.972C181.466 144.641 182.033 144.475 182.686 144.475C183.307 144.475 183.841 144.622 184.289 144.916C184.737 145.205 185.08 145.621 185.318 146.162C185.561 146.699 185.682 147.34 185.682 148.087C185.682 148.213 185.68 148.332 185.675 148.444C185.671 148.551 185.664 148.647 185.654 148.731H180.698ZM182.7 145.441C182.154 145.441 181.697 145.635 181.328 146.022C180.964 146.409 180.757 147.009 180.705 147.821H184.548C184.534 147.032 184.362 146.44 184.03 146.043C183.699 145.642 183.256 145.441 182.7 145.441ZM192.579 141.514L193.755 141.661V152H192.726L192.614 151.027C192.338 151.419 192.021 151.706 191.662 151.888C191.307 152.07 190.927 152.161 190.521 152.161C189.881 152.161 189.354 152 188.939 151.678C188.523 151.356 188.215 150.908 188.015 150.334C187.814 149.755 187.714 149.086 187.714 148.325C187.714 147.588 187.828 146.93 188.057 146.351C188.285 145.768 188.614 145.31 189.044 144.979C189.478 144.643 189.998 144.475 190.605 144.475C191.029 144.475 191.403 144.55 191.725 144.699C192.047 144.844 192.331 145.058 192.579 145.343V141.514ZM190.913 145.42C190.297 145.42 189.823 145.66 189.492 146.141C189.16 146.622 188.995 147.35 188.995 148.325C188.995 148.96 189.062 149.492 189.198 149.921C189.333 150.35 189.531 150.672 189.793 150.887C190.059 151.102 190.383 151.209 190.766 151.209C191.186 151.209 191.543 151.09 191.837 150.852C192.135 150.614 192.383 150.346 192.579 150.047V146.365C192.378 146.066 192.135 145.835 191.851 145.672C191.566 145.504 191.253 145.42 190.913 145.42ZM200.294 144.629V151.069H202.373V152H196.843V151.069H199.118V145.56H196.913V144.629H200.294ZM199.356 141.178C199.618 141.178 199.825 141.257 199.979 141.416C200.138 141.575 200.217 141.768 200.217 141.997C200.217 142.235 200.138 142.436 199.979 142.599C199.825 142.758 199.618 142.837 199.356 142.837C199.109 142.837 198.906 142.758 198.747 142.599C198.589 142.436 198.509 142.235 198.509 141.997C198.509 141.768 198.589 141.575 198.747 141.416C198.906 141.257 199.109 141.178 199.356 141.178ZM206.134 144.629V149.851C206.134 150.336 206.234 150.686 206.435 150.901C206.635 151.116 206.948 151.223 207.373 151.223C207.779 151.223 208.161 151.109 208.521 150.88C208.885 150.647 209.167 150.371 209.368 150.054V144.629H210.544V152H209.543L209.445 151.006C209.155 151.379 208.798 151.666 208.374 151.867C207.949 152.063 207.52 152.161 207.086 152.161C206.372 152.161 205.837 151.972 205.483 151.594C205.133 151.211 204.958 150.677 204.958 149.991V144.629H206.134ZM218.21 144.475C218.448 144.475 218.675 144.526 218.889 144.629C219.109 144.732 219.288 144.93 219.428 145.224C219.568 145.518 219.638 145.947 219.638 146.512V152H218.546V146.701C218.546 146.239 218.518 145.905 218.462 145.7C218.406 145.495 218.245 145.392 217.979 145.392C217.76 145.392 217.541 145.462 217.321 145.602C217.107 145.737 216.897 145.961 216.691 146.274V152H215.592V146.701C215.592 146.239 215.564 145.905 215.508 145.7C215.452 145.495 215.291 145.392 215.025 145.392C214.797 145.392 214.575 145.462 214.36 145.602C214.15 145.737 213.943 145.961 213.737 146.274V152H212.652V144.629H213.576L213.646 145.483C213.847 145.198 214.071 144.96 214.318 144.769C214.57 144.573 214.881 144.475 215.249 144.475C215.529 144.475 215.793 144.543 216.04 144.678C216.288 144.809 216.47 145.065 216.586 145.448C216.787 145.159 217.013 144.925 217.265 144.748C217.517 144.566 217.832 144.475 218.21 144.475Z" fill="black"/>
<path d="M133.836 167.426L134.265 175H133.346L133.11 171.045C133.099 170.778 133.088 170.506 133.077 170.231C133.066 169.956 133.058 169.692 133.055 169.439C133.051 169.186 133.049 168.961 133.049 168.763C133.049 168.565 133.049 168.411 133.049 168.301L131.773 173.641H130.816L129.447 168.301C129.45 168.407 129.454 168.565 129.458 168.774C129.461 168.979 129.463 169.212 129.463 169.473C129.467 169.733 129.465 170 129.458 170.275C129.454 170.547 129.447 170.8 129.436 171.034L129.232 175H128.336L128.765 167.426H130.096L131.322 172.613L132.494 167.426H133.836ZM137.907 169.087C138.453 169.087 138.91 169.212 139.276 169.461C139.647 169.707 139.923 170.055 140.107 170.506C140.294 170.957 140.387 171.489 140.387 172.101C140.387 172.692 140.292 173.214 140.101 173.669C139.911 174.124 139.63 174.481 139.26 174.741C138.893 174.998 138.438 175.127 137.896 175.127C137.353 175.127 136.897 175.002 136.526 174.752C136.156 174.503 135.875 174.153 135.685 173.702C135.498 173.247 135.404 172.717 135.404 172.112C135.404 171.515 135.5 170.989 135.69 170.534C135.881 170.079 136.161 169.725 136.532 169.473C136.906 169.216 137.364 169.087 137.907 169.087ZM137.907 169.841C137.408 169.841 137.03 170.026 136.774 170.396C136.521 170.763 136.394 171.335 136.394 172.112C136.394 172.875 136.519 173.442 136.768 173.812C137.021 174.182 137.397 174.367 137.896 174.367C138.394 174.367 138.768 174.182 139.018 173.812C139.271 173.442 139.397 172.871 139.397 172.101C139.397 171.331 139.273 170.763 139.023 170.396C138.774 170.026 138.402 169.841 137.907 169.841ZM142.297 175V169.208H143.083L143.155 170.011C143.39 169.714 143.683 169.487 144.035 169.329C144.391 169.168 144.735 169.087 145.069 169.087C145.637 169.087 146.05 169.238 146.306 169.538C146.567 169.839 146.697 170.257 146.697 170.792V175H145.773V171.474C145.773 171.078 145.751 170.759 145.707 170.517C145.663 170.272 145.571 170.094 145.432 169.984C145.293 169.87 145.076 169.813 144.783 169.813C144.556 169.813 144.341 169.863 144.139 169.962C143.941 170.061 143.764 170.186 143.606 170.336C143.452 170.483 143.324 170.631 143.221 170.781V175H142.297ZM151.098 169.087C151.644 169.087 152.101 169.212 152.468 169.461C152.838 169.707 153.115 170.055 153.298 170.506C153.485 170.957 153.579 171.489 153.579 172.101C153.579 172.692 153.483 173.214 153.293 173.669C153.102 174.124 152.821 174.481 152.451 174.741C152.084 174.998 151.63 175.127 151.087 175.127C150.544 175.127 150.088 175.002 149.718 174.752C149.347 174.503 149.067 174.153 148.876 173.702C148.689 173.247 148.596 172.717 148.596 172.112C148.596 171.515 148.691 170.989 148.882 170.534C149.072 170.079 149.353 169.725 149.723 169.473C150.097 169.216 150.555 169.087 151.098 169.087ZM151.098 169.841C150.599 169.841 150.222 170.026 149.965 170.396C149.712 170.763 149.586 171.335 149.586 172.112C149.586 172.875 149.71 173.442 149.96 173.812C150.213 174.182 150.588 174.367 151.087 174.367C151.586 174.367 151.96 174.182 152.209 173.812C152.462 173.442 152.589 172.871 152.589 172.101C152.589 171.331 152.464 170.763 152.215 170.396C151.965 170.026 151.593 169.841 151.098 169.841ZM155.708 176.133L154.96 175.803L159.668 166.095L160.405 166.458L155.708 176.133ZM166.88 172.904C166.88 173.337 166.772 173.722 166.556 174.059C166.339 174.393 166.026 174.655 165.615 174.846C165.204 175.033 164.704 175.127 164.114 175.127C163.56 175.127 163.058 175.042 162.607 174.873C162.159 174.705 161.776 174.466 161.457 174.158L162.024 173.52C162.288 173.766 162.59 173.962 162.931 174.109C163.272 174.252 163.672 174.323 164.13 174.323C164.438 174.323 164.726 174.274 164.994 174.175C165.261 174.072 165.478 173.918 165.643 173.713C165.808 173.504 165.89 173.24 165.89 172.921C165.89 172.675 165.842 172.466 165.747 172.294C165.652 172.122 165.483 171.969 165.241 171.837C164.999 171.702 164.662 171.57 164.229 171.441C163.73 171.295 163.298 171.13 162.931 170.946C162.568 170.759 162.286 170.53 162.084 170.259C161.886 169.988 161.787 169.652 161.787 169.252C161.787 168.875 161.892 168.539 162.101 168.246C162.31 167.953 162.597 167.723 162.964 167.558C163.334 167.39 163.76 167.305 164.24 167.305C164.764 167.305 165.219 167.381 165.604 167.531C165.993 167.678 166.345 167.89 166.66 168.169L166.099 168.79C165.828 168.548 165.536 168.374 165.225 168.268C164.913 168.158 164.596 168.103 164.273 168.103C163.998 168.103 163.745 168.145 163.514 168.229C163.287 168.31 163.103 168.433 162.964 168.598C162.828 168.759 162.761 168.966 162.761 169.22C162.761 169.436 162.819 169.623 162.937 169.78C163.054 169.938 163.252 170.083 163.531 170.215C163.809 170.343 164.189 170.479 164.669 170.622C165.061 170.736 165.424 170.879 165.758 171.051C166.095 171.22 166.367 171.451 166.572 171.744C166.777 172.034 166.88 172.42 166.88 172.904ZM172.497 169.087C172.684 169.087 172.862 169.128 173.03 169.208C173.203 169.289 173.344 169.445 173.454 169.676C173.564 169.907 173.619 170.244 173.619 170.688V175H172.761V170.836C172.761 170.473 172.739 170.211 172.695 170.05C172.651 169.889 172.524 169.808 172.315 169.808C172.143 169.808 171.971 169.863 171.798 169.973C171.63 170.079 171.465 170.255 171.303 170.501V175H170.44V170.836C170.44 170.473 170.418 170.211 170.374 170.05C170.33 169.889 170.203 169.808 169.994 169.808C169.815 169.808 169.64 169.863 169.472 169.973C169.307 170.079 169.144 170.255 168.982 170.501V175H168.13V169.208H168.856L168.911 169.879C169.068 169.656 169.244 169.469 169.439 169.319C169.637 169.164 169.881 169.087 170.17 169.087C170.39 169.087 170.597 169.141 170.792 169.247C170.986 169.35 171.129 169.551 171.221 169.852C171.378 169.625 171.556 169.441 171.754 169.302C171.952 169.159 172.2 169.087 172.497 169.087ZM179.422 173.735C179.422 173.966 179.461 174.135 179.538 174.241C179.615 174.347 179.734 174.426 179.895 174.477L179.67 175.127C179.421 175.094 179.202 175.015 179.015 174.89C178.828 174.762 178.693 174.569 178.608 174.312C178.399 174.58 178.139 174.784 177.827 174.923C177.516 175.059 177.171 175.127 176.793 175.127C176.214 175.127 175.758 174.963 175.424 174.637C175.09 174.311 174.923 173.878 174.923 173.339C174.923 172.741 175.156 172.283 175.622 171.964C176.088 171.645 176.76 171.485 177.64 171.485H178.493V171.001C178.493 170.583 178.37 170.288 178.124 170.116C177.882 169.94 177.545 169.852 177.112 169.852C176.922 169.852 176.698 169.876 176.441 169.923C176.185 169.967 175.906 170.043 175.605 170.149L175.363 169.45C175.719 169.318 176.053 169.225 176.364 169.17C176.676 169.115 176.973 169.087 177.255 169.087C177.978 169.087 178.519 169.256 178.878 169.593C179.241 169.927 179.422 170.382 179.422 170.957V173.735ZM177.03 174.422C177.316 174.422 177.589 174.351 177.849 174.208C178.11 174.061 178.324 173.86 178.493 173.603V172.112H177.657C177.019 172.112 176.568 172.222 176.304 172.442C176.044 172.662 175.913 172.958 175.913 173.328C175.913 173.687 176.005 173.96 176.188 174.147C176.375 174.331 176.656 174.422 177.03 174.422ZM184.126 166.876V173.57C184.126 173.856 184.214 174.059 184.39 174.18C184.57 174.298 184.801 174.356 185.083 174.356C185.259 174.356 185.426 174.338 185.584 174.301C185.741 174.265 185.899 174.215 186.057 174.153L186.304 174.829C186.146 174.906 185.95 174.974 185.716 175.033C185.485 175.095 185.222 175.127 184.929 175.127C184.416 175.127 184 174.985 183.681 174.703C183.362 174.417 183.202 174.023 183.202 173.52V167.608H181.426V166.876H184.126ZM190.722 166.876V173.57C190.722 173.856 190.81 174.059 190.986 174.18C191.165 174.298 191.396 174.356 191.679 174.356C191.855 174.356 192.022 174.338 192.179 174.301C192.337 174.265 192.495 174.215 192.652 174.153L192.9 174.829C192.742 174.906 192.546 174.974 192.311 175.033C192.08 175.095 191.818 175.127 191.525 175.127C191.011 175.127 190.595 174.985 190.276 174.703C189.957 174.417 189.798 174.023 189.798 173.52V167.608H188.021V166.876H190.722Z" fill="black"/>
</svg>
