<svg xmlns="http://www.w3.org/2000/svg" viewBox="0 0 625.431 444.705" width="1876.294" height="1334.116" xmlns:v="https://vecta.io/nano"><style><![CDATA[.B{stroke-opacity:.6}.C{fill:none}.D{stroke-linecap:round}.E{stroke:#000}.F{stroke-width:2}.G{stroke:#5f3dc4}.H{fill-opacity:.6}.I{font-family:Virgil, Segoe UI Emoji}.J{font-size:20px}.K{fill:#5f3dc4}.L{text-anchor:middle}.M{direction:ltr}]]></style><defs><style>@font-face{font-family:"Virgil";src:url("https://excalidraw.com/Virgil.woff2")} @font-face{font-family:"Cascadia";src:url("https://excalidraw.com/Cascadia.woff2")}</style></defs><path fill="#fff" d="M0 0h625.431v444.705H0z"/><path d="M116.18 10c79.12-3.78 160.77-2.92 393.07 0m-393.07 0c132.26-3.45 263.84-3.33 393.07 0m0 0c72.67-1.98 108.91 39.17 106.18 106.18M509.25 10c69.18.6 104.91 34.07 106.18 106.18m0 0c-2.18 76.49-.65 150.49 0 212.35m0-212.35v212.35m0 0c-2.36 68.92-32.04 105.87-106.18 106.18m106.18-106.18c.9 70.55-39.38 106.03-106.18 106.18m0 0c-151.38-2.86-302.1-.86-393.07 0m393.07 0H116.18m0 0C44.66 438.31 7.04 401.25 10 328.53m106.18 106.18C41.69 434.1 9.97 400.32 10 328.53m0 0c3.13-82.76 1.82-161.13 0-212.35m0 212.35c1.75-72 3.55-142.99 0-212.35m0 0C6.59 45.62 41.7 7.17 116.18 10M10 116.18C9.67 44.5 41.64 8.46 116.18 10" class="C D E F"/><g class="C D"><path d="M350.269 205.928c6.22-6.99 12.58-11.06 24.93-25.12m-23.32 26.59c7.32-9.61 15-17.93 20.95-25.26m-22.6 38.57c10.01-9.66 18.8-19.52 36.27-42.27m-34.73 39.78c10.51-10.82 19.92-20.81 34.59-37.67m-30.89 44.69c10.73-8.31 20.89-18.47 41.26-46.85m-41.7 48.83c14.29-17.01 29.47-33.89 42.68-48.36m-36.57 55.81c12.03-14.46 23.25-27 42.12-51.91m-44.02 51.83c10.48-10.74 18.09-20.55 46.2-52.94m-40.54 58.93c17.49-19.32 35.99-40.24 49.94-57.02m-50.74 56.6c13.96-14.2 26.16-27.92 50.14-55.08m-43.14 61.16c17.88-21.95 36.11-42.31 48.34-53.05m-46.47 51.66c10.33-13.77 22.45-26.55 44.05-52.4m-38.08 53.78c17.25-17.14 32.07-36.26 42.25-47.68m-41.8 48.91c12.89-13.65 24.65-27.87 41.92-48.89m-35.44 54.95c13.69-15.69 29.13-30.49 38.96-47.25m-39.04 45.56c13.92-13.6 26.57-28.79 40.19-45.78m-27.78 44.34c8.18-6.98 15.57-18.35 25.64-28.42m-25.38 27.08c6.7-7.06 14.57-13.69 26.27-28.27m-43.57 26.42c-8.7-10.37-17.16-17.63-31.81-29.22m33.34 28.62c-8.93-10.35-20.27-17.77-32.43-29.69m42.58 25.34c-8.54-7.11-21.43-16.4-35.73-32.28m36.23 33.32c-7.13-6.35-15.74-13.26-38.03-32.02m48.6 33.23c-10.58-14.63-24.41-24.3-45.96-43.62m46.1 41.33l-48.2-40.57m55.06 35.97c-15.42-13.83-28.02-24.04-54.69-45.59m54.26 45.43c-10.29-10.44-22.59-19.1-54.42-47.2m60.9 41.52c-19.29-14.14-34.6-31.12-56.17-45.15m54.16 44.79c-11.97-9.47-22.18-20.04-53.12-45.91m58.06 39.91c-9.92-10.33-22.49-23.73-54.51-48.35m54.5 47.61l-52.53-46.42m56.63 42.46c-8.95-13.33-25.31-22.36-51.12-46.62m53.05 44.59l-53.08-45.41m55.5 35.26c-12.72-8.97-20.07-17.43-47.17-38.75m46.42 41.08l-44.83-39.54m42.63 26.57c-12.99-8.55-26.4-21.71-29.46-26.65m30.29 27.94c-9.55-9.41-21.53-17.98-32.41-28.15" stroke="#40c057"/><path d="M391.369 174.028c6.88.27 15.47 4.03 20.77 8.86 5.31 4.83 9.63 13.08 11.04 20.14s.43 15.47-2.56 22.22c-2.99 6.74-8.9 14.61-15.39 18.26s-16.16 4.7-23.54 3.63c-7.39-1.07-15.57-5.11-20.75-10.06-5.19-4.95-8.95-12.45-10.37-19.65-1.41-7.21-1.14-16.94 1.89-23.6 3.02-6.67 9.08-13.13 16.28-16.39 7.19-3.26 21.68-3.03 26.87-3.15s4.39 1.96 4.29 2.43m-30.12 1.17c6.1-3.23 16.08-4.86 23.33-3.96 7.26.9 15.19 3.93 20.2 9.36 5.02 5.44 9.1 15.92 9.91 23.24.8 7.33-1.47 14.63-5.07 20.71s-9.92 12.44-16.53 15.79-16.16 5.53-23.13 4.29c-6.97-1.23-13.98-6.22-18.69-11.69-4.72-5.48-8.35-13.85-9.59-21.16-1.24-7.3-1.34-16.33 2.14-22.68 3.49-6.35 15.48-12.83 18.78-15.43 3.29-2.6.74-.57 1.02-.17" class="E F"/></g><g class="C D"><path d="M280.428 150.737c6.06-6.45 14.99-10.31 27.34-28.95m-25.87 30.19c8.7-10.96 18.74-21.78 27.2-31.96m-20.55 38.23c10.75-11.66 21.28-23.67 29.78-38.26m-32.27 39.1l34.38-39.38m-32.12 48.27c10.52-8.41 19.14-20.2 40.73-45.96m-38.74 44.29c8.53-9.36 17.23-19.9 39.2-45.44m-38.47 59.4l45.99-57.29m-46.07 55.94c9.8-12.83 20.58-22.8 44.95-53.35m-39.03 57.87c18.58-19.44 35.58-39.79 45.51-54.06m-45.93 54.41l47.44-52.74m-39.07 57c16.22-19.81 34.07-39.38 46.37-54.47m-47.75 54.49c10.65-12.85 22.35-27.85 47.01-52.59m-41.92 57.26l43.26-49.18m-42.04 48.77l42.07-48.23m-29.87 48.35c13.24-13.32 27.37-32.34 33.56-39.5m-35.24 40.14c9.51-9.59 17.42-21.13 35.02-40.51m-22.89 39.05c8.66-8.02 12.86-17.29 29.24-33.03m-30.58 32.85c10.77-10.31 21.99-23.27 29.38-32.54m-49.07 25.82c-7.36-3.5-11.54-11.31-27.43-22.49m26.83 23.81c-11.32-10.15-20.09-18.6-27.9-24.03m37.04 24.84c-11.45-14.08-25.04-24.65-38.73-37.99m39.76 36.14c-7.91-8.45-16.71-15.33-38.46-34.55m53.16 36.18c-18.09-14.3-31.78-26.22-50.59-44.9m48.3 42.72c-12.15-10.68-24.24-22.36-47.54-41.97m55.08 37.19c-13.57-8.57-23.46-20.04-50.43-46.82m50.27 48.1c-13.04-12.05-24.77-22.15-52.03-45.91m60.66 41.64c-19.68-15.86-42.7-37.01-55.18-50.93m54.81 50.49c-21.38-17.55-43.41-36.87-55.93-49.46m58.96 43.86c-16.24-15.65-36.46-34.22-54.6-46.39m53.85 44.53l-52.66-46.63m57.73 40.35c-15.7-15.68-27-25.5-49.76-42.52m47.73 40.78c-15.79-13.74-30.75-26.63-48.55-43.43m50.7 34.22c-16.66-10.95-32.45-28.5-45.33-36.46m47.66 37.77c-16.79-15.07-35.19-29.29-46.11-38.65m40.62 23.34c-5.5-7.57-15.37-10.47-20.33-17.38m21.62 19.49c-8.64-8.78-16.42-15.59-21.82-18.99" stroke="#fa5252"/><path d="M331.518 120.157c6.61 1.83 13.37 7.89 17.35 13.91s6.81 14.87 6.51 22.2-4.02 16.19-8.33 21.8c-4.31 5.62-10.65 10-17.53 11.87-6.88 1.88-16.7 1.68-23.75-.64-7.05-2.31-14.45-7.22-18.55-13.24s-6.18-15.58-6.03-22.88c.16-7.3 2.56-15.22 6.95-20.91 4.4-5.69 11.35-11.59 19.41-13.25 8.06-1.65 23.33 2.02 28.97 3.3 5.65 1.27 5.35 3.96 4.92 4.34m-29.15-8.55c6.88-1.73 15.65-.29 21.82 2.78s11.53 9.42 15.22 15.63c3.7 6.22 7.72 14.54 6.96 21.63-.75 7.1-6.24 15.65-11.5 20.94s-13.12 9.2-20.04 10.79c-6.92 1.58-14.98 1.49-21.48-1.28-6.51-2.76-13.82-8.67-17.56-15.32-3.74-6.64-5.65-17.34-4.88-24.55.78-7.21 4.54-13.83 9.53-18.69 4.98-4.86 17.12-8.74 20.4-10.47 3.29-1.73-.66-.25-.69.1" class="E F"/></g><g class="C D"><path d="M278.731 263.799c6.95-4.41 16.48-14.91 27.03-26.13m-25.79 27.2c8.33-9.25 16.79-19.69 24.02-27.73m-20.99 38.46c9.48-10.58 18.56-23.68 32.94-41.41m-32.1 38.71c8.21-8.35 15.86-16.69 31.81-38.47m-28.53 48.45c11.38-11.2 19.37-24.59 42.07-50.36m-43.74 49.92l42.58-47.97m-35.83 54.56c8.14-9.51 14.69-20.2 40.9-52.32m-42.26 53.29c13.96-16.97 30.75-36.03 44.85-50.88m-40.1 58.66c19.2-21.76 37.51-44.5 46.67-56.13m-46.32 54.48c12.86-13.84 26.01-28.53 47.98-53.99m-42.27 59.16c17.63-19.78 35.48-37.83 44.38-53.52m-44.36 52.87l46.26-52.49m-37.42 54.57c8.7-11.54 18.41-21.78 40.55-48.21m-40.96 48.89c10.49-12.43 21.35-25.41 41.5-46.24m-30.06 46.32c10.21-8.85 14.71-19.68 34.61-41.33m-33.97 40.52l33.6-40.04m-22.99 40.75c4.49-7.95 7.76-9.81 19.76-23.92m-19.93 21.99c8.25-6.73 13.9-14.65 20.24-23.21m-41.91 22.19c-7.5-6.39-19.8-16.09-30.46-25.51m31.78 24.83c-8.55-4.76-15.54-12.22-32-25.87m43.48 25.39c-13.59-10.37-23.9-22.62-42.36-35.58m40.51 34.68l-38.92-32.93m51.97 30.88c-12.53-8.15-22.72-17.86-50.46-40.36m48.29 41.8c-10.3-8.85-21.55-18.22-47.54-41.72m54.23 36.2c-15.04-12.08-32.55-25.9-55.88-47.33m57.16 47.85c-15.27-11-28.11-23.09-54.98-45.98m60.13 42.74c-12.04-13.67-28.49-23.22-56.06-47.26m55.62 46.04c-17.27-16.79-36.65-32.05-54.6-47.29m63.01 42.57c-11.4-12.46-26.02-22.32-54.81-46.68m52.95 44.77c-14.4-12.53-28.49-25.19-55.05-46.65m58.25 37.34c-18.89-11.18-32.74-25.13-50.44-42.88m48.7 42.77l-51.35-42.39m51.62 32.45c-11.5-12.19-29.15-24.9-38.61-33.05m39.92 35.43c-10.84-9.98-20.54-17.88-40.8-36.33m42.38 29.14c-11.83-12.04-19.27-20.5-30.8-28.23m32.92 26.85c-11.41-7.95-20.97-16.75-32.42-28.72" stroke="#ced4da"/><path d="M323.021 229.809c6.86.6 15.06 5.74 20.11 10.9s9.13 12.72 10.2 20.07c1.06 7.35-.24 17.51-3.8 24.03s-10.86 12.13-17.56 15.11c-6.7 2.97-15.64 4.02-22.65 2.74-7.02-1.28-14.38-5.1-19.43-10.41-5.05-5.32-9.85-14.19-10.88-21.46-1.04-7.26 1.21-15.88 4.69-22.15 3.48-6.28 8.45-12.79 16.18-15.5s24.05-1.16 30.2-.75c6.16.41 7.13 2.77 6.75 3.22m-31.66-4.44c6.57-2.92 16.09-3.69 22.98-1.16 6.88 2.54 14.31 10.29 18.33 16.37 4.02 6.07 6.06 13.13 5.79 20.09-.26 6.97-2.95 15.67-7.38 21.69-4.43 6.01-12.42 12.22-19.2 14.43s-14.89 1.4-21.47-1.18-13.56-8.22-18.01-14.28c-4.46-6.06-8.87-14.84-8.72-22.08.15-7.23 4.77-15.43 9.63-21.32 4.85-5.88 16.33-11.74 19.52-13.97 3.18-2.22-.34-.15-.42.62" class="E F"/></g><g class="C D"><path d="M219.37 203.848c8.89-3.46 11.66-10.76 27.38-27.17m-26.31 27.95c8.68-9.35 16.19-18.68 25.78-29.35m-21.31 39.13c7.03-8.39 11.61-18.05 31.19-40.7m-33.9 41.27c11.06-12.27 22.08-24.97 34.14-40.7m-28.35 49.07c12.11-15.62 21.99-27.53 39.27-47.42m-39.71 45.84c7.69-9.41 16.83-20.33 41.66-48.69m-40.49 59.44c17.29-21.78 33.42-41.34 44.93-53.27m-43.96 51.14c10.56-10.28 19.08-22.47 46.37-50.98m-38.64 57.6c13.96-16.89 26.94-35.26 45.54-55.28m-47.2 54.37c12.37-13.09 23.84-25.42 47.69-53.11m-40.31 57.75c11.16-12.37 24.15-28.46 45.13-52.8m-45.78 53.12c18.14-22.56 37.35-41.81 46.16-54.95m-39.62 57.66c9.82-11.72 20.88-22.99 41.22-48.72m-40.55 48.87l43.2-48.75m-31.04 50.55c8.98-13.39 16.01-21.09 31.37-41.24m-32.18 40.17c5.94-9.34 13.48-16.57 32.67-40.01m-19.23 37.71c1.34-6.02 8.75-10.95 17.85-20.37m-19.78 21.39c4.87-5.43 8.54-10.28 18.56-22.94m-40.18 20.56c-4.84-8.26-12.53-12.52-28.81-29.1m28.12 27.12c-7.31-6.67-16.77-13.73-29.16-25.74m41.41 25.35c-9.78-7.18-22.14-19.47-40.6-34.32m39.71 33.43c-11-9.02-21.35-18.53-37.97-33.16m47.99 33.78c-13.22-10.75-27.23-25.52-46.57-43.32m48.02 42.85c-13.61-13.35-28.2-25.65-47.94-41.26m53.89 37.94c-16.22-17.04-34.05-35.61-53.68-48.93m54.2 47.06c-17.76-14.84-36.53-31.16-52.32-46.61m60.47 43.66c-22.7-20.76-41.05-39.51-53.61-47.66m52.39 46.54c-15.01-13.42-28.41-26.76-53.64-48.34m61.07 44.53c-17.31-15.47-31.94-25.12-53.79-49.64m51.87 47.84c-12.16-10.68-25.06-22.9-53.76-47.1m55.24 36c-8.8-6.92-19.68-14.01-48.73-40.89m48.62 42.26c-15.17-13.24-30.23-27.48-48.24-42.41m48.34 34.74c-12.93-15.47-26.89-23.99-35.46-36.43m37.84 34.2c-14.76-10.69-26.74-21.01-38.73-32.6m33.47 15.2c-7.26-.83-11.14-6.84-21.14-16.32m19.77 17.63c-5.42-4.48-11.4-8.41-21.64-18.01" stroke="#fd7e14"/><path d="M265.79 171.428c6.71 1.19 14.96 6.69 19.56 12.33 4.6 5.63 7.37 14.37 8.02 21.49.66 7.12-.36 15.22-4.11 21.23-3.75 6-11.44 11.94-18.39 14.81-6.95 2.88-16.25 4.18-23.31 2.42-7.06-1.77-14.33-7.41-19.07-13.01-4.75-5.61-8.84-13.4-9.41-20.6s1.99-16.38 5.99-22.61c4-6.22 9.96-12.49 18-14.73 8.03-2.25 24.36.49 30.22 1.25 5.85.76 5.3 2.88 4.9 3.28m-29.62-6.35c6.18-2.06 14.4-.76 21.27 1.9s16.04 7.98 19.94 14.07c3.89 6.08 4.34 15.24 3.43 22.44-.9 7.21-4.32 15.09-8.84 20.79s-11.31 11.43-18.3 13.41c-6.98 1.97-16.7 1.51-23.61-1.58-6.91-3.1-13.97-10.8-17.85-17-3.87-6.19-6.05-13.42-5.42-20.2.64-6.77 4.55-14.96 9.21-20.47 4.66-5.5 15.62-10.43 18.76-12.55 3.14-2.13-.25-.74.08-.2" class="E F"/></g><path d="M267.018 394.271c32.19 1.16 63.32-.41 96.37 0m-96.37 0h96.37m0 0c2.89-.55 3.37 2.39 3.94 3.94m-3.94-3.94c2.85-.71 2.28 2.16 3.94 3.94m0 0c.03 2.45.27 3.75 0 7.87m0-7.87c-.21 1.99-.06 3.4 0 7.87m0 0c-.1.89-1.37 5.58-3.94 3.94m3.94-3.94c-1.43 1.67-2.56 2.98-3.94 3.94m0 0c-21.32.93-43.15-1.79-96.37 0m96.37 0c-23.91-.92-49.14-.98-96.37 0m0 0c-2.89-.01-3.5.18-3.94-3.94m3.94 3.94c-2.58-.15-1.85-3.42-3.94-3.94m0 0c-.35-2.24-.01-5.48 0-7.87m0 7.87c-.04-3.47-.34-6.25 0-7.87m0 0c-.39-4.26.64-5.38 3.94-3.94m-3.94 3.94c-1.09-4.35.14-5.34 3.94-3.94" class="C D E F"/><path d="M150.646 397.971l95.97.8 3.61.65-.04 9.8-.65 1.82-2.53 3.87-98.44-1.63-2.81-1.82.65-2.19-1.45-11.23 5.05-1.34" fill="#fa5252"/><path d="M149.266 397.271c29.96.64 57.01-1.81 96.37 0m-96.37 0h96.37m0 0c.9-.06 5.58.07 3.94 3.94m-3.94-3.94c1.67-1.25 2.98-.52 3.94 3.94m0 0c.31 2.44-.76 5.09 0 7.87m0-7.87c-.3 2.89-.33 5.35 0 7.87m0 0c-.01 3.07.18 3.98-3.94 3.94m3.94-3.94c-.15 4.72-3.42 5.18-3.94 3.94m0 0c-21.86-.64-46.23 1.41-96.37 0m96.37 0c-37.5-.65-73.24-.14-96.37 0m0 0c-4.26-.67-5.38-2.26-3.94-3.94m3.94 3.94c-4.35-1.18-5.34.86-3.94-3.94m0 0c.35-2.67.18-5.77 0-7.87m0 7.87c.3-2.36.06-4.51 0-7.87m0 0c.49-3.33-.3-2.15 3.94-3.94m-3.94 3.94c.01-.6 1.68-2.03 3.94-3.94m240.754-3c33.19-.79 65.21-.59 96.37 0m-96.37 0c34.4-1.01 67.04-.93 96.37 0m0 0c2.05 1.08 4.13.7 3.94 3.94m-3.94-3.94c.97.85 3.28 1.37 3.94 3.94m0 0c.27 1.94-.7 4.62 0 7.87m0-7.87c-.06 1.97-.06 3.45 0 7.87m0 0c-.06 4.27-2.55 3.11-3.94 3.94m3.94-3.94c-1.25 1.67-3.14 4.97-3.94 3.94m0 0c-31.36-1.61-62.21 1.23-96.37 0m96.37 0c-26.65-1.52-54.41-.72-96.37 0m0 0c-2.19 1.49-3.9-1.45-3.94-3.94m3.94 3.94c-.54-2.11-2.7-2.67-3.94-3.94m0 0c-.02-2.58.79-4.73 0-7.87m0 7.87c-.28-1.72-.08-3.7 0-7.87m0 0c-.67-4.07.36-5.44 3.94-3.94m-3.94 3.94c-1.18-4.02 3.49-1.82 3.94-3.94" class="C D E F"/><g class="H"><path d="M377.849 173.048c6.42-2.25 15.48-.79 22.37 1.46 6.89 2.26 14.83 6.39 18.98 12.05 4.15 5.65 6.32 14.48 5.93 21.88s-3.84 16.71-8.27 22.53-11.41 10.38-18.31 12.38c-6.9 2.01-16.16 2.03-23.08-.34s-14.25-7.93-18.44-13.88c-4.19-5.94-7.08-14.81-6.7-21.81.37-6.99 3.93-14.39 8.96-20.15 5.04-5.76 16.86-12.01 21.25-14.39 4.38-2.38 4.83-.48 5.07.11m-1.34-1.84c6.82-1.41 15.39.69 21.65 4.21 6.26 3.51 13.03 9.97 15.92 16.89 2.88 6.92 2.79 17.16 1.41 24.62-1.39 7.46-4.71 15.15-9.74 20.14-5.04 4.99-13.34 9.22-20.48 9.79-7.15.57-15.9-2.54-22.4-6.37-6.49-3.83-13.24-10.17-16.57-16.59-3.34-6.43-4.67-15.19-3.45-21.98 1.21-6.8 5.56-14.02 10.75-18.78 5.18-4.77 16.74-8.17 20.35-9.81 3.6-1.63.74-.18 1.27.01" fill="#ced4da"/><path d="M393.059 172.628c7.06.41 16.67 4.32 21.95 9.27 5.27 4.96 8.74 13.13 9.71 20.46s-.61 17-3.88 23.5c-3.27 6.49-9.22 12.15-15.75 15.46-6.54 3.31-16.21 5.44-23.46 4.39-7.25-1.04-15.04-5.47-20.07-10.64s-9.04-13.25-10.11-20.38c-1.06-7.13.59-15.72 3.73-22.38 3.13-6.65 7.88-14.24 15.07-17.54 7.2-3.3 22.65-2.54 28.09-2.24 5.44.29 4.68 3.27 4.55 3.99m-14.65-5.92c7.01-.8 14.46 2.57 20.15 6.65 5.68 4.08 11.31 10.8 13.95 17.84 2.63 7.04 3.86 17.14 1.88 24.4-1.98 7.27-7.79 15.06-13.76 19.19s-14.71 5.4-22.08 5.6c-7.36.2-16.16-.75-22.12-4.41-5.95-3.65-11.09-10.66-13.59-17.51-2.5-6.84-3.33-16.33-1.41-23.56 1.91-7.23 6.96-15.34 12.91-19.82 5.96-4.49 18.84-6.01 22.83-7.12 4-1.11 1.15-.35 1.15.44" class="B C D E"/></g><path d="M475.675 84.877c-4.89 7.19-18.59 28.74-28.37 43.32l-30.32 44.14m57.21-88.31c-5.12 6.79-18.08 27.94-27.8 42.34l-30.49 44.06" class="B C D G"/><text x="477.331" y="70.516" style="white-space:pre" class="H I J K L M">out of stock</text><g transform="matrix(1 0 0 1 67.576291 60.516385)" class="H I J K L M"><text x="90.5" y="18" style="white-space:pre">soda brands,</text><text x="90.5" y="43" style="white-space:pre">organized somehow</text></g><g class="C D"><path d="M40.035 192.778c9.01-12.58 18.66-22.65 26.17-32.42m-27.32 32.28c7.59-7.8 14.6-15.73 28.64-33.21m-25.21 39.93c11.98-11.68 21.98-21.5 37.03-38.37m-37.11 39.18c8.94-7.99 17.42-16.99 36.04-41.16m-34.82 52.34c15.12-18.51 32.32-37.13 46.65-52.19m-44.32 50.99c11.58-13.61 22.92-26.47 42.71-50.86m-40.69 59.3c12-11.48 18.64-21.23 49.76-56.83m-48.19 55.48l46.95-53.79m-41.56 57.25c14.47-12.94 25.31-24.77 47.79-49.79m-47.06 51.78c17.52-21.26 35.45-41.58 47.13-52.94m-38.78 58.1c9.36-14.59 22.55-27.45 42.82-52.72m-45.22 51.32c18.49-19.52 35.56-40.21 46.72-53.28m-40.79 58.41c13.29-13.58 24.76-28.17 42.49-50.21m-41.6 50.96c14.25-16.48 29.61-32.66 42.11-49.66m-33.62 49.4c13.78-11.53 25.24-26.01 35.76-40.25m-34.41 40.82c10.6-10.64 20.69-23.68 35.45-40.24m-25.37 37.91c7.9-7.52 17.95-14.25 30.22-30.88m-28.29 31.23l28.93-32.14m-50.16 27.11c-6.05-10.4-17.19-15.21-27.11-26.58m27.31 23.65c-6.71-5.64-15.55-12.37-26.16-23.35m44.28 27.66c-8.4-7.27-19.53-15.79-45.86-37.79m46.09 40.44c-10.95-12.35-23.5-22.09-44.49-40.5m52.14 34.51l-51.13-41.77m51.5 42.94c-13.6-12.12-25.9-22.45-49.99-42.48m57.23 37.83c-9.75-10.95-23.23-18.61-53.75-46.5m53.66 46.53c-18.44-14.71-34.73-30.71-54.87-45.87m59.39 40.45c-12.57-9.6-22.01-21.18-54.92-47.21m55.25 47.08c-11.75-11.25-24.74-23.78-56.31-49.43m58.35 40.15c-18.42-17.68-38.26-33.78-49.99-44.94m50.35 46.88c-10.58-12-24.93-21.87-51.22-45.61m55.4 35.77c-18.77-16.89-38.52-32.5-47.29-39.66m47.53 40.07c-12.16-9.31-21.5-18.47-48.11-40.7m51.99 35.94c-15.53-13.59-31.7-29.76-39.09-35.13m37.87 32.86c-15.31-11.74-30.73-25.9-36.99-32.68" stroke="#fab005"/><path d="M90.015 158.388c6.47 1.99 13.66 8.81 17.77 14.8 4.11 6 7.14 13.92 6.87 21.16s-4 16.48-8.5 22.3-11.65 10.63-18.49 12.63c-6.83 2-15.78 1.77-22.52-.62-6.74-2.38-13.68-7.53-17.92-13.68-4.25-6.16-7.62-15.81-7.55-23.24s3.49-15.84 7.96-21.32 11.3-9.83 18.85-11.55c7.54-1.71 21.58.86 26.42 1.25s2.88.45 2.63 1.12m-30.04-4.14c6.64-2.41 17.24-1.01 24.24 1.56s13.71 8.24 17.77 13.85c4.05 5.61 6.68 12.52 6.56 19.81-.13 7.29-3.05 17.58-7.31 23.92-4.25 6.34-11.24 11.88-18.25 14.11s-16.72 1.82-23.78-.72c-7.06-2.53-14.53-8.51-18.6-14.48s-6.23-14.09-5.81-21.32c.42-7.24 4.02-16.4 8.31-22.1 4.28-5.69 14.67-10.09 17.4-12.07 2.72-1.99-1.11-.32-1.06.15" class="E F"/></g><g class="C D"><path d="M39.355 280.959c14.49-11.21 24.99-24.62 30.25-30.82m-28.07 30.72c10.83-11.52 21.5-24.92 28.21-33.6m-27.27 43.77c12.35-16.44 27.09-31.89 32.28-40.07m-31.98 39.3c7.93-8.02 16.97-18.17 34.47-37.2m-32.03 48.03l41.09-48.29m-42.02 50.16l40.46-47.99m-34.13 54.08c9.35-13.74 19.55-25.01 44.25-53.42m-44.47 52.35c11.21-12.48 21.81-27.24 44.24-52.65m-39.11 56.05c14.93-17.01 33.71-34.49 45.47-51.9m-45.19 53.17l46.11-52.99m-40.81 57.41c15.08-15.07 26.7-30.66 43.99-49.16m-42.62 49.85l44.98-51.37m-37.17 55.03c15.18-20.86 31.27-37.92 44.75-48.48m-44.62 46.52c11.18-13.59 23.17-25.2 43.57-48.59m-34.64 52.09c9.71-12.86 20.46-20.59 34.29-39.88m-34.03 38.33c7.89-9.28 17.18-18.83 35.3-39.83m-25.64 44.34c4.7-8.91 11.31-17.76 27.99-32.06m-28.55 31.46c5.87-7.17 11.75-14.25 26.48-33.51m-41.97 27.92c-6.84-8.01-14.64-13.85-25.75-23.62m28.28 22.45c-11.06-6.95-20.2-15.7-28.05-22.9m35.91 22.91c-14.76-13.81-28.96-29.05-41.73-41.9m43.45 41.57c-15.03-13.44-30.56-25.83-44.94-38.94m53.56 36.1c-13.31-14.23-25.94-23.1-50.6-44.26m48.8 43.34c-8.75-9.43-19.47-18.7-48.62-43.54m57.05 39.44c-17.17-14.15-28.96-25.05-51.95-44.93m52.58 44.81l-54.28-46.65m59.14 43.42c-12.77-13.66-24.42-25.48-54.64-52.33m55.35 49.5l-56.24-46.96m60.35 42.46c-15.08-14.81-32.14-30.72-52.52-47.56m52.04 45.15c-11.35-8.64-23.51-20.13-50.74-43.47m54.49 35.94c-18.26-15.09-39.12-32.39-46.08-39.47m44.92 38.85c-13.25-12.85-26.7-24.18-46.57-39.49m44.34 26.28c-8.39-7.76-16.09-13.9-37.09-30.31m36.61 29.91c-8.6-8.27-18.41-16.09-36.67-31.36" stroke="#228be6"/><path d="M92.365 251.769c6.38 2.67 12.89 9.39 16.32 15.67 3.42 6.28 5.16 15 4.21 22.01s-4.93 14.89-9.92 20.04c-5 5.16-12.89 9.66-20.06 10.9s-16.35-.44-22.97-3.45c-6.62-3-13.27-8.36-16.75-14.58-3.47-6.21-5.33-15.34-4.11-22.72 1.22-7.39 6.11-16.28 11.43-21.6 5.32-5.31 12.93-9.41 20.48-10.32s20.57 3.79 24.8 4.86c4.23 1.06.88 1.21.59 1.51m-23.37-7.21c6.93-1.29 16.6 2.28 22.75 5.94 6.14 3.66 10.99 9.71 14.13 16.01 3.13 6.29 6.21 14.77 4.65 21.76-1.55 7-8.32 14.99-13.97 20.2-5.64 5.22-12.97 10.06-19.88 11.09-6.91 1.04-15.35-1.21-21.57-4.87-6.23-3.66-12.44-10.3-15.78-17.09-3.34-6.78-5.5-16.43-4.27-23.62 1.22-7.18 5.94-14.9 11.64-19.48 5.69-4.59 19.12-6.75 22.54-8.05 3.41-1.29-1.91.02-2.07.28" class="E F"/></g><g class="C D G B"><path d="M157.396 122.397c-5.79 9.5-29.17 46.15-34.99 55.28m33.96-55.73l-35.13 57.35m7.89-30.09c-3.86 10.39-6.77 22.22-7.7 29.47m5.83-28.64c-1.25 6.94-2.31 12.58-6.91 28.87"/><path d="M146.616 159.937c-9.87 6.78-18.86 14.89-25.19 18.74m23.33-17.91c-5.28 4.44-10.33 7.64-24.41 18.14"/></g><g class="C D G B"><path d="M157.706 122.347c-.18 12.62 3.52 51.66-2.85 76.96-6.37 25.31-29.56 62.56-35.38 74.86m37.37-153.08c-.28 12.72 3.53 54.41-2.85 79.59-6.39 25.18-29.84 59.26-35.46 71.49m4.02-29.36c-.83 6.62-.38 14.8-4.64 27.92m5.47-28.15c-1.41 10.29-4.06 19.04-5.24 29"/><path d="M140.496 252.767c-5.39 4.3-9.43 9.99-22.58 17.96m23.41-18.18c-7.43 6.93-16.12 12.32-23.18 19.03"/></g><g class="C D G B"><path d="M157.656 123.677l114.84 10m-112.86-10.97l111.74 12.32"/><path d="M242.496 141.587c9.83-.88 21.32-5.2 27.44-5.82m-27.67 6.77c8.21-3.03 14.89-4.68 28.52-7.97"/><path d="M244.736 121.187c9.2 6.63 19.87 9.82 25.2 14.58m-25.43-13.63c7.61 2.51 13.69 6.39 26.28 12.43"/></g><g class="C D G B"><path d="M158.236 123.937l65.5 54.37m-66.88-55.59l65.75 53.81"/><path d="M193.756 165.987c12.77 4.66 22.23 6.96 29.59 9.97m-28.64-9.05c7.52 1.77 16.36 5.09 27.44 10.46"/><path d="M206.786 150.127c7.57 10.93 11.89 19.49 16.56 25.83m-15.62-24.91c3.6 6.58 8.5 14.69 14.42 26.32"/></g><text x="477.331" y="301.52" style="white-space:pre" class="H I J K L M">labelled filter options</text><g class="C D G B"><path d="M394.74 319.92L207.69 384.9m189.07-65.69L206.8 386.24"/><path d="M231.11 367.44c-9.03 4.25-14.94 11.07-24.26 19.07m22.51-20.15c-6.7 6.15-13.82 13.34-22.63 20.08"/><path d="M237.88 386.81c-11.09-1.83-19.13-1.08-31.03-.3m29.28-.78c-8.83.29-18.01 1.6-29.4.71"/></g><g class="C D G B"><path d="M391.98 318.63l-64.77 68.03m63.65-69.01l-64.79 70.09"/><path d="M337.72 359.4c-4.83 8.97-7.08 15.83-11.39 28.41m10.32-28.18c-3.5 9.25-5.97 19.05-10.39 28.06"/><path d="M352.86 373.26c-8.92 5.27-15.29 8.36-26.53 14.55m25.45-14.32c-8.68 4.45-16.28 9.54-25.52 14.2"/></g><g class="C D G B"><path d="M389.19 319.65l44.78 65.31m-46.18-66.55c7.95 10.29 40.81 53.42 48.43 64.66"/><path d="M410.75 364.84c8.19 5.4 14.24 10.79 25.54 19.02m-25.32-18.17c8.12 7.26 16.8 12.22 25.2 16.52"/><path d="M427.36 352.79c3.75 8.69 5.3 17.35 8.93 31.07m-8.71-30.22c2.49 11.13 5.63 20.12 8.59 28.57"/></g><path d="M396.189 160.408c8.07.8 17.49 6.24 23.72 11.53 6.23 5.3 10.99 12.49 13.65 20.23 2.65 7.75 3.78 17.72 2.28 26.24-1.51 8.52-5.91 18.39-11.31 24.89-5.39 6.49-13.24 11.56-21.07 14.06s-17.68 2.37-25.91.94c-8.22-1.43-16.98-4.17-23.44-9.54-6.45-5.38-12.42-14.59-15.29-22.7-2.87-8.1-3.44-17.84-1.93-25.93s5.41-16.3 10.98-22.6 13.97-12.36 22.44-15.2c8.46-2.84 23.51-1.77 28.32-1.84 4.81-.06.73.61.55 1.45m8.33 2.4c7.67 2.75 15.79 10.57 20.88 17.53 5.1 6.97 9.08 15.75 9.68 24.27.59 8.53-2.04 19.22-6.11 26.89-4.06 7.66-11.22 14.54-18.28 19.12s-15.83 7.69-24.07 8.34c-8.25.64-18.02-.74-25.43-4.46s-14.7-10.96-19.04-17.86-6.2-15.18-7-23.55c-.81-8.36-1-18.74 2.18-26.65 3.18-7.92 9.78-16.07 16.9-20.84 7.12-4.76 17.46-7.25 25.84-7.77 8.38-.51 20.41 3.78 24.44 4.67 4.02.9.05-.01-.3.7" class="B C D G"/></svg>