<svg xmlns="http://www.w3.org/2000/svg" viewBox="0 0 689.21 719.486" width="2067.631" height="2158.457" xmlns:v="https://vecta.io/nano"><style><![CDATA[.B{stroke-opacity:.6}.C{fill:none}.D{stroke-linecap:round}.E{font-family:Virgil, Segoe UI Emoji}.F{text-anchor:middle}.G{direction:ltr}.H{fill:#5f3dc4}.I{fill-opacity:.6}.J{font-size:20px}.K{stroke:#000}.L{stroke:#5f3dc4}.M{stroke-width:2}.N{fill-opacity:.2}.O{stroke-opacity:.2}]]></style><defs><style>@font-face{font-family:"Virgil";src:url("https://excalidraw.com/Virgil.woff2")} @font-face{font-family:"Cascadia";src:url("https://excalidraw.com/Cascadia.woff2")}</style></defs><path fill="#fff" d="M0 0h689.21v719.486H0z"/><g class="C D"><path d="M116.18 10c124.25 2.41 252.26 1.38 393.07 0m-393.07 0c80.91-4.07 161.79-4.28 393.07 0m0 0c72.68 3.46 106.31 34.98 106.18 106.18M509.25 10c71.88 1.95 104.53 39.81 106.18 106.18m0 0c-.51 49.79 3.12 107.34 0 212.35m0-212.35v212.35m0 0c-2.38 70.36-37.69 105.95-106.18 106.18m106.18-106.18c2.44 66.21-38.61 105.3-106.18 106.18m0 0c-128.59 1.85-260.4 5.02-393.07 0m393.07 0c-146.06-.26-294.01 1.19-393.07 0m0 0C46.39 437.86 10.95 396.55 10 328.53m106.18 106.18C42.96 438.04 8.36 401.06 10 328.53m0 0c5.87-76.45 6.55-156.43 0-212.35m0 212.35c3.16-79.48 3.15-156.21 0-212.35m0 0C11.84 47.45 45.24 11.17 116.18 10M10 116.18C8.2 48.5 46.84 5.56 116.18 10" class="K M"/><path d="M149.79 69.853l62.13 369.51m-60.09-370.51l59.29 368.86M430.475 79.319l-52.04 357.44m50.82-355.37l-51.36 353.73" stroke="#343a40" class="B"/></g><text x="293.09" y="133.372" font-size="36" fill="#087f5b" style="white-space:pre" class="E F G I">Bloke™</text><text x="292.207" y="159.659" font-size="16" fill="#087f5b" style="white-space:pre" class="E F G I">swallow a smile</text><text x="457.163" y="58.265" style="white-space:pre" class="E F G H I J">inane branding</text><g class="C D L B"><path d="M404.318 71.328l-35.54 48.29m34.15-49.59c-5.51 8.35-26.71 42.65-32.03 51.14"/><path d="M376.158 90.528c-1.07 8.26-2.78 16.73-4.42 30.63m4.62-29.43c-2.14 8.25-2.36 17.93-4.78 30.1m21.65-20.68c-5.95 5.2-12.61 10.6-21.49 20.01m21.7-18.81c-7.23 4.96-12.55 11.47-21.86 19.48"/></g><path d="M150.147 68.549c23.1 2.88 91.67 17.15 138.29 19.02 46.62 1.86 118.17-6.49 141.43-7.81m-281.12-8.91c22.93 3.54 91.82 16.78 138.61 17.95 46.8 1.17 118.77-9.04 142.16-10.92" stroke="#495057" class="B C D"/><g class="N"><path d="M171.578 185.646l-1.63-1.22.32 1.14 1.32 2.9-.4 1.99 2.5 1.62 1.32 1.57 1.38 2.43-.07.01-.66 1.6.61-.49-3.05 4.63 2.9-.48.26.44.2-.63-2.82 1.89 2.96 1.36-3.36.79 2.6-1.13 1.44 4.85-.47.18-.15 1.25-.83.64-1.56 1.47-.04-.54 1.27.46 1.29 4.2-1.76 1.04-.38-.81.27 1.92.35 1.53.18 3.05 1.9.64.23 1.62-.3 4.52 1.01 1.73-.95 1.09.53 2.57-1.28 3.9-1.27 2.74 3.81 5.45-3.47-1.88.81 3.55-.15.37 2.17.29-.38 1.55-2.69 2.11 3.75-1.52-3.34 3.34 1.16.35.51.44 2.66-.25-1.36.37 1.42.28-.89-.2 2.22 3.22-.52-2.02 2 3.95.04 1.08-1.33-1.38 3.44 2.81-1.71 1.98v.23l2.51-1.16.14 1.46.29 1.02 2.39 1.18-1.12-.65 1.82.6-.13 3.67.33-.98-1.73 3.68-1.01.58-.97 1.45.32 3.04.06-.19.77 6.27.29-1.67 1.74 3.43.5.99-2.33-.99 2.99 3.61-.03 1.46.32.99-2.94-1.76 2.53 2.99-1.63.67 2.43-1.59-1.69 3.07 2.28-.89-2.8 2.77 2.66-.1.81.1-2.39 2.62 2.09-1.61-.96 4.08-.08-.03-.1.11.38 2.17 2.97.67-.99 1.31.52-1.77-2.76.72 3.14 2.96-2.53-1.26-1.15 3.59 3.15.68-2.41-1.07 2.67 2.88-1.73-1.19 1.48.67-3.19.07 2.87 4.36-1.86-1.46 3.62-.7.17 1.03-1.2 1.81-2.16 1.38.93 3.21-.94 1.31.47-1.28.75 1.97.8 3.03.84.86-1.63-.91-1.75 2.93 3.48-2.64.89 1-.11 4.17-2.3-1.11 1.7.85-.53-1.44.4 3.72-1.51.46 1.46.12 1.31 2.8-.72.36-.02-1.71 1.29 1.78-3.58 1.73 3.9.72-2.45-1.03 1.42.48-.69 2.84 2.51-1.48-1.41 1.16-1.41 2.82 1.33.77.73-.95 2.46 3.47-1.18-.56-2.12 2.12 1.93-1.7.54.52.59.96.34 1.52-.75 3.76.19-1.06-.69 2.9.04 2.49-.81-1.06.81 1.36-.8 1.21.41 1.01 1.11-.18-2.24 2.39 1.88 1.19 1.68-1.66.4 3.67-1.58 1.56 2.74 1.45-3.43.23.43.23 2.16 3.71-1.1-2.03-.88 1.3.57 4.13.36-.52 1.75.03-.19.17.21 2 .39 2.12.01 1.37-1.09-.51 2.71.45-2.37 3.63-.3.6 2.02 1.86-.56-1.88.34 3.52-.67.35.51 1.91 1.79 1.63-2.76-.49 3.13-.73-.46 2.27 1.13 1.6-1.65.01-.15-.05 1.59 1.56 1.72-.22-1.83 2.75-.5 1.05 2.91-2.48.28 1.44.08 2.36-3.42 1.16 1.12-.55 2.84 3.42-.56-2.52-.66 3.81-.4-.72-.12 3.51-.36-.42.52.97-.53 4.55 2.8.29.04.68-1.88-2.09-.75 1.89 3.83 2.16.03 2.02-1.34.39-1.7-2.11.58 2.89 2.98 1.36-2.5-.12-.02 3.22.46 1.07.25 2.2 2.02 1.29-.31 1.35.58.22-.76 1.41-.42 3.2.8.28-.57.33 1.08.71 2.45 1.14-.44-3.6 2.17.88 1.61-1.72.24 2.62 2.47-2.81-.25-.83 1.08 2.97 1.22-2.62-.88.43 3.08.93 1.53 1.4.74.03-.44.72 3.52-1.86-.32.2 2.19-2.78 3.16.69 1.82.95-.21-2 2.71 3.55 4.39-1.03.87 1.35.35-2.58 2.13 1.66 1.77-1.81 2.28 2.82 5.15-2.91.73 2.17 3.54-3.93 2.79.02 1.61 3.63-.36-.3.2-2.09 3.05-.44 3.31-.35 1.35.9-.01-.33 2.05.06-1.05-.2.35.36 3.2.87 2.67.14-1.43-1.31 1.79.73.3.12.77-1.56 3.76 2.97 1.91-3.38 4.45.05-.76 1.58 3.27-.77-1.19 3.54 2.58-.7 1.94.19.88-1.9 1.16 1.48 1.61.47-1.11.89 2.19-1.78 2.55-.29-.83-1.8.57 2.29 2.59-1.78-1.63-.04.37 3.12 2.37-.97 1.45.71-.01-3.14-.27 1.84 3.65 1.74-1.86-3.67 4.56 1.03.59.99-.19.16 5.8-.32-.98-.89 3.25-.79 2.2-.45-1.49 1.41 1.42 1.71 1.28-.9 2.21-.98.95.13.88-.53 2.96-.7-.79.73 3.6-1.54 2.14-1 .54 1.56 1.45.63 4.08-.95 1.45-1.95-2.12-.87 2.55 2.25 2.64-.37 1.29-2.12-1.25-.87 3.65.2 1.77.58.6-1.5 1.65-.3 4.58 1.12-.49.53.55-.61 4.18.81 1.15-.37.57.35 1.81-.82-1.39 1.98 2.96-1.65.33-.46 2.01.49-.58 1.84 1.38-.08-.06-3.28.49 1.95 3.78-.99-.22-1.06 1.87 2.52 1.55-1.8-1.86.1.68 1.18.63-1.32 1.01-1.04 1.01-2.89-2.8-1.88 2.23-5.05-1.34-1.13 2.43-1.18-.18-3.59-1.46.13.1-3.93 2.24-1.42-.07-2.69.44-1.34.73-1.45-1.57-.57.92-.98-.23-.17-.08.05-2.48-1.32 2.14-2.04-1.42.47 1.02-3.93-1.11-.61 2.97.73-.65.11-.57-2.75-2.11 1.51 2.8-3.8-1.67-5.27 3.4-4.44-1.19-2.09.98-2.35 1.14-3.76-1.47-3.33 2.35-2.58.92-2.56.03-2.49.2 1.05-1.45-4.9 1.96 1.82-2.51-4.62 1.57-2.03-1.22.7 3.49-.83-1.33-4.86 1.11-1.49.64-2.26-3.12.98 2.07-.12-1.8-.51 3.52-2.29-2.49-.75-.96-2.9 1.1-1.77.55 1.49.76-3.89.97.09-1.46-.89 3.1-.3-1.99-.44-.78-4.07.55.78-.09-3.28 1.49 1.09 1.2-2.1-2.41-3.92 1.89-1.71-.06-.65 2.25-.26-2.92-3.95 1.74-2.72-.6.06 2.65-4.81-1.65.68-.25-4.15 2.35-7.93-.01 2.41.81-2.95-.72-2.5.15.63 1.66-5.27-.19-1.15-1.18-2.21 1.09-.01.8-1.7-.37-1.93-.49-.71 1.87-3.7.77-1.14.98-1.33-.15-.66.52-1.16-1.68-.95 1.89.16-.79-2.57-.46-2.17-.55-1.64.86-.19.96-1.14-1.71-2.83-1.33-2.34 1.25 1.62.49-1.3.16-4.03-.66-.43-1.56-3.81 2.05-.9.52 2.62.85-2.63.69 1.69-1.65-3.94-1.25 1.97 3.45-.97.73-.56-.56-2.92-1.8 1.54.76-5.7 1.46-1.29-.21.78 3.17-1.82.13-.92-1.27-4.97-.32.91 3.23-5.96-1.28 1.85-1.45-1.01.7-1.27 1.78-1.11-.1-2.38-.56-.52 3.12-2.65.83-4.2.4-1.62-3.26-.89 2.31-1.09.23-2.43-.88-2.12 2.73-2.61.76-2.37-1.11-3.33-.09-1.75 2.13-2.17-.38-2.56 1.52-1.66.79-2.74-3.03-.06 1.36-1.7-.48.77.26-3.37 1.73-2.07-2.62 1.96 2.01-4.5-2.32 2.12-.21-1.17 3.06-4.07-.51 2.47.43-2.78-1.47-1.37 1.74.6-1.55 3.4-.98-1.66-3.56 3.48-.06-.95.03 2.29-1.44.57-1.34 3.58-1.21-.3-1.27-.49 2.45 4.28-.32.69-3.21-2.85 2.8 1.7-3.71.11 2.87.97-1.8 2.02.97-1.41-4.56 2.7-.37-.1-.27.97-.74-1.42 1.95 2.65-2.69.6-.59.59.16-.6-.34 1.72-.72 1.21-4.26-1.36-.93-.3 3.46 1.16-3.07.84.09-.5-.68-1.92-2.79.09 1.64.75-.16.92-3.69 1.17-1.08-.22.77-1.31-1.64 1.51-2.57-.39-.92-2.04 1.71 1.27-.98-.07h-1.97l1.08 1.26-4.18-.87 1.2-1.23-2.5.11.29-.58-1.52-1.1.28-.21-.8.3-.79-2.28-2.93-1.7-.37-.63-1.48-.77.72-.76-1.04 2.64-.49-.74-1.17-2.27-.2 1.27-.47-1.04 1.52-1.91-.5-.68-2.41 1.54 2.16-3.41-2.95-1.53.79 1.74-3.41-.43 2.2-2.76.11-.97-.56 1.39-1.2-.68-.95.42-.56-1.6h-2.55l.96-1.92.08-1.01-1.6.09 1.34 1.07-.67-.64-2.46 1.35 2.14 1.83-.66-1.63-3.59 1.35 1.04.35 1.16.49-2.93 1.62 1.32-.9-2.04 3.5-1.18-2.65 2.79 2.33-3.43.59 1.45.55-1.51-.99-.12 3.14-2.47 1.32-2.02.77-.43-1.65-.3 2.65-.44-.95-1.05.12 1.41 2.88-3.24-1.38 2.06 3.03-.29-1.87-4.6 2.33-.69.32.39.37-1.24 1.42-3.08 1.09-.4-.27-2.07.33-1.87-.28.44 1.8-2.98-.53 2.05 1.55-2.33-2.56-.88 1.3-3.72.81h-.76l-.61.3-4.56-.89.3 2.86-1.35-3.05-1.33 2.94-3.21.97.92-1.13-.35-1.86-2.88-.01-1.48-.73 1.04 2.6-4.14-2.67-1.01 2.05 1.8-1.12-2.6.66-.49-1.11-.33-.23-2.43-2.94 3.13 2.81-2-2.55-1.47-1.12.75 1.78-1.06-2.57-1.29 1-1.07-.22-3.06-3.44-1.11 2.27.99-.33.27-3.8-2.96-.85 1.45.82-3.76.58 2.78-1.22-.86-2.08-1.99 1.07-.19-3.01.09 2.14-1.85-.49.81-3.71-.91 3.53.45-3.11-3.44.77-.54.23 1.46-3.82-1.65 2.55-1.38-3.67 1.34-.49-1.72 1.09-.16-.91 1.04-1.41-.4.75-2.17-.89 2.48.68-1.23-.95.72 3.46-3.19-.01-.96.18-.38.79.97 1.39-3.63-.75 1.28 4.19-2.37.22 1.06-.62-2.34.39-1.17 1.6-.72-.94-.98 3.62-2.6-.62-.94.78-.05-2.27.46 2.05-.15.61-2.67 1.24-.98-2.04-.58 1.32 1.26.48-2.96.73-.15-.75-.28 1.81-1.63-1.04-4.23 1.87-3.04-1.53.27 1.26 1.19-1.32-2.66 4.17-.55-1.77-3.07-1.7.22.91-2.43 3.62-1.26-1.07.58-.45-2.05.75-4.15-2.54-.47 2.32-5.8-.35-.48-.54-.92-1.43.72-.99-1.53 1.21-3.7-2.09 1.34.23-1.83-1.24-1.02 1.97-3.85-3.51-.71 1.52-1.21-2.06-.42-.78.61.94-.98-.28-.71-.81-.82.03-1.12-2.11-1.44.57-3.18-1.51.26-1.43-.37-2.05-.96-.41.1 1.09-1.79-2.06.94-.24-2.81.74-.83-3.24 1.28-.59-2.28 2.81.38-3.59-2.62.11 2.2-3.29-2.66-.89-1.37-1.88-.51 1.77-.13-3.52.52 1.9 1.58-3.51-.52.35-.97-2.66-2.71.94-.32.37-.12-.61-.07-2.09-.97.61.33 5.7.92 1.48-2.05-1.41 2.46 4.02-2.45-.39-.65 2.62-.44-.66-1.5 3.55-.83-1.55 2.06 2.3-2.07 1.92-1.03-3.06-1.65 1.31.91.04-1.36-1.28-2.08.57.22.58-2.98-.64-.25 1.23-2.19.21-3.37-2 .43 1.08 1.95-.79-1.95-1.53-1.53-.69 1.22 1.64-1.6-1.61-2.01-2.91-.62.9 2.27-1.25-2.17-.82-2.11.45.94-3.47-1.01-1.85-1.75-.7 3.37 1.44-2.81-3.2.97 1.13-1.84-1.73-.43 3.07 3.5-1.88-2.66 1.43 1.83 1.82-.8 1.8 1.47-.42.85-.98-.27 3.7.31-1.09-.62 1.55 1.51 3.17-1.64-.57 1.37 1 .58 2.69-2.18-2.14 1.1 3.63 2.65-2.17-3.54 1.59 1.14.38 1.97 2.02-1.78-5.74" fill="#82c91e" fill-rule="evenodd"/><path fill="#495057" d="M172.528 183.736q0 0 .25 1.51.26 1.52.61 2.88.35 1.35.8 3.01.45 1.66 1.03 3.23.57 1.56.69 2.68.12 1.12.15 2.51.02 1.38.02 2.71 0 1.33.21 2.68.22 1.36.41 2.56.19 1.2.22 2.87.04 1.66.04 2.96 0 1.29 0 2.36 0 1.07 0 2.34 0 1.27.36 2.85.35 1.58.42 3.46.08 1.88.34 4.54.25 2.66.37 4.2.11 1.54.16 2.7.05 1.16.07 3.19.02 2.03.03 3.39.01 1.36.01 2.45 0 1.09.01 2.36 0 1.28 0 2.68 0 1.41 0 2.66 0 1.25.94 2.29.94 1.05 1.62 2.12.67 1.08 1.33 2.07.66 1 1.44 1.92.78.93 1.54 2.09.76 1.15 1.64 2.43.87 1.29 1.37 2.66.49 1.38.59 2.67.09 1.29.1 2.36.01 1.07.02 3.2 0 2.13 0 4.47 0 2.34 0 4.15 0 1.82.35 2.87.35 1.04.44 2.54.09 1.51.08 2.8-.01 1.3.4 2.57.41 1.28.85 2.62.45 1.35.83 2.59.38 1.23.37 2.5-.01 1.27.51 2.33.51 1.05.55 2.42.03 1.36.04 2.69 0 1.33 0 2.65 0 1.33.34 2.5.35 1.17.44 2.63.09 1.47.1 3.06 0 1.59 0 2.99 0 1.4 0 2.83 0 1.43.35 2.6.34 1.18.32 2.44-.01 1.27.51 2.32.51 1.06.55 2.43.03 1.36.04 2.69 0 1.33.26 2.82.26 1.5.84 2.6.57 1.09.96 2.31.38 1.22.48 2.7.09 1.47.1 2.8.01 1.34.01 2.92 0 1.58 0 3.23 0 1.65.34 3.11.35 1.46.6 2.61.25 1.16.83 2.17.57 1 .7 2.69.13 1.69.15 2.81.02 1.12.02 2.41.01 1.29-.01 2.65-.01 1.36.41 2.67.41 1.31.44 2.58.02 1.27.44 2.92.42 1.65.8 3.04.37 1.39.8 2.66.44 1.26.53 2.33.09 1.06.45 2.28.36 1.21.46 2.68.09 1.47.38 2.58.29 1.11.85 2.18.55 1.06.95 2.58.39 1.52.68 2.69.29 1.17.49 2.67.21 1.5.24 2.96.03 1.47.04 2.91 0 1.45.35 3.07.34 1.62.6 2.77.25 1.15.5 2.57.25 1.42.28 2.49.03 1.07.03 2.61.01 1.54.01 3.26 0 1.72 0 3.23 0 1.5 1.27 1.96 1.26.46 2.82.28 1.57-.17 2.68-.4 1.12-.22 2.29-.43 1.17-.22 2.82-.25 1.66-.04 3.2-.26 1.54-.22 3.12-.41 1.58-.19 2.96-.21 1.38-.03 3.22-.04 1.84 0 3.07-.01 1.22 0 2.93 0 1.72 0 3.99 0 2.26 0 3.54 0 1.27 0 2.83 0 1.56 0 2.73 0 1.16 0 2.29-.24 1.14-.24 2.86-.4 1.73-.17 3.5-.2 1.77-.03 3.54-.03 1.76-.01 3.28-.01 1.51 0 2.96 0 1.45 0 2.6 0 1.14 0 2.54 0 1.4 0 3.34 0 1.94 0 3.11 0 1.17 0 2.43 0 1.26 0 3.02.01 1.77 0 3.13.36 1.36.37 2.8.43 1.45.07 2.7.08 1.25 0 2.65 0 1.4 0 2.73 0 1.33 0 2.65 0 1.33 0 2.65 0 1.33 0 2.72 0 1.39 0 3.5-.35 2.1-.36 3.99-.43 1.89-.07 3.06-.08 1.17-.01 2.34-.01 1.16 0 2.91-.41 1.74-.41 3.19-.44 1.44-.03 3.04-.04 1.6 0 3.63-.36 2.03-.36 3.73-.65 1.71-.3 3.27-.49 1.56-.19 2.92-.57 1.36-.38 2.89-.82 1.54-.44 3.26-.88 1.73-.44 3.4-.53 1.67-.08 3.07-.1 1.39-.01 2.73-.01 1.34-.01 2.66-.01 1.33 0 2.66 0 1.32 0 2.74 0 1.41 0 2.74 0 1.33 0 2.66 0 1.32 0 2.41.07 1.09.07.98-1.31-.11-1.39.17-3.8.28-2.41.38-3.7.1-1.29.42-2.5.32-1.2.43-2.32.11-1.11.18-3.03.07-1.92.08-3.07.01-1.16.3-2.92.29-1.76.44-3.18.14-1.42.15-2.99.02-1.58.02-3.07 0-1.5 0-2.84 0-1.34 0-3.17 0-1.84.26-3.37.27-1.53.64-3.18.36-1.65.77-3.36.41-1.71.57-3.36.16-1.65.49-3.47.34-1.81.75-3.13.41-1.33.56-2.51.14-1.19.51-3.52.36-2.34.52-4.19.15-1.85.18-3.87.03-2.03.32-3.78.29-1.75.42-3.08.13-1.34.43-3.43.3-2.09.44-3.16.14-1.07.17-2.66.03-1.58.34-3.24.3-1.65.43-2.86.12-1.2.42-2.54.31-1.34.43-2.45.11-1.11.15-2.41.03-1.31.4-2.7.36-1.39.7-3.52.34-2.13.48-3.45.15-1.32.44-3.62.29-2.3.71-4.65.42-2.35.86-4.45.43-2.11.55-4.11.11-1.99.44-3.26.34-1.27.45-2.66.11-1.4.45-2.44.34-1.05.5-2.29.15-1.24.19-3.53.03-2.28.4-3.97.38-1.7.82-2.88.44-1.18.78-2.78.35-1.59.5-2.99.16-1.4.17-2.89.01-1.49.02-3.46 0-1.98 0-3.27 0-1.3 0-2.51 0-1.21 0-2.98 0-1.76 0-3.43 0-1.66.3-3.4.3-1.74.91-3.16.6-1.42.92-2.46.32-1.04.69-3.13.37-2.08.89-3.62.51-1.53.84-2.6.33-1.07.5-2.43.17-1.35.85-3.47.68-2.13.88-3.66.2-1.54.61-2.85.4-1.31.85-2.42.44-1.11 1.14-3.17.7-2.05.91-3.61.21-1.55.62-2.97.41-1.42.73-2.59.32-1.16.71-2.4.39-1.24.53-2.41.13-1.18.47-2.56.34-1.37.46-2.6.12-1.23.18-2.51.05-1.29.35-3.91.3-2.63.41-3.71.1-1.08.17-2.34.06-1.26.07-2.9.02-1.64.02-2.94 0-1.28 0-2.35 0-1.06 0-2.43 0-1.36 0-1.8 0-.44.02-.6.02-.16.07-.31.06-.14.15-.27.09-.13.21-.24.12-.1.26-.18.14-.07.29-.11.16-.04.31-.04.16 0 .32.04.15.04.29.11.14.08.26.18.12.11.21.24.09.13.14.27.06.15.08.31.02.16-.78 1.33-.8 1.18-1.59 2.33-.8 1.16-1.71 2.14-.9.97-1.72 2.5-.82 1.54-1.79 3.04-.98 1.49-1.59 2.69-.61 1.19-1.6 2.2-.98 1.01-2.05 2.02-1.07 1.01-2.21 1.78-1.14.77-2.54 1.31-1.4.54-2.59.9-1.19.36-2.26.9-1.08.54-2.44.58-1.37.04-2.7.04-1.33 0-2.65 0-1.33 0-2.65 0-1.33 0-2.65 0-1.33 0-2.54-.34-1.21-.34-2.59-1.21-1.38-.87-3.02-1.72-1.63-.85-2.54-1.41-.92-.57-1.8-1.54-.89-.97-1.66-1.76-.77-.8-1.43-1.87-.66-1.07-1.46-2.26-.8-1.19-1.74-2.15-.93-.96-1.85-2.34-.91-1.37-1.64-2.19-.72-.83-1.05.35-.34 1.19-1.27 2.05-.93.87-1.66 1.94-.72 1.08-1.63 1.96-.91.88-1.79 1.6-.88.72-1.71 1.74-.83 1.02-1.92 2.21-1.09 1.19-2.42 2.13-1.33.94-2.66 1.83-1.33.88-2.65 1.37-1.31.48-2.64.93-1.32.45-2.64.89-1.33.45-2.45.75-1.13.31-3.02.89-1.88.59-3.4 1.24-1.52.64-3.47.93-1.96.29-3.4.68-1.45.4-2.9.48-1.46.09-3.06.1-1.61.01-2.73.02-1.12 0-2.44-.01-1.32-.01-2.5-.45-1.19-.45-2.25-1.22-1.06-.78-2.19-1.35-1.13-.58-2.62-1.32-1.48-.74-2.39-1.58-.91-.84-2.07-1.27-1.16-.44-2.18-.95-1.01-.51-1.98-1.41-.97-.91-1.9-2.19-.94-1.29-1.6-2.29-.66-1-1.54-1.94-.88-.94-1.84-1.76-.97-.81-1.84-1.69-.88-.88-1.54-1.71-.67-.83-1.2-1.15-.53-.3-.63-.43-.09-.13-.15-.28-.06-.14-.08-.3-.03-.16-.01-.31.02-.16.07-.31.05-.15.14-.28.08-.14.2-.24.11-.11.25-.19.14-.08.29-.12.16-.04.31-.04.16-.01.32.03.15.03.29.1.15.07.27.17.12.11.26 1.29.15 1.17-.73 2.01-.89.84-2.13 2.17-1.24 1.32-2.12 2.48-.89 1.16-1.74 1.95-.86.8-1.98 1.72-1.12.93-2.51 1.88-1.38.94-2.5 1.29-1.13.35-2.34.57-1.22.22-2.51.58-1.29.36-2.44.82-1.16.45-2.74.89-1.57.45-3.11.89-1.53.43-2.7.74-1.16.3-3.01.51-1.85.2-3.2.59-1.34.39-2.49.47-1.15.08-2.97.09-1.81.01-3.94.01-2.14.01-4.05-.29-1.92-.29-3.03-.41-1.11-.12-2.47-.51-1.37-.39-2.91-1.27-1.54-.88-2.86-1.74-1.32-.87-2.51-1.74-1.2-.87-2.51-1.75-1.32-.89-2.75-1.66-1.43-.78-2.53-1.92-1.09-1.15-2.17-1.88-1.07-.72-1.96-1.59-.88-.87-1.59-1.89-.72-1.02-1.6-1.64-.89-.62-1.61-1.66-.72-1.05-1.27-2.33-.55-1.27-1.13-2.37-.58-1.09-1.28-2.3-.7-1.21-1.29-2.62-.58-1.41-.81-1.65-.23-.25-.35-.34-.13-.1-.22-.23-.1-.12-.17-.27-.06-.14-.09-.3-.03-.15-.02-.31.01-.16.06-.31.05-.15.13-.29.08-.13.19-.24.11-.11.25-.2.14-.08.29-.12.15-.05.31-.06.15-.01.31.02.16.03.3.09.14.07.11 1.97-.04 1.9-.2 3.43-.15 1.52-.56 2.63-.4 1.1-1.13 2.74-.73 1.65-1.25 2.82-.52 1.18-1.02 2.14-.5.98-1.99 1.51-1.49.52-2.83.58-1.34.05-2.41.06-1.07.01-2.35.01-1.28 0-2.59-.03-1.31-.04-2.41-.42-1.11-.39-2.32-1.2-1.21-.8-1.81-1.72-.6-.93-1.42-2.21-.82-1.29-1.34-2.23-.53-.94-1.01-2.23-.49-1.3-.93-2.61-.45-1.32-.95-2.16-.49-.85-.52-1.01-.02-.15 0-.31.01-.16.07-.31.05-.15.14-.28.09-.13.2-.24.12-.11.26-.18.14-.08.29-.12.15-.04.31-.04.16 0 .31.03.16.04.3.11.14.07.26.17.12.1.21.23.1.13.15.28.06.14.63 1.44.55 1.29.65 2.72.09 1.43.51 2.74.42 1.31.8 2.97.38 1.65.37 2.94-.01 1.27-1.06 2-1.05.73-1.14.54-.09-.19-.11-.4-.02-.22.02-.42.05-.21.16-.39.1-.19.26-.32.16-.14.35-.22.2-.08.41-.09.22-.02.42.04.21.06.38.17.18.12.31.29.13.17.2.37.06.2.06.42.01.21-.06.41-.07.2-.2.37-.12.17-.3.29-.18.12-.38.18-.2.06-.42.04-.21-.01-.41-.08-.19-.08-.36-.22-.15-.14-.26-.32-.11-.18-.16-.39-.04-.2-.02-.42.02-.21.11-.4.09-.19.22-.35.15-.15.34-.25.19-.1.39-.14.21-.03.42 0 .21.03.4.13.19.1.34.26.14.15.14.15 0 0-.76.88-.75.89-1.24-.18-.48-1.08-.6-2.22-.12-1.14-.46-2.6-.34-1.45-.75-2.79-.4-1.34-.5-2.76-.09-1.42-.63-2.49-.54-1.08-.57-1.24-.02-.15 0-.31.01-.16.07-.31.05-.15.14-.28.09-.13.2-.24.12-.11.26-.18.14-.08.29-.12.15-.04.31-.04.16 0 .31.03.16.04.3.11.14.07.26.17.12.1.21.23.1.13.15.28.06.14.31.26.24.12.75 1.32.51 1.2.96 2.48.44 1.28.93 2.57.48 1.3 1.35 2.64.87 1.35 1.83 2.58.96 1.23 2.06 1.65 1.1.43 2.77.39 1.67-.03 3.44-.04 1.77-.01 2.98-.06 1.21-.04 2.24-.93 1.03-.89 1.48-1.93.44-1.04 1.09-2.44.64-1.4 1.07-3 .43-1.6 1.19-3.09.76-1.5.64-1.59-.13-.1-.22-.23-.1-.12-.17-.27-.06-.14-.09-.3-.03-.15-.02-.31.01-.16.06-.31.05-.15.13-.28.08-.14.19-.25.11-.11.25-.2.14-.08.29-.12.15-.05.31-.06.15-.01.31.02.16.03.3.09.14.07.8.87.66.79 1.17 1.76.51.97 1.01 2.14.5 1.17.99 2.12.49.94 1.28 2.35.79 1.41 1.42 2.57.64 1.16 1.83 2.4 1.2 1.23 2.06 2.08.86.85 1.91 1.84 1.06.99 2.17 1.82 1.12.83 2.1 1.54.98.71 2.03 1.39 1.05.68 2.4 1.58 1.34.91 2.6 1.98 1.27 1.07 3.17 2.11 1.9 1.03 3.17 1.42 1.27.39 2.72.58 1.45.19 2.91.4 1.46.21 2.63.21 1.17 0 3.19-.01 2.02 0 3.74-.07 1.71-.08 3.14-.47 1.43-.4 2.93-.53 1.5-.13 3.44-.6 1.93-.48 3.75-.87 1.82-.39 2.98-.79 1.15-.39 2.23-1.08 1.08-.68 2.55-.85 1.47-.17 2.74-.59 1.28-.41 2.31-.92 1.03-.51 2.23-1.46 1.21-.95 2.57-2.34 1.36-1.38 2.69-3.01 1.33-1.63 2.45-2.24 1.13-.6 1.03-.73-.09-.13-.15-.28-.06-.14-.08-.3-.03-.16-.01-.31.02-.16.07-.31.05-.15.14-.28.08-.13.2-.24.11-.11.25-.19.14-.07.29-.12.16-.04.31-.04.16-.01.32.03.15.03.29.1.15.07.27.17.12.11-.23-.07-.34-.18.91.97 1.24 1.15 2.12 2.03.88.88 1.73 1.77.85.88 1.77 1.81.93.92 1.96 2.05 1.03 1.13 1.87 2.16.83 1.03 1.66 1.82.82.78 1.77 1.41.96.64 2.28 1.21 1.33.58 2.17 1.34.85.77 1.94 1.43 1.1.66 2.63 1.33 1.54.67 2.34 1.37.8.7 2.06.97 1.26.26 2.49.26 1.24 0 2.67 0 1.43-.01 2.73-.04 1.3-.03 2.55-.17 1.24-.14 3.08-.52 1.84-.37 3.45-.89 1.61-.51 3.04-.9 1.44-.39 2.58-.86 1.15-.47 2.92-.93 1.77-.46 3.09-.9 1.31-.44 2.58-.89 1.27-.44 2.73-1.25 1.46-.82 2.72-1.68 1.26-.86 2.1-1.76.85-.9 1.88-2.03 1.03-1.12 1.97-2.17.93-1.04 1.77-1.87.83-.83 1.67-1.53.84-.7 1.77-1.68.92-1 1.42-2.26.49-1.27 1.75-1.76 1.26-.48 2.49.45 1.22.93 2 1.94.79 1.01 1.31 2.07.52 1.06 1.45 2.06.93.99 1.65 2.07.72 1.07 1.57 2.35.85 1.28 1.79 2.14.94.87 1.92 1.41.99.55 2.3 1.1 1.31.54 2.64 1.4 1.32.86 2.68 1.33 1.37.48 2.69.48 1.33 0 2.65 0 1.32 0 2.65-.01 1.32 0 2.63 0 1.3-.01 2.42.03 1.12.05 2.32-.54 1.21-.58 2.45-1.01 1.24-.43 2.55-1.35 1.3-.92 2.17-1.76.88-.83 1.84-1.97.97-1.14 1.62-2.19.65-1.05 1.19-2.02.54-.96 1.33-2.02.8-1.06 1.79-2.63.99-1.58 1.78-2.5.79-.93 1.71-1.97.93-1.04.95-1.2.02-.16.07-.31.06-.14.15-.27.09-.13.21-.24.12-.1.26-.18.14-.07.29-.11.16-.04.31-.04.16 0 .32.04.15.04.29.11.14.08.26.18.12.11.21.24.09.13.14.27.06.15.08.31.02.16.02.6 0 .44 0 1.8 0 1.37 0 2.43 0 1.07 0 2.36-.01 1.29-.02 2.98-.01 1.68-.08 3.03-.08 1.34-.2 2.52-.11 1.19-.37 2.56-.25 1.37-.28 2.45-.02 1.08-.08 2.44-.07 1.36-.22 2.77-.15 1.4-.46 2.64-.31 1.23-.5 2.62-.19 1.39-.85 3.61-.67 2.23-1.07 3.58-.4 1.35-.66 3.13-.25 1.79-.94 3.81-.69 2.03-1.11 3.04-.43 1.01-.89 2.94-.47 1.94-.65 3.03-.19 1.08-.56 2.2-.37 1.13-.69 2.7-.31 1.57-.77 3.33-.47 1.75-.99 3.33-.53 1.57-.86 3.39-.33 1.82-.79 3.12-.45 1.29-1.01 2.86-.55 1.57-.76 2.82-.2 1.25-.2 2.91 0 1.67 0 3.43 0 1.77 0 2.98 0 1.21 0 2.51 0 1.3-.01 2.42 0 1.13 0 2.79-.01 1.67-.04 2.9-.03 1.24-.23 2.49-.2 1.26-.52 2.75-.31 1.49-.73 2.55-.42 1.06-.78 2.59-.36 1.53-.37 2.75-.01 1.23-.1 3.22-.09 1.98-.53 3.44-.43 1.45-.87 4.08-.44 2.63-.58 4.82-.15 2.2-.59 4.33-.44 2.13-.72 3.27-.29 1.13-.41 2.28-.12 1.15-.37 2.42-.25 1.26-.33 2.99-.08 1.73-.46 3.28-.38 1.56-.43 2.7-.06 1.14-.42 2.4-.37 1.26-.39 2.59-.02 1.33-.22 2.81-.19 1.47-.44 2.91-.25 1.43-.45 2.6-.21 1.17-.41 2.32-.2 1.15-.24 2.85-.03 1.69-.21 2.99-.18 1.31-.44 3.15-.26 1.84-.45 3.46-.18 1.62-.41 3-.23 1.37-.24 2.53-.01 1.16-.09 3.07-.07 1.91-.21 3.01-.13 1.09-.4 2.2-.27 1.11-.34 2.2-.08 1.1-.27 2.5-.19 1.41-.56 2.59-.38 1.18-.7 2.88-.32 1.7-.5 3.52-.19 1.83-.6 3.52-.4 1.7-.76 3.29-.36 1.59-.6 2.89-.24 1.31-.24 2.7 0 1.39 0 2.72 0 1.33 0 2.73 0 1.4-.01 2.65 0 1.25-.03 2.68-.04 1.42-.22 2.67-.18 1.25-.41 2.64-.23 1.39-.24 2.56-.01 1.17-.09 3.2-.08 2.02-.51 4.31-.43 2.3-.54 3.72-.12 1.42-.38 3.62-.25 2.19-.33 3.7-.09 1.5-.9 2.53-.81 1.03-2.21 1.1-1.4.07-2.72.07-1.33 0-2.66 0-1.33 0-2.74 0-1.42 0-2.74 0-1.33 0-2.65 0-1.33 0-2.66 0-1.33.01-2.69.02-1.35.01-2.91.09-1.55.07-3.25.51-1.71.44-3.16.86-1.45.42-2.99.83-1.54.41-2.81.55-1.27.14-2.32.44-1.06.3-2.85.43-1.8.14-3.89.42-2.09.27-3.44.28-1.35.01-2.75.06-1.41.05-2.57.42-1.16.38-2.89.39-1.72.01-3.24.04-1.51.02-3.19.12-1.68.09-3.14.41-1.46.31-3.29.31-1.84 0-3.16 0-1.33 0-2.65 0-1.33 0-2.67 0-1.33 0-2.84 0-1.51-.01-2.7-.02-1.19-.01-2.33-.08-1.13-.07-2.35-.43-1.22-.36-2.94-.36-1.71.01-2.97.01-1.26 0-2.43 0-1.17 0-3.11 0-1.94 0-3.34 0-1.4 0-2.54 0-1.15 0-2.6 0-1.45 0-2.96 0-1.51 0-3.27 0-1.76.01-3.47.04-1.71.02-3.25.16-1.54.15-2.92.41-1.39.27-2.56.27-1.17 0-2.73 0-1.56 0-2.83 0-1.28 0-3.54 0-2.27 0-3.98 0-1.72 0-2.94 0-1.22 0-3.05.01-1.83 0-3.12.03-1.3.02-2.55.14-1.24.12-2.66.41-1.42.29-2.65.3-1.24.01-2.47.07-1.24.06-2.42.44-1.18.38-2.5.44-1.31.07-2.93.41-1.61.34-2.75.17-1.13-.16-2.05-1.45-.93-1.29-.93-2.43 0-1.15 0-2.9 0-1.74 0-3.41 0-1.66-.03-3.37-.03-1.71-.45-3.27-.41-1.55-.51-2.62-.1-1.07-.44-2.73-.33-1.65-.34-3.08-.01-1.42-.03-2.82-.03-1.4-.16-2.53-.13-1.14-.51-3.02-.39-1.88-.67-3.29-.29-1.41-1.12-2.77-.83-1.35-.96-2.82-.14-1.47-.54-2.82-.41-1.35-.49-2.65-.08-1.31-.51-2.56-.43-1.25-.81-2.3-.39-1.05-.44-2.21-.06-1.16-.44-2.22-.37-1.05-.44-2.63-.06-1.57-.43-2.57-.37-1-.38-2.45-.01-1.45-.01-2.73-.01-1.28-.02-2.36-.02-1.09-.13-2.65-.1-1.55-.86-2.78-.76-1.23-.88-2.38-.12-1.16-.44-2.57-.32-1.42-.32-3.07 0-1.65 0-3.23 0-1.58-.01-2.89 0-1.31-.1-2.75-.09-1.44-.47-2.54-.37-1.1-.88-2.23-.51-1.12-.85-2.33-.34-1.2-.34-2.52 0-1.32-.01-2.61-.02-1.28-.34-2.43-.33-1.15-.53-2.82-.21-1.66-.55-2.87-.33-1.21-.33-2.64 0-1.43 0-2.83 0-1.4-.01-2.53 0-1.13-.03-2.39-.02-1.27-.42-2.61-.4-1.35-.42-2.72-.01-1.37-.01-2.69 0-1.32-.01-2.6-.01-1.29-.34-2.44-.33-1.15-.53-2.81-.21-1.65-.58-2.79-.37-1.14-.8-2.44-.43-1.3-.84-2.68-.41-1.37-.42-2.74-.02-1.36-.08-2.62-.06-1.26-.43-2.54-.38-1.27-.38-3.12 0-1.85 0-4.19 0-2.34-.01-3.5 0-1.17-.01-3.16-.01-2-.11-3.25-.09-1.25-.54-2.48-.46-1.23-1.2-2.31-.73-1.09-1.81-2.33-1.08-1.24-1.88-2.45-.8-1.21-1.58-2.21-.79-1.01-1.6-1.96-.82-.95-1.34-2.16-.52-1.22-.52-2.47 0-1.25 0-2.65 0-1.41 0-2.68 0-1.27-.01-2.36 0-1.08-.01-2.44-.01-1.36-.03-3.34-.02-1.99-.06-3.11-.05-1.12-.15-2.56-.1-1.44-.38-4.27-.27-2.84-.29-4.04-.01-1.2-.15-2.31-.14-1.12-.41-2.27-.27-1.16-.27-2.44 0-1.28 0-2.35 0-1.06-.01-2.35 0-1.29-.01-2.42-.01-1.12-.15-2.42-.13-1.3-.42-2.67-.3-1.36-.3-2.68 0-1.32-.01-2.64 0-1.32-.1-2.62-.09-1.3-.62-2.75-.54-1.44-1.03-3.23-.49-1.78-.86-3.25-.37-1.46-.63-2.99-.25-1.52-.26-1.68 0-.15.03-.3.03-.16.09-.3.07-.14.17-.27.1-.12.23-.21.12-.1.27-.16.14-.06.3-.09.16-.03.3-.01.16.01.31.06.15.05.29.13.13.08.24.2.11.11.19.25.08.14.13.29.04.15.04.15h0z"/></g><g transform="matrix(1 0 0 1 429.471214 96.776222)" class="I E F G H J"><text x="89.5" y="18" style="white-space:pre">radioactive-looking</text><text x="89.5" y="43" style="white-space:pre">liquid</text></g><g class="C D L B"><path d="M482.367 130.409l-100 88.63m101.76-89.36c-16.62 14.85-85.21 72.54-102.19 87.53"/><path d="M397.617 192.689c-2.99 5.72-7.29 8.6-15.43 24.7m15.35-26.01c-7.22 8.51-11.99 17.86-15.81 24.86"/><path d="M410.987 208.249c-6.01 2.27-13.2 1.79-28.8 9.14m28.72-10.45c-11.84 2.92-21.36 6.73-29.18 9.3"/></g><g fill-opacity=".5"><path d="M276.642 301.335c8.66-1.03 17.79 3.32 25.82 7.6 8.02 4.28 16.89 10.72 22.35 18.08s9.24 17.29 10.42 26.09-.27 18.21-3.33 26.71c-3.07 8.49-8.32 17.99-15.06 24.25-6.73 6.26-16.63 11.17-25.37 13.32-8.75 2.15-18.48 1.61-27.11-.42s-17.67-5.86-24.66-11.76c-6.99-5.89-13.75-15.22-17.27-23.61-3.51-8.38-4.61-17.73-3.82-26.7.8-8.98 3.44-19.35 8.6-27.13s13.31-15.28 22.36-19.56c9.06-4.28 25.93-5.41 31.98-6.1 6.05-.68 4.67 1.05 4.33 2m-36.6 3.88c7.5-5.01 19.78-7.29 29.09-7.41s18.92 2.42 26.77 6.69 15.52 11.1 20.32 18.94c4.81 7.84 7.36 19.1 8.53 28.1 1.17 8.99 1.63 17.75-1.52 25.88-3.15 8.12-10.39 16.71-17.38 22.88-6.99 6.16-15.87 12.04-24.59 14.09-8.71 2.06-18.86.6-27.7-1.75-8.85-2.34-18.66-6.3-25.36-12.31-6.7-6-11.95-15.29-14.85-23.72-2.9-8.44-3.81-18.01-2.53-26.87s5.17-18.9 10.21-26.29 16.63-15.31 20.04-18.07c3.4-2.76-.09.76.36 1.51" fill="#fd7e14"/><path d="M257.672 304.965c7.71-3.68 17.61-3.59 26.64-2.25 9.04 1.33 19.97 5.16 27.57 10.25s14.29 12.26 18 20.3c3.72 8.03 4.52 18.58 4.29 27.91s-1.4 20.05-5.66 28.07-12.21 15.32-19.9 20.05c-7.69 4.74-17.24 7.4-26.26 8.36-9.03.97-19.46.85-27.89-2.57-8.42-3.42-16.84-10.9-22.65-17.96s-10.39-15.76-12.23-24.42-1.08-18.71 1.19-27.54c2.26-8.82 5.84-18.77 12.4-25.41 6.55-6.64 22.25-12.11 26.93-14.41s.86-.03 1.15.64m19.67-2.8c8.52-.24 18.21 3.68 25.82 8.01 7.6 4.34 15.14 10.2 19.81 18.01 4.67 7.8 7.94 19.69 8.22 28.82.28 9.12-2.55 18.08-6.53 25.94-3.98 7.87-10.52 15.62-17.36 21.24s-15.14 10.96-23.68 12.47c-8.54 1.5-19.02-.46-27.55-3.46-8.53-2.99-17.07-8.29-23.62-14.53-6.56-6.24-13.07-14.26-15.71-22.91s-2.17-20.08-.14-29c2.02-8.92 7-17.9 12.29-24.49 5.3-6.6 11.2-11.43 19.48-15.06s25.59-5.73 30.2-6.72-2.08-.12-2.54.75" stroke="#fd7e14" stroke-opacity=".5" class="C D M"/></g><path d="M157.602 341.236c5.95-3.56 17.26-5.72 24.47-4.83s13.92 5.08 18.79 10.17c4.88 5.09 9.18 13.11 10.47 20.35s.5 16.67-2.72 23.1-10.21 11.98-16.58 15.48c-6.37 3.49-14.38 6.55-21.64 5.49-7.27-1.06-16.79-6.65-21.95-11.85-5.16-5.19-8.1-12.33-9-19.31-.91-6.98-.68-15.67 3.55-22.58 4.24-6.92 17.43-15.71 21.87-18.9 4.45-3.18 4.62-.72 4.81-.21m22.09 2.43c6.33 2.33 12.13 7.7 15.51 14.01s5.74 16.61 4.76 23.86c-.97 7.25-5.99 14.65-10.63 19.66s-10.53 8.84-17.19 10.4c-6.67 1.56-16.04 1.62-22.79-1.04-6.74-2.66-13.64-8.6-17.68-14.93-4.03-6.33-6.95-15.68-6.53-23.05.42-7.38 3.92-15.72 9.05-21.21 5.13-5.48 14.43-10.47 21.71-11.69s18.49 3.6 21.96 4.4c3.48.79-.71-.06-1.11.36" fill="#ced4da"/><path d="M161.852 339.316c6.31-3.1 15.35-4.48 22.39-2.59 7.04 1.9 15.19 8.11 19.88 13.99 4.68 5.88 7.97 14.33 8.23 21.29.26 6.95-2.75 14.31-6.7 20.43-3.95 6.11-10.54 13.45-17 16.25-6.46 2.79-14.84 2.46-21.77.51-6.93-1.96-14.94-6.6-19.81-12.24s-9.03-14.28-9.41-21.59c-.39-7.31 2.72-15.97 7.1-22.26 4.38-6.3 15.33-13.01 19.17-15.51 3.85-2.5 3.58 0 3.92.5m-7.5 2.45c6.18-3.53 17.48-5.87 24.69-4.42s13.97 7.39 18.58 13.14c4.61 5.74 8.34 14.16 9.1 21.31.75 7.15-.82 15.44-4.56 21.57-3.75 6.12-10.8 12.32-17.91 15.19-7.12 2.86-17.73 3.87-24.77 2.01-7.04-1.87-12.86-7.48-17.49-13.2-4.64-5.73-9.38-14.21-10.31-21.14-.94-6.93.81-14.6 4.69-20.46 3.89-5.85 15.73-12.36 18.63-14.66 2.89-2.3-1.25.48-1.25.83" class="C D K M"/><path d="M283.632 311.031c7.91.65 16.58 6.42 22.9 11.64s11.95 12.44 15.02 19.69c3.06 7.24 4.75 15.8 3.37 23.76-1.37 7.95-6.4 17.46-11.64 23.96-5.25 6.5-12.36 11.99-19.82 15.04-7.46 3.04-17.01 4.24-24.93 3.24-7.91-1-16.23-4.35-22.57-9.25-6.35-4.91-12.51-12.63-15.49-20.2-2.98-7.58-3.59-17.1-2.4-25.23 1.18-8.13 4.5-17.07 9.51-23.55s12.56-12.45 20.55-15.35c8-2.9 22.31-2.1 27.41-2.07 5.11.03 3.25 1.51 3.24 2.25m-6.63-1.68c8.06.88 18.85 5.22 25.55 10.28s11.93 12.96 14.66 20.1c2.72 7.14 3.36 14.8 1.67 22.74-1.69 7.93-6.55 18.23-11.79 24.88-5.25 6.65-12.08 12.39-19.66 15.01-7.58 2.61-17.79 1.98-25.81.7s-16.05-3.49-22.34-8.37c-6.28-4.87-12.4-13.35-15.36-20.88-2.95-7.53-3.95-16.42-2.38-24.29 1.58-7.88 6.43-16.45 11.81-22.98 5.39-6.52 13.17-13.09 20.49-16.16 7.31-3.07 19.51-2.21 23.42-2.24 3.9-.03.11 1.24 0 2.06" fill="#fd7e14"/><path d="M269.272 311.021c7.79-1.64 18.83.47 26.33 3.72 7.49 3.24 13.73 9.28 18.63 15.76 4.91 6.49 9.76 15.04 10.79 23.14 1.02 8.09-1.42 17.73-4.63 25.43-3.21 7.71-8.21 15.84-14.64 20.82s-15.84 8.18-23.92 9.05-17.19-.64-24.57-3.81-14.66-8.68-19.72-15.21c-5.07-6.53-9.65-15.95-10.65-23.99-.99-8.05 1.36-16.73 4.65-24.28 3.29-7.54 7.52-15.94 15.1-21 7.59-5.07 23.94-8.23 30.4-9.39 6.47-1.17 8.34 1.43 8.38 2.41m2.55-1.46c7.54 1.28 15.6 8.02 21.37 13.94 5.76 5.92 11.15 13.75 13.24 21.59s1.46 17.61-.71 25.45c-2.16 7.84-6.73 16-12.28 21.6-5.54 5.6-12.9 10.07-21 12-8.1 1.92-19.48 1.94-27.59-.45-8.12-2.39-15.81-8.06-21.07-13.9s-8.88-13.64-10.5-21.12-1.23-16.03.79-23.77 5.44-16.65 11.32-22.65 15.93-11.2 23.95-13.35c8.02-2.14 20.23-.14 24.19.48 3.97.62-.05 2.26-.39 3.25" class="C D K M"/><path d="M397.496 337.307c6.64 2.13 13.8 7.62 17.58 13.65s5.99 15.19 5.11 22.52c-.88 7.34-5.43 15.82-10.39 21.51s-12.52 11.09-19.38 12.65-15.23-.21-21.81-3.27c-6.57-3.06-13.64-8.86-17.62-15.09-3.99-6.23-6.76-14.92-6.31-22.27.46-7.35 4.14-16.47 9.04-21.84 4.89-5.38 12.11-9.3 20.33-10.41 8.22-1.1 23.67 2.41 28.98 3.76 5.32 1.35 3.32 3.8 2.92 4.32m-6.55-4.73c6.31 2.83 11.19 9.61 14.33 15.93 3.15 6.32 5.07 15.21 4.51 21.99s-3.09 13.76-7.87 18.68c-4.77 4.92-13.62 9.27-20.77 10.86s-15.63 1.62-22.12-1.32c-6.5-2.94-13.26-9.8-16.83-16.32-3.56-6.51-5.55-15.49-4.56-22.75.98-7.26 5.39-15.73 10.47-20.8s13.14-8.41 19.98-9.62 17.68 1.92 21.06 2.36c3.37.45-.8-.4-.81.3" fill="#228be6"/><path d="M390.286 334.627c6.7.97 14.88 5.76 19.78 11.1 4.9 5.35 8.94 13.75 9.62 20.98s-1.87 16.03-5.55 22.4c-3.69 6.36-9.96 12.74-16.56 15.77-6.61 3.04-15.82 4.27-23.08 2.44s-15.46-7.91-20.48-13.44c-5.02-5.52-9.12-12.54-9.64-19.71-.51-7.17 2.51-17 6.56-23.32 4.05-6.33 10.17-12.12 17.75-14.62 7.58-2.51 22.04-1.26 27.72-.42 5.68.85 6.43 4.85 6.36 5.47m-27.47-7.27c6.45-1.72 16.38.94 22.86 4.32 6.48 3.37 12.68 9.64 16.01 15.93s4.95 14.82 3.97 21.82c-.99 7-5.06 15.03-9.88 20.18-4.83 5.15-11.96 9.61-19.08 10.72-7.12 1.12-17.19-.73-23.65-4.02-6.46-3.3-11.71-9.32-15.11-15.74-3.4-6.41-5.91-15.87-5.28-22.74.64-6.88 3.8-13.43 9.08-18.51 5.29-5.08 18.96-10.25 22.62-11.96 3.67-1.72-.47 1.17-.64 1.69" class="C D K M"/><path d="M479.871 333.487c6.61-.36 15.55 3 21.31 7.56s11.38 12.72 13.25 19.82.69 16.03-2.06 22.76c-2.74 6.74-8.32 13.72-14.43 17.62-6.11 3.91-14.98 5.98-22.22 5.8s-15.89-2.25-21.24-6.87-9.23-13.71-10.87-20.84-1.56-15.28 1.02-21.93c2.57-6.65 7.41-14.06 14.42-17.98s22.27-4.96 27.64-5.54 4.65 1.48 4.56 2.04m-10.26-3.66c7.28-.01 17.22 5.04 23.06 10.01s10.29 12.66 11.97 19.8 1.28 16.42-1.88 23.04c-3.16 6.61-10.53 13.06-17.08 16.65-6.56 3.59-15.15 5.57-22.26 4.89-7.11-.69-15.26-4.17-20.43-8.99-5.17-4.83-9.15-13-10.6-19.94-1.46-6.93-.81-15.42 1.87-21.69 2.67-6.27 8.39-11.91 14.17-15.91 5.79-3.99 17.05-7 20.52-8.04s.29.86.29 1.8" fill="#40c057"/><path d="M495.221 337.147c6.53 2.7 13.73 10.22 17.02 16.63s3.88 14.73 2.71 21.85c-1.18 7.12-4.67 15.59-9.77 20.87-5.09 5.28-13.56 9.56-20.8 10.8-7.24 1.25-16.23.09-22.65-3.35-6.42-3.45-12.45-10.69-15.9-17.31s-5.78-15.24-4.78-22.39c.99-7.15 5.3-15.42 10.74-20.51 5.44-5.08 13.77-9.42 21.89-10 8.11-.57 21.87 4.78 26.78 6.56s2.96 3.74 2.7 4.15m-33.43-9.61c6.84-1.82 17.36-1.08 24.29 1.69s13.98 8.73 17.32 14.94c3.33 6.21 3.45 15.05 2.69 22.32-.75 7.27-2.83 15.99-7.23 21.31-4.41 5.32-12.08 9.26-19.19 10.61-7.1 1.35-16.54.26-23.44-2.53-6.9-2.78-14.26-8.26-17.95-14.18s-5.02-14.07-4.21-21.32 4.01-16.35 9.06-22.17c5.05-5.81 17.75-10.8 21.22-12.72 3.47-1.91-.4.51-.4 1.22" class="C D K M"/><text x="527.678" y="203.182" style="white-space:pre" class="E F G H I J">selected flavor</text><g class="C D L B"><path d="M441.093 220.797l-129.31 87.06m128.05-87.83l-128.45 88.89"/><path d="M329.603 286.157c-9.43 8.24-15.54 18.24-19.59 24.73m19.49-25.87c-7.19 7.16-12.3 15.84-18.19 23.19"/><path d="M341.283 303.037c-13.86 1.64-24.55 5.01-31.27 7.85m31.17-8.99c-11.47 1.12-20.7 3.85-29.87 6.31"/></g><g transform="matrix(1 0 0 1 415.230921 238.80187)" class="I E F G H"><text x="88.5" y="14" font-size="16" style="white-space:pre">the same 2–5 flavors</text><text x="88.5" y="34" font-size="16" style="white-space:pre">for all of the sodas</text></g><g class="C D L B"><path d="M456.844 282.156l-40.3 50.73m39.17-51.88c-7.01 8.56-33.79 44.09-40.23 52.95m8.26-29.11c-4.37 12.31-7.13 21.71-8.55 30.91m8.32-30.59c-2.01 10.85-5.1 20.22-8.4 29.29"/><path d="M440.204 317.096c-10.48 7.84-19.37 12.68-25.01 18.66m24.79-18.35c-7.84 6.55-16.72 11.61-24.87 17.05"/></g><g class="C D L B"><path d="M481.87 283.622l6.71 42.7m-7.84-43.47l7.08 44.66"/><path d="M477.78 308.762c1.01 6.37 3.35 11 11.53 18.92m-11.67-19.99c3.41 7.37 6.64 13.59 10.53 19.83"/><path d="M492.78 306.262c-3.3 7.17-5.27 12.51-3.47 21.42m3.33-22.49c-1.84 8.17-3.88 15.27-4.47 22.33"/></g><g class="N"><path d="M157.482 501.405l47.17.62 9.73 2.09 5.03 9.96 1.75 11.9-1.43 161.11-1.57 14.61-9.77 7.95-7.68 1.63-48.48-.42-8.92-5.03-7.18-9.98-.7-5.96 1.89-170.78 3.16-12.59 5.79-1.9 9.92-2.72" fill="#868e96"/><path d="M157.152 502.995c9.69.71 20.8 1.41 43.03 0m-43.03 0c13.83-.01 26.73.61 43.03 0m0 0c14.4.09 20.32 5.79 21.52 21.52m-21.52-21.52c13.41 2.29 22.95 7.8 21.52 21.52m0 0c-1.33 57.17-.14 110.6 0 163.45m0-163.45v163.45m0 0c1.54 16.19-5.29 21.63-21.52 21.52m21.52-21.52c-.41 16.27-8.05 19.86-21.52 21.52m0 0c-15.65-1.54-29.86.42-43.03 0m43.03 0c-16.08-.63-32.77.4-43.03 0m0 0c-13.4 1.12-20.9-6.34-21.52-21.52m21.52 21.52c-14.87-.45-20.02-5.64-21.52-21.52m0 0v-163.45m0 163.45v-163.45m0 0c1.57-12.78 8.59-20.39 21.52-21.52m-21.52 21.52c1.52-15.62 8.15-22.93 21.52-21.52" class="C D K O"/><path d="M452.056 495.422l47.93-.67 7.32 3.38 5.95 5.63 1.43 11.1 1.87 167.48-4.11 13.75-9.44 6.25-9.34 1.82-46.08-2.21-9.2-1.58-9.25-9.38.3-9.95-.78-172.72 6.77-9.62 6.77-2.59 8.84-3.29" fill="#868e96"/><path d="M451.226 493.432c10.6-2.21 21.04-2.16 43.03 0m-43.03 0c10.54.05 23.65-.87 43.03 0m0 0c13.75-1.75 21.17 7.41 21.52 21.52m-21.52-21.52c16.16-.06 20.29 6.95 21.52 21.52m0 0c.71 44.07 2.11 85.97 0 167m0-167v167m0 0c1.19 15.26-6.54 21.26-21.52 21.52m21.52-21.52c-.65 16.49-9.25 21.93-21.52 21.52m0 0c-11.55.23-25.48-.36-43.03 0m43.03 0c-13.95.14-27.81 1.04-43.03 0m0 0c-15.08-.36-23.24-6.53-21.52-21.52m21.52 21.52c-15.85 1.53-21.35-6.96-21.52-21.52m0 0c-2.03-42.15-2.64-87.5 0-167m0 167c1.94-46.53 1.21-92.82 0-167m0 0c.93-15.74 7.42-23.04 21.52-21.52m-21.52 21.52c-.64-16.48 6.46-23.46 21.52-21.52" class="C D K O"/></g><text x="604.21" y="490.065" style="white-space:pre" class="E F G H I J">press for liquid</text><g class="C D L B"><path d="M598.382 509.581l-70.86 100.47m72.44-100.95l-73.12 99.1"/><path d="M537.072 580.271c-3.66 9.08-7.82 21.34-9.37 26.12m6.65-26.83c-.64 5.22-2.15 12.68-6.84 28.7"/><path d="M553.592 592.441c-9.73 4.53-19.83 12.42-25.89 13.95m23.18-14.66c-4.07 2.75-9.07 7.64-23.37 16.53"/></g><g transform="matrix(1 0 0 1 250.15426 473.248893)" class="I E F G H J"><text x="86.5" y="18" style="white-space:pre">press for ice</text><text x="86.5" y="43" style="white-space:pre">(dispenses</text><text x="86.5" y="68" style="white-space:pre">0–30,000 cubes)</text></g><g class="C D L B"><path d="M308.509 560.234l-63.31 54.32m62.02-55.09l-62.37 53.13"/><path d="M260.399 588.324c-4.8 4.32-7.76 13.41-15.74 24.69m14.03-27.52c-4.67 11.68-10.27 20.7-13.71 27.32m28.81-8.94c-8.73-.25-15.66 4.23-29.13 9.14m27.42-11.96c-9.69 5.68-20.36 8.81-27.1 11.76"/></g></svg>